<?xml version="1.0" encoding="utf-8"?>
<!-- Generator: Adobe Illustrator 24.0.1, SVG Export Plug-In . SVG Version: 6.00 Build 0)  -->
<svg version="1.1" id="Layer_1" xmlns="http://www.w3.org/2000/svg" xmlns:xlink="http://www.w3.org/1999/xlink" x="0px" y="0px"
	 viewBox="0 0 841.9 595.3" style="enable-background:new 0 0 841.9 595.3;" xml:space="preserve">
<style type="text/css">
	.st0{fill:#DBF0FB;}
	.st1{fill:#5FA081;}
	.st2{fill:#F0D792;}
	.st3{fill:#A8635B;}
	.st4{fill:#AEBB8A;}
	.st5{fill:#D3B674;}
	.st6{fill:#F8FCFF;}
	.st7{fill:#FFFFFF;}
	.st8{fill:#88BACC;}
	.st9{fill:#F1DB9F;}
	.st10{fill:#5EA080;}
	.st11{fill:#87D1F5;}
	.st12{fill:#FEF0E8;}
	.st13{fill:#ACBA89;}
</style>
<path class="st0" d="M517.4,452.9c-0.8-1.4-1.4-3-1.7-4.6c-1.3,1.7-2.9,3.5-4.7,4.4c0.4,0.1,0.9,0.2,1.4,0.4
	C514,452.8,515.7,452.7,517.4,452.9z"/>
<path class="st0" d="M262.6,486.9c-0.2-0.6-0.4-1.2-0.6-1.7c-0.8-1.7-1.5-3.4-2.1-5l-0.4,6.4C260.5,486.7,261.6,486.8,262.6,486.9z"
	/>
<path class="st0" d="M519.1,455.6c-0.2,0.1-0.4,0.2-0.6,0.3c0.1,0.1,0.2,0.2,0.3,0.2c0.2,0,0.4-0.1,0.7-0.1
	C519.3,455.9,519.2,455.7,519.1,455.6z"/>
<path class="st0" d="M462.3,465.2c2.2-0.4,4.4-0.8,6.5-1.2c-0.3-0.8-0.6-1.7-0.7-2.5c-2.6,1.1-7.1,2.7-10.1,1.7
	c-0.1,0.5-0.2,0.9-0.3,1.3c0.7,0.2,1.6,0.5,2.5,1C460.9,465.4,461.6,465.3,462.3,465.2z"/>
<path class="st0" d="M554.5,192.5C554.5,192.5,554.5,192.5,554.5,192.5c0,0.1,0,0.1,0,0.1c0-0.1,0-0.2,0-0.3c0,0,0,0,0,0
	C554.5,192.3,554.5,192.4,554.5,192.5z"/>
<path class="st0" d="M554.5,198.9C554.5,198.9,554.5,198.9,554.5,198.9C554.5,198.9,554.5,198.9,554.5,198.9
	C554.5,198.9,554.5,198.9,554.5,198.9z"/>
<path class="st0" d="M554.4,198c0-0.1,0-0.2,0-0.2c0,0,0,0.1,0,0.1C554.4,197.9,554.4,198,554.4,198z"/>
<path class="st0" d="M622.6,371.3c0-0.1,0.1-0.1,0.1-0.2c0.2-0.2,0.4-0.4,0.5-0.6c0,0,0.1-0.1,0.1-0.1c0.2-0.2,0.4-0.5,0.6-0.7
	c0,0,0,0,0,0c0.3-0.4,0.7-0.8,1-1.2c0,0,0,0,0-0.1c0.3-0.4,0.6-0.8,1-1.2c0,0,0.1-0.1,0.1-0.1c0.3-0.4,0.6-0.7,0.9-1.1
	c0.1-0.1,0.1-0.1,0.2-0.2c0.3-0.3,0.5-0.7,0.8-1c0.1-0.1,0.2-0.2,0.2-0.3c0.2-0.3,0.5-0.6,0.7-1c0.1-0.1,0.2-0.3,0.3-0.4
	c0.2-0.3,0.4-0.6,0.6-0.9c0.1-0.2,0.3-0.3,0.4-0.5c0.2-0.2,0.4-0.5,0.5-0.7c0.2-0.2,0.3-0.4,0.5-0.6c0.2-0.2,0.3-0.4,0.5-0.7
	c7.7-10.6,14.1-21.4,14.5-23c0.3-1.6-7.8-10.3-16.4-19.3c-1.5,0.4-3.1,0.7-4.8,1c0,0-0.7-0.7-1.9-1.9c-2.5,7.8-5.3,17.1-7.3,27.1
	c-0.2,0.8-0.3,1.5-0.4,2.3c-0.4,3.4-0.2,6.8,0.7,10c0,0,0,0,0,0c0,0,0,0,0,0s2.7,7.1,5.9,16.1c0,0,0,0,0,0
	C622.2,371.7,622.4,371.5,622.6,371.3z"/>
<path class="st0" d="M554.4,196.7C554.4,196.8,554.4,196.8,554.4,196.7c0-0.1,0-0.3,0-0.5v0.1C554.3,196.4,554.4,196.6,554.4,196.7z
	"/>
<path class="st0" d="M509.7,453.3c-0.1,0-0.1,0-0.2,0c0.1,0.2,0.1,0.4,0.2,0.6c0.1-0.1,0.2-0.1,0.4-0.2
	C509.9,453.6,509.8,453.4,509.7,453.3z"/>
<path class="st0" d="M554.4,194.4c0,0.1,0,0.1,0,0.2c0-0.2,0-0.5,0-0.7c0,0.1,0,0.2,0,0.3C554.4,194.2,554.4,194.3,554.4,194.4z"/>
<path class="st0" d="M554.4,193.3c0-0.1,0-0.1,0-0.2c0,0,0,0,0,0.1C554.4,193.2,554.4,193.3,554.4,193.3z"/>
<path class="st0" d="M509.9,457c0,0.1,0,0.3-0.1,0.4c0.3,0,0.6-0.1,1-0.1C510.5,457.2,510.2,457.1,509.9,457z"/>
<path class="st0" d="M244,230.1c-0.1,3.9,0.6,7.9,2.3,12.2C244.5,238,243.8,234,244,230.1z"/>
<path class="st0" d="M63.6,350.4L63.6,350.4l3.7,0l0,0l4.4,0H72l43.6,0l28.7,0l-0.2,0.3l0,0l49.5,64.1h-3.8h-2.8v18.1l18,0.1l0.3,0
	l0,0l35.3,45.7h-2h0v5.4c5.5,0.8,11,1.5,16.6,2.1c-0.7-12.7-1.5-29-0.8-34.5c1-8.9,6.5-14.1,7.2-14.7c0,0,0,0,0.1-0.1
	c0,0,0-0.1,0.1-0.3c0,0,0,0,0,0c0,0,0-0.1,0-0.1c0,0,0,0,0-0.1c0,0,0,0,0-0.1c0,0,0-0.1,0.1-0.1c0,0,0,0,0,0c0,0,0.1-0.1,0.1-0.1
	c0,0,0,0,0,0c0,0,0.1-0.1,0.1-0.1c0,0,0.1,0,0.1-0.1c0,0,0.1,0,0.1-0.1c0,0,0.1-0.1,0.1-0.1c0,0,0,0,0.1,0c0.1,0,0.1-0.1,0.2-0.1
	c0,0,0,0,0,0c0.1,0,0.2-0.1,0.3-0.1c0,0,0,0,0,0c0.4-0.2,0.8-0.4,1.4-0.5c1-0.3,2.3-0.6,4.1-0.7c2.6-0.3,6.1-0.3,10.9-0.1
	c0.2,0,0.4,0,0.6,0c0.2,0,0.5,0,0.7,0c3.3,0.2,7.2,0.2,11.4,0.1c0,0,0,0,0,0c0,0,0,0,0,0c8.4-0.2,18.1-1,27.1-1.8
	c13.4-1.1,25.1-2.3,28-1.9c0.8,0.1,1.7,0.3,2.6,0.4c0.1,0,0.2,0,0.2,0c0,0,0,0,0,0c0,0,0,0,0,0c2.5,0.4,5.2,0.9,8,1
	c2.4,0.1,8.1-2.6,12.9-1.1c5.6,2.7,10.8,6,15.5,9.7c7.5,5.8,13.8,12.5,19,18.9c4.4,5.4,7.8,10.6,10.4,14.9
	c8.3-1.9,16.8-3.7,25.5-5.4c1.2-1.2,2.5-2.2,3.8-2.6c-0.1-0.1-0.2-0.2-0.2-0.3c-2.4,1.7-8.5,3.3-12.5,2.1c0,0,4-3.1,7.9-4.3
	c-2.9,0-6.2-0.7-8.4-2.2c0,0,7.9-3,12.2-1.2c0-0.1,0.1-0.2,0.1-0.3c-2.9-0.8-8-4.1-9.7-7.9c0,0,8.5,1.5,11.2,5.4
	c0.1-0.1,0.2-0.3,0.4-0.4c-2.3-1.9-5.3-7.3-5.2-11.5c0,0,7.1,5.4,7.6,10c0.1-0.1,0.3-0.1,0.4-0.2c-1.1-2.7-1.4-9,0.7-12.7
	c0,0,3.8,8.1,2.1,12.4c0.5,0,0.9,0.1,1.4,0.3c0.6-3,3.3-8.1,6.7-10.1c0,0-0.6,8.6-4,11.7c0.1,0.1,0.2,0.2,0.3,0.3
	c1.6-2.5,6.5-6.2,10.7-6.6c0,0-4.6,8.1-9.2,8.9c0.1,0.2,0.1,0.4,0.2,0.6c2.3-1,6.7-1.4,10.2-0.6c0,0,0,0,0-0.1c0,0,0,0,0.1,0.1
	c0.8,0.2,1.5,0.4,2.1,0.8c0,0-0.3,0.2-0.8,0.4c0.7,0.7,1.7,1.6,2.5,2.6c0.7-0.1,1.4-0.2,2.1-0.4c0-2,0.4-4.2,1.3-5.8
	c0,0,1.2,2.5,1.8,5.3c0.7-0.1,1.4-0.2,2.1-0.3c0.7-0.1,1.4-0.2,2.1-0.4c0.8-1,1.7-1.8,2.6-2.4c0,0-0.1,0.8-0.2,2
	c0.9-0.1,1.8-0.3,2.7-0.4c1.5-1.1,3.8-2.5,6.1-3.3c-2.9,0-6.2-0.7-8.4-2.3c0,0,7.9-3.3,12.2-1.3c0-0.1,0.1-0.2,0.1-0.4
	c-2.9-0.8-8-4.5-9.7-8.5c0,0,8.5,1.6,11.2,5.8c0.1-0.1,0.2-0.3,0.4-0.4c-2.3-2.1-5.3-7.9-5.2-12.5c0,0,7.1,5.8,7.6,10.9
	c0.1-0.1,0.3-0.1,0.4-0.2c-1.1-3-1.4-9.7,0.7-13.7c0,0,3.8,8.7,2.1,13.4c0.5,0.1,0.9,0.2,1.4,0.3c0.6-3.3,3.3-8.7,6.7-11
	c0,0-0.6,9.3-4,12.6c0.1,0.1,0.2,0.2,0.3,0.3c1.6-2.7,6.5-6.7,10.7-7.2c0,0-0.7,1.4-1.9,3.1c2,1.8,5.7,5.4,6.2,8.7
	c0.1,0,0.3,0,0.4-0.1c-1.1-2.8-1.3-8.9,0.7-12.5c0,0,0.8,1.8,1.6,4.1c2.8-29.3,3.8-42.2,4.1-46.7l0,0l0.1-1.8l0-0.1
	c0-0.1,0-0.1,0-0.1l0,0l4.3-65.7c0,0,1.5-10.3,2.7-20c-5.3,3.6-26.8,17.8-43.8,18.1c-19.5,0.3-60-23.4-60.1-23.5c0,0,0,0,0,0
	c-0.1,0-7.9-0.3-10.4-2c-2.6-1.6-6.7-3.7-5.9-5c0.5-0.7,3.5-0.7,6-0.6c-1.5-3.2-3-7.3-6.1-8.4c-4.7-1.8-4.8-4.3-4.8-4.3
	s0.8,0.1,2,0.3c-0.5-1.2,0-3.2,0-3.2s3.7,2.5,6.8,4.5c2,0.4,3.8,0.8,4.7,1.2c3,1,11,9.7,11,9.7s40.5,9.8,50.8,10.9
	c4.3,0.5,14.5-6.6,25-15c-0.4-0.5-0.6-0.8-0.6-0.8c24.4-30.9,36.5-36.7,45.2-37.5c0,0,0.1,0,0.1,0c1.5-0.2,3.2-0.4,5-0.5
	c0.3,0,0.6-0.1,0.9-0.1c0.4,0,0.9-0.1,1.3-0.1c0,0,0,0,0,0c0,0,0,0,0,0c0,0,0,0,0,0c0,0,0,0,0,0l0,0c2.2-0.2,4-1.9,4.4-4.1
	c0.4-2.3,0.7-5.3,0.9-8.4c0,0,0,0,0,0c0.1-1.5,0.2-2.9,0.2-4.4c0.1-1.4,0.1-2.7,0.1-4c-3,0.1-5-0.1-5-0.1c-5.5-0.8-8-15.9-8.5-28
	c0,0,0,0,0,0c0,0-1.2-3.6-1.7-8.3c-14-12.8-21.1-25.3-16.9-32.1c4-6.4,17.2-5.9,33.6,0c11.2-11.9,25.8-14.9,45.2-4
	c16.4,9.2,10.9,29.5,7.6,38c0,0,0,0,0,0c10.8,11.1,15.8,21.5,12.1,27.5c-2.8,4.5-10,5.6-19.7,3.8c-4.2-0.8-8.8-2-13.7-3.8
	c-1.5-0.6-3.1-1.2-4.7-1.8c-1.4,1.5-2.2,3.2-2.2,3.2l0,0c-0.2,12.7,2.3,21.7,4.8,25.5c0.5,0.7,1.2,1.2,2.1,1.4c0,0,0,0,0,0
	c0.1,0,2.5,0.4,5.3,1c0,0,0,0,0,0c0,0,1.8,0.3,2.4,0.5c0.3,0.1,0.8,0.2,1.3,0.3c0.7,0.2,1.3,0.4,1.9,0.5
	c17.9,5.6,37.1,30.9,37.1,30.9s0,1-0.3,2.7c10,12.7,21.4,28.2,27.3,40.1c0,0-5.3,11.5-19.9,26.3h0c-6,6.1-13.7,12.7-23.2,19.3
	c0,0,0,0,0,0c-1.8,1.2-3.6,2.4-5.5,3.7c0,0,0,0,0,0c-0.6,0.4-1.2,0.8-1.9,1.2c0,0,0,0-0.1,0c-0.3,0.2-0.7,0.4-1.1,0.7c0,0,0,0,0,0.1
	c7.5,23.8,0.8,58,0.8,58l0,0c0,0,0,0,0,0c0,0.3,0,0.6-0.1,0.9c16.2-1.6,31.9-3.1,46.9-4.4h0c0.7-0.1,1.4-0.1,2-0.2
	c0.7-0.1,1.3-0.1,2-0.2c0.8-0.1,1.6-0.1,2.4-0.2c1.7-0.1,3.3-0.3,5-0.4c0.2,0,0.4,0,0.6-0.1c1.3-0.1,2.5-0.2,3.8-0.3
	c4.7-0.4,9.2-0.8,13.7-1.1c1-0.1,2-0.2,3-0.2c1.1-0.1,2.2-0.2,3.3-0.3c1.5-0.1,2.9-0.2,4.4-0.3c0.9-0.1,1.8-0.1,2.7-0.2
	c1.6-0.1,3.2-0.2,4.7-0.4c0.8-0.1,1.5-0.1,2.3-0.2c1-0.1,2.1-0.2,3.1-0.2c0.1,0,0.2,0,0.3,0c1.7-0.1,3.4-0.3,5-0.4
	c0.5,0,1.1-0.1,1.6-0.1c0,0,0.1,0,0.1,0c0,0,0,0,0,0c13.4-1,25.4-1.8,35.6-2.5c-0.6-0.8-1.3-1.5-1.9-2.3c-1.7-1.9-3.4-3.8-5.2-5.6
	c-13.5-13.7-29.6-25.2-43-37.4c-21.7-19.7-35.9-41.3-18.7-77.4c0.5-1.1,1.1-2.2,1.6-3.4c5.4-11.8,9.5-23,12.4-33.7
	c1.2-4.5,2.2-8.8,3-13.1l-87.8-1.2c0,0,7.9-18.8,27-16.7c0,0,27.6-31.3,57-4.2c0,0,2.3-0.5,6.2-1c0.2-13.2-1.7-25.4-5.4-36.6
	c-4.8-14.5-12.7-27.1-22.9-37.9c-1.2-1.3-2.4-2.5-3.6-3.7c-63-61.5-204-60.5-279.3,6.1c-29.3,25.9-65.4,27.8-104.9,25.8l-4.7,111.6
	c0,0.1,0,0.3,0.1,0.4l-0.3,7.4c0,0,0,0.1,0,0.1l-3.7,87.5L234.7,365c11.7-6,22.9-12.8,33.5-20.4c7.6-5.5,15.4-11.6,21.5-19
	c-6.1,7.3-13.8,13.4-21.4,18.9c-10.7,7.6-21.9,14.4-33.5,20.4l-7.8-4c0.1-0.3,0.3-0.6,0.5-0.9c-0.2,0.3-0.4,0.6-0.5,0.9l-10.9-5.7
	l14.4-124.2v-0.1l1.6-13.8c0-0.2,0-0.4,0.1-0.7c0.1-0.5,0.2-1.2,0.6-2.1c-0.4,1-0.5,1.7-0.6,2.1l3.6-30.8
	c-45.5-0.3-92.8,7.8-137.4,49.5c-8.9,8.3-17.6,18-26.3,29.2c-2.3,3-4.6,6.1-6.9,9.4H65c-4.4,6.2-8.8,12.8-13.1,19.9
	c-1.9,3.1-3.6,6.3-5.3,9.5c-4.6,9.4-8.1,19.3-10.7,29.6c-1.1,4.2-2,8.6-2.7,12.9c-1.1,6.4-1.9,13-2.4,19.6c-0.2,3.1-0.4,6.2-0.5,9.3
	c-0.2,4.6-0.2,9.2-0.2,13.8l29.4-38.1H63.6z M448.2,167.2c0,0,14.3-16.5,29.5-2.2c0,0,16.2-3.5,28.2,3.1c8,4.4,10.6,9,10.6,9
	l-82.3-1.1C434.2,176,438.4,166.1,448.2,167.2z M310.8,269.3l0.9-21.1l0.7-15.1v-7.3l37.7-5.8l0.6,7.5l6.9-1l44.4-6.5l-1.1,14.4l0,0
	l-3.7,50.4l-86.9-3.7L310.8,269.3z M179.8,311.4c8.5,4.7,11.4,9.7,11.4,9.7l-87.9-1.2c0,0,4.4-10.6,14.9-9.4c0,0,15.3-17.6,31.5-2.4
	C149.6,308.1,166.9,304.3,179.8,311.4z M91.7,280.3c0,0,11.7-13.5,24.1-1.8c0,0,13.2-2.9,23.1,2.5c6.5,3.6,8.7,7.4,8.7,7.4
	l-67.3-0.9C80.3,287.5,83.6,279.4,91.7,280.3z"/>
<path class="st0" d="M260.1,340.6c-6,4.1-12.2,8-18.6,11.6C247.8,348.5,254.1,344.7,260.1,340.6z"/>
<path class="st0" d="M235.2,247.9c0.1,0.1,0.1,0.3,0.2,0.4c0.3,0.6,0.6,1.1,0.9,1.6l0.3,0.5c0.4,0.7,0.8,1.3,1.2,1.9
	c5.5,7.9,13.1,13.8,21,19.2c7.4,5.1,15.4,9.5,22.2,15.4c4.8,4.1,9.4,9.4,10,15.7c-0.6-6.4-5.2-11.7-10-15.8
	c-6.8-5.9-14.8-10.3-22.2-15.4c-7.9-5.4-15.5-11.3-21-19.2c-0.4-0.6-0.9-1.3-1.2-1.9l-0.3-0.5c-0.3-0.6-0.6-1.1-0.9-1.6
	C235.3,248.1,235.2,248,235.2,247.9c-0.7-1.5-1.3-2.9-1.9-4.4v0.1C233.8,245.1,234.5,246.5,235.2,247.9z"/>
<path class="st1" d="M447.6,468.5C447.7,468.5,447.7,468.5,447.6,468.5C447.7,468.5,447.7,468.5,447.6,468.5
	C447.7,468.5,447.7,468.5,447.6,468.5z"/>
<path class="st1" d="M519.8,478.8c0.9,0.4,1.9,0.8,2.7,1.4c0-0.2,0-0.5,0-0.7c-0.5-0.7-0.9-1.5-1.3-2.3
	C520.8,477.7,520.3,478.3,519.8,478.8z"/>
<path class="st1" d="M522.8,475.3c0-0.2,0-0.5,0.1-0.7c-0.1,0.2-0.2,0.3-0.3,0.5C522.7,475.2,522.7,475.2,522.8,475.3z"/>
<path class="st1" d="M481.1,495.6C481.1,495.6,481,495.6,481.1,495.6c0.5,0.6,1.2,1.5,1.7,2.6c0,0,0.1,0.1,0.1,0.1
	c2.1,0,2.8,0.2,2.8,0.2s-0.6,0.6-1.5,1.4c1.4,2,2.2,4.4,2.7,5.9c0.2-2.3,0.5-4.6,0.8-6.9C487.1,498.6,482.6,497.7,481.1,495.6z"/>
<path class="st1" d="M516.6,478.9c-0.5,1.6-1,3.3-1.5,4.9c1.7-0.5,5-1.3,7.2-0.6c0-0.1,0-0.2,0-0.2
	C520.6,482.5,518.1,480.9,516.6,478.9z"/>
<path class="st1" d="M514.3,488.8c0,0,2.8-2.2,5.6-3c-1.7,0-3.5-0.3-5-1c-1,4-1.9,8-2.6,12c1.1-0.9,2.9-2.2,5.2-3.3
	c0.5-0.9,2.4-3.8,4.6-5.3c0-0.1,0-0.2,0-0.3C520,488.9,516.7,489.5,514.3,488.8z"/>
<path class="st1" d="M477.1,467.8c0.4,0,0.8,0.1,1.2,0.2c0.3-1.7,1.5-4.2,3.1-6.2c-0.7,0.1-1.4,0.2-2.1,0.4
	c-0.7,0.1-1.4,0.2-2.1,0.3C477.5,464.4,477.7,466.4,477.1,467.8z"/>
<path class="st1" d="M523.5,455.6c0-0.1,0-0.1-0.1-0.2c-0.1,0-0.3,0-0.4,0.1c0,0.1,0,0.2,0,0.3C523.2,455.7,523.3,455.7,523.5,455.6
	z"/>
<path class="st1" d="M480.5,469.4c0.1,0.1,0.2,0.2,0.3,0.3c1.4-2.1,5.6-5.3,9.1-5.6c0,0-3.9,6.9-7.8,7.6c0.1,0.2,0.1,0.3,0.2,0.5
	c2.4-1,7.5-1.4,10.6,0.2c0,0-6.6,3.5-10.4,2.3c0,0.4-0.1,0.8-0.3,1.1c2.5,0.6,6.8,3.5,8.3,6.7c0,0-7.3-1.3-9.5-4.6
	c0,0-0.1,0.1-0.1,0.1c1.7,1.6,3.9,5.5,4.2,8.8c0.8-0.4,1.7-0.7,2.5-0.8c0,0-2.7,4.9-5.5,5.3c0,0.1,0.1,0.2,0.1,0.3
	c1.5-0.6,4.6-0.9,6.8-0.2c1.4-8.2,3.3-16.6,6.1-24c-1.9,1.3-4.1,2.4-6,2.6c0,0,4-7.7,8.4-9.4c-0.1-0.1-0.2-0.2-0.2-0.4
	c-2.4,1.9-8.5,3.6-12.5,2.3c0,0,0.7-0.6,1.9-1.4c-0.9,0.1-1.8,0.3-2.7,0.4C483.3,463.8,482.4,467.6,480.5,469.4z"/>
<path class="st1" d="M474.7,468.1c-0.5-1.1-0.8-3-0.7-5c-0.7,0.1-1.4,0.2-2.1,0.4c1.2,1.5,2.3,3.1,2.4,4.7
	C474.5,468.1,474.6,468.1,474.7,468.1z"/>
<path class="st1" d="M473.9,491.6c0-0.1,0-0.1,0.1-0.2c-1.4-0.4-3.8-1.8-5.1-3.6c-0.4,1.4-0.9,2.8-1.3,4.2
	C469.2,491.6,472.1,490.9,473.9,491.6z"/>
<path class="st1" d="M467.4,492.8c-0.9,3.4-1.6,6.8-2.2,10.2c1-0.8,2.5-1.9,4.5-2.8c0.2-0.3,0.7-1.1,1.3-1.9
	c-0.4-0.7-0.8-1.3-1.2-1.9c-1,0.1-2,0-2.9-0.2c0,0,0.8-0.6,2-1.3c-0.5-0.8-0.7-1.3-0.7-1.3s1,0.1,2.6,0.4c0.3-0.1,0.6-0.2,0.9-0.3
	C470.3,493.7,468.7,493.4,467.4,492.8z"/>
<path class="st1" d="M519.2,466.7c0.2-0.1,0.4-0.2,0.6-0.3c-0.1-0.1-0.2-0.2-0.2-0.3c-0.2,0.1-0.3,0.2-0.5,0.3
	C519.1,466.5,519.1,466.6,519.2,466.7z"/>
<path class="st1" d="M472.4,480.4c-0.3,0.3-0.7,0.6-1.1,1c-0.8,1.8-1.5,3.7-2.1,5.6c0.3,0.1,0.7,0.2,1.1,0.3
	C470.5,485.4,471.1,482.4,472.4,480.4z"/>
<path class="st1" d="M520.7,470.2c-0.4,0.4-0.8,0.8-1.3,1.1c-0.9,2.1-1.8,4.3-2.5,6.5c0.4,0.1,0.8,0.2,1.2,0.3
	C518.5,476,519.2,472.5,520.7,470.2z"/>
<path class="st1" d="M516.4,521.6c1.1-0.9,3.1-2.3,5.7-3.2c0-0.3,0-0.6,0-0.9c-1.5-1.9-2.6-3.9-2.6-3.9s0.9,0.1,2.5,0.4
	c-0.2-5.4-0.2-10.6-0.1-15.6c-0.5,0-1,0.1-1.5,0.1C518.1,506.2,517,514.5,516.4,521.6z"/>
<path class="st1" d="M510.1,463.2c-0.3-0.1-0.5-0.1-0.8-0.2c0.5,0.8,1.1,1.7,1.6,2.7c0.6-0.3,1.2-0.6,1.8-0.9
	C511.8,464.3,510.9,463.8,510.1,463.2z"/>
<path class="st1" d="M512.1,468.5c0.5,1.4,0.8,2.9,0.9,4.2c1.4-2,3.5-4.6,5.9-5.9c-0.1,0-0.2-0.1-0.4-0.1
	C516.8,467.6,514.4,468.3,512.1,468.5z"/>
<path class="st1" d="M499.6,462.7C499.6,462.7,499.6,462.7,499.6,462.7C499.6,462.8,499.6,462.8,499.6,462.7
	C499.6,462.8,499.6,462.8,499.6,462.7z"/>
<path class="st1" d="M460.2,465.5c2.5,1.3,5.4,3.7,6.9,6.2c1.3-0.1,2.6,0,3.7,0.5c0-0.1,0.1-0.2,0.1-0.3c-2.5-0.6-6.8-3.5-8.3-6.7
	c0,0,7.3,1.3,9.5,4.6c0.1-0.1,0.2-0.2,0.3-0.3c-1.2-1-2.6-3.1-3.5-5.4c-2.2,0.4-4.4,0.8-6.5,1.2
	C461.6,465.3,460.9,465.4,460.2,465.5z"/>
<path class="st1" d="M522.1,468.5C522.1,468.5,522.1,468.5,522.1,468.5C522.1,468.5,522.1,468.5,522.1,468.5
	C522.1,468.5,522.1,468.5,522.1,468.5z"/>
<path class="st1" d="M512.6,473.3c-0.8-0.7-2.9-2.6-4.6-4.9c-0.3-0.1-0.6-0.1-0.9-0.2c0,0,0.2-0.1,0.5-0.4c-1-1.5-1.9-3.1-2.1-4.7
	c-0.1,0-0.2,0.1-0.4,0.1c1,3.1,1.1,9.5-0.8,13.3c0,0-2.7-6.1-2.5-10.8c-1,3.3-3.4,7.7-6.4,9.7c0,0,0.4-6.9,2.8-10.9
	c-0.4,0.4-0.8,0.8-1.3,1.2c-5.8,14.4-8.3,32.4-9.3,46.9c2.1-1.9,7.1-5.7,13.4-6.1c4.3-0.2,7.1-0.2,8.8-0.2c0.5-4.7,1.3-9.6,2.3-14.5
	c-1.1,0-5.9-0.1-9.5-1.3c-4.1-1.5-9.8-11.3-9.8-11.3s4.6,0.4,11.1,2.3c6.1,1.8,7.2,8.5,8.2,10.1c1.3-6.6,3.1-13.1,5.5-19
	c-1.9,1.2-4.1,2.2-6,2.4C511.4,475.1,511.9,474.4,512.6,473.3z"/>
<path class="st1" d="M482.2,493.2c0,0.3-0.1,0.5-0.2,0.8c1.7,0.4,4.6,2.4,5.8,4.6c0.3-2.2,0.6-4.4,1-6.6
	C487.3,492.7,484.1,493.9,482.2,493.2z"/>
<path class="st1" d="M518.7,460.5c0-0.1,0.1-0.2,0.1-0.3c-1.5-0.4-3.5-1.4-5.3-2.9c-0.9,0.1-1.9,0.1-2.7,0c-0.3,0-0.6,0.1-1,0.1
	c-0.1,0.4-0.1,0.7-0.2,1.1c1,0.3,2.1,0.8,3.4,1.6C515,459.8,517.1,459.8,518.7,460.5z"/>
<polygon class="st1" points="508.1,461.2 508.1,461.2 508.1,461.2 "/>
<path class="st1" d="M519.5,456c-0.2,0-0.4,0.1-0.7,0.1c0.6,0.5,1.1,1,1.5,1.5c0.1-0.1,0.2-0.3,0.4-0.4
	C520.3,456.9,519.9,456.5,519.5,456z"/>
<path class="st1" d="M475.4,481.4c-0.3,1-0.8,2.1-1.4,3.2c1.1,1.2,2.4,2.8,2.5,4.2c0.1,0,0.2-0.1,0.3-0.1c-0.2-0.6-0.4-1.4-0.5-2.3
	C475.8,484.9,475.4,483,475.4,481.4z"/>
<path class="st1" d="M353.6,532.7c0.2-2.1-2.5-4.4-2.6-8.7c-0.1-4.4,0-12.5-1.2-15.3c-0.8-1.9-0.9-11.4-2.1-18.7
	c-0.4,0.1-0.7,0.2-1,0.3c-4.8,1.9-27.7,7.9-44.1,1.4c0,0-2.3-0.1-3.6,0.8c-0.4,0.3-4.5,1.7-9.7,2c-2.6,10.8-4.8,21.5-4.2,23.6
	c1.2,4.2,7.7,17.6,8.6,19.6h61.1C354.4,536.9,353.4,534.5,353.6,532.7z"/>
<path class="st1" d="M283.9,533c0.1-3.5-9.9-17.3-9.9-17.3s-0.1-1.9-0.3-4.8c-0.7,3.8-1,6.4-0.7,7.2c1.2,4.2,7.7,17.6,8.6,19.6h4.6
	C285.5,537.1,283.8,535.7,283.9,533z"/>
<path class="st1" d="M271.8,533c0.1-3.5-9.9-17.3-9.9-17.3s3.5-19.3,0.6-28.8c-1-0.1-2.1-0.2-3.1-0.3l-0.8,14.4c1,0.6,0.3,3,0.3,4.1
	c0,1.5,0,2.9,0,2.9s-3.8-4.1-2.9-6.1c-0.1-2.1-0.6-8.3-1-15.8c-5.5-0.6-11.1-1.3-16.6-2.1v53.6h35.6
	C273.4,537.1,271.8,535.7,271.8,533z"/>
<path class="st1" d="M434.9,509.6c-1.8,0-5.7-0.2-8.9-1.3c-1.5-0.5-3.2-2.1-4.7-4c0,0,0,0.1,0,0.1c-0.2,2.7,1,4.8,0.9,5.4
	c0,0.6-1.8,3.3-4,3.2c-2.2-0.1-4.8-0.4-6.1-3.1c-1.4-2.8-2.1-4.5-3.5-4.7c-1.3-0.2-8.6-7.3-10.1-10.5c-0.8-1.6-3.3-4.9-12-6.7
	c-2.8-0.6-6.3-1-10.6-1.2c-1.4,2.8-3.1,5.1-5.2,5.7c-1.1,7.7-2.1,15.3-2.2,16.2c-0.2,1.9-2.2,4.2-2.1,7.3c0.1,3.1,1.2,13.4,4.5,16
	c2.8,2.2,3.5,4.8,3.6,5.5H434C433.7,534.7,433.5,523.4,434.9,509.6z"/>
<path class="st1" d="M364.3,532.7c0.2-2.1-2.5-4.4-2.6-8.7c-0.1-4.4,0-12.5-1.2-15.3c-0.5-1.3-0.8-5.9-1.2-11
	c-0.8,5.7-1.4,10.5-1.5,11.2c-0.2,1.9-2.2,4.2-2.1,7.3c0.1,3.1,1.2,13.4,4.5,16c2.8,2.2,3.5,4.8,3.6,5.5h1.7
	C365.1,536.9,364.1,534.5,364.3,532.7z"/>
<path class="st1" d="M484.3,487c-0.4-0.3-0.9-0.8-1.5-1.4c-0.3,1.5-0.9,3.1-2,4c0.1,0.1,0.1,0.1,0.2,0.2
	C481.6,488.9,482.9,487.8,484.3,487z"/>
<path class="st1" d="M417.9,476.8c0.3,0.1,0.5,0.2,0.8,0.3c0,0,0,0,0,0c0,0,0,0,0,0c1,0.4,2,0.9,3.1,1c2.1,0.3,2.5,1.3,2.5,1.3
	c0,0,0,0,0,0c-0.2,0.5-0.5,0.9-0.8,1.2c-0.2,0.2-0.3,0.3-0.5,0.4c0,0,0.1,0,0.1,0h0.1c2.1,0.3,2.5,1.4,2.5,1.4
	c-0.9,2-3.1,2.4-4.6,2.4c0.5,2,1,5.1,0.1,6.5c-0.7,1.1-0.7,3.6-0.4,6.3c1.8,0.3,4.1,0.8,6.6,1.6c5.1,1.5,6.7,6.4,7.6,8.9
	c1.2-11.5,3.6-24.5,8-35.5c-1.9,1.2-4.1,2.2-6,2.4c0,0,1.9-3.4,4.6-6c-8.7,1.7-17.2,3.5-25.5,5.4c0.5,0.8,0.9,1.5,1.3,2.3
	C417.5,476.7,417.7,476.8,417.9,476.8z"/>
<path class="st1" d="M462.2,519.9c-2.4-1.6-5.1-6.4-5.1-6.4s2.2,0.2,5.5,1c0.5-5,1.2-10.3,2.3-15.7c-1,0-5,0-8.1-1.1
	c-3.5-1.3-8.3-9.6-8.3-9.6s3.9,0.3,9.5,1.9c5.2,1.5,6.1,7.2,7,8.6c1.1-5.6,2.6-11.1,4.7-16.1c-1.6,1-3.4,1.9-5.1,2
	c0,0,3.4-6.1,7.1-7.4c-0.1-0.1-0.1-0.2-0.2-0.3c-2,1.5-7.2,2.8-10.6,1.8c0,0,3.4-2.6,6.7-3.7c-2.4,0-5.3-0.6-7.2-1.8
	c0,0,2.3-0.9,5-1.3c-2.7-0.7-7.3-2.2-9.2-4.9c0,0.1-0.1,0.1-0.2,0.2c2.2,2.1,5.1,7.3,5,11.3c0,0-6.7-5.1-7.5-9.7
	c-0.1,0-0.2,0.1-0.4,0.1c1,2.9,1.1,8.8-0.8,12.3c0,0-2.7-5.6-2.5-10c-1,3-3.4,7.1-6.4,9c0,0,0.4-6.4,2.8-10.1
	c-0.4,0.4-0.8,0.8-1.3,1.1c-5.8,13.3-8.3,30-9.3,43.3c2.1-1.8,7.1-5.3,13.4-5.6c8.4-0.4,11,0,11,0s-5.2,5.5-11.3,6.6
	c-4.8,0.9-10.7,0.4-13.1,0.1c-0.8,11.2-0.6,19.8-0.3,21.9H462C461.8,535.5,461.6,528.7,462.2,519.9z"/>
<path class="st1" d="M478.6,479.3c-0.1,0-0.2,0.1-0.3,0.1c0.6,1.7,0.8,4.5,0.4,7.1c0,0.7,0,1.5-0.3,2.1c0.3,0,0.6,0.1,0.8,0.2
	c0.2-1.2,1.1-3,2.2-4.5C480.2,482.8,478.9,481,478.6,479.3z"/>
<path class="st1" d="M473.6,479C473.6,479,473.6,479,473.6,479C473.6,479,473.6,479,473.6,479C473.6,479,473.6,479,473.6,479z"/>
<path class="st1" d="M508.7,516.7c-1.4-0.9-2.9-2.8-4-4.4c-1.3,0.7-2.7,1.2-4.2,1.5c-4.8,1-10.7,0.4-13.1,0.1
	c-0.8,12.2-0.5,21.6-0.3,23.7h21.3C508.2,535.2,508,527.1,508.7,516.7z"/>
<path class="st1" d="M515.9,518.1c-1.2,0-3.8-0.1-6-0.8c-0.7,10.5-0.4,18.5-0.2,20.4h5.6C515.1,535.3,514.9,527.5,515.9,518.1z"/>
<path class="st1" d="M733.7,433.9C733.7,433.9,733.7,433.9,733.7,433.9c-0.6,0-1.1,0.1-1.6,0.1c-1.7,0.1-3.3,0.2-5,0.4
	c-0.1,0-0.2,0-0.3,0c-1,0.1-2.1,0.2-3.1,0.2c-0.8,0.1-1.5,0.1-2.3,0.2c-1.6,0.1-3.1,0.2-4.7,0.4c-0.9,0.1-1.8,0.1-2.7,0.2
	c-1.4,0.1-2.9,0.2-4.4,0.3c-1.1,0.1-2.2,0.2-3.3,0.3c-1,0.1-2,0.2-3,0.2c-4.5,0.4-9,0.7-13.7,1.1c-1.3,0.1-2.5,0.2-3.8,0.3
	c-0.2,0-0.4,0-0.6,0.1c-1.7,0.1-3.3,0.3-5,0.4c-0.8,0.1-1.6,0.1-2.4,0.2c-0.7,0.1-1.3,0.1-2,0.2c-0.7,0.1-1.4,0.1-2,0.2h0
	c-15,1.3-30.7,2.8-46.9,4.4c-0.9,15.1-2.3,63-3.9,94.5h22.5c-3.1-1.8-5.8-5.2-7.9-9.4c0.2,1.7,0.5,3.3,0.8,4.5
	c0.2,0.5,0.3,0.9,0.3,0.8c-0.1-0.2-0.2-0.5-0.3-0.8c-0.5-1.5-1.5-4.6-2-7.1c-0.6-1.5-1.1-3-1.5-4.5c-1.4-0.7-3.2-0.2-3.2-0.2
	c0.9-0.5,2.1-0.4,3-0.3c-1.3-5-1.8-10.3-1.3-15.3l-2.5,2.3c0,0,1.2-1.4,2.6-3.1c0.3-2.7,1-5.3,2-7.7c0,0,0,0,0,0s0.8-5.2,3.1-7.1
	c0,0-1.1,1.9-1.5,4.1c0.4-0.6,0.7-1.1,1.2-1.7c6.9-8.8,16.3-11.6,22.4-12.5c0,0,0,0,0,0c2-0.3,3.7-0.4,4.8-0.4
	c1.2-0.1,2.7-0.2,4.2-0.3c0,0,9.4-1.7,15.7-2.4c0,0-5,1-5.6,1.5c0,0,11.3-1.7,17-1.6c0.6-1.5,1.5-2.9,2.5-3.8c0,0-1,1.7-1.7,3.9
	c0.2,0,0.4,0,0.6,0c0,0,0,0,0,0c0.2-0.2,0.3-0.5,0.5-0.7c12.3-15.7,30.6-17.2,36.6-17.3c1.6-0.1,3.6-0.3,5.7-0.4l0,0
	c0,0,12.6-2.3,21.1-3.2c0,0-6.7,1.4-7.6,2.1c0,0,18.3-2.8,24.9-2.1c1.3,0.1,2.8,0.3,4.2,0.4c-0.3-0.8-0.6-1.6-1-2.4
	c-1.7-4-3.8-7.8-6.1-11.4c-0.8-1.2-1.6-2.4-2.4-3.6c-1.7-2.3-3.4-4.5-5.2-6.7C759.1,432.1,747.1,432.9,733.7,433.9
	C733.8,433.9,733.8,433.9,733.7,433.9z"/>
<path class="st1" d="M516.4,522.4c-0.5,7.6-0.4,13.5-0.3,15.2h7.3c-0.5-5.1-0.8-10.1-1.1-15C519.9,522.8,517.5,522.6,516.4,522.4z"
	/>
<path class="st1" d="M468.3,521.1c-1,0-3.2-0.1-5.1-0.7c-0.6,8.7-0.4,15.4-0.2,17.3h4.7C467.6,535.5,467.5,529,468.3,521.1z"/>
<path class="st1" d="M472.8,486.4c-0.4,0.5-0.8,0.9-1.2,1.4c1.3,0.5,2.6,1.2,3.2,2.2c0.1-0.1,0.1-0.2,0.2-0.2
	C474.3,489.1,473.5,487.8,472.8,486.4z"/>
<path class="st1" d="M486.8,507.3c-1.8,0-5.7-0.2-8.9-1.4c-0.8-0.3-1.6-0.9-2.4-1.7c-1.1,0.2-2.3,0.3-3.4,0.3
	c-1.9,6.5-2.9,13.7-3.3,19.7c1.3-1.1,4.3-3.2,8-3.4c5-0.3,6.6,0,6.6,0s-3.1,3.3-6.8,4c-2.9,0.5-6.4,0.2-7.9,0.1
	c-0.4,6.3-0.3,11.2-0.2,12.8h17.4C485.6,534.6,485.4,522.2,486.8,507.3z"/>
<path class="st2" d="M474.7,468.1c0.5-0.2,1.1-0.3,1.7-0.3c0.2,0,0.4,0,0.6,0c0.6-1.5,0.4-3.4,0-5.3c-0.6-2.8-1.8-5.3-1.8-5.3
	c-0.9,1.6-1.3,3.8-1.3,5.8C474,465.1,474.3,466.9,474.7,468.1z"/>
<path class="st2" d="M468.8,464c0.9,2.3,2.3,4.4,3.5,5.4c0.6-0.5,1.3-1,2-1.3c-0.2-1.6-1.2-3.3-2.4-4.7c-0.8-1-1.8-1.9-2.5-2.6
	c-0.3,0.2-0.8,0.4-1.3,0.6C468.3,462.3,468.5,463.2,468.8,464z"/>
<path class="st2" d="M467.9,459.7C467.9,459.7,467.9,459.7,467.9,459.7c0,0.1,0.1,0.1,0.1,0.1C468,459.7,467.9,459.7,467.9,459.7z"
	/>
<path class="st2" d="M462.5,465.2c1.5,3.2,5.8,6,8.3,6.7c0.3-0.8,0.7-1.5,1.2-2.1C469.8,466.5,462.5,465.2,462.5,465.2z"/>
<path class="st2" d="M490.4,482.3c-1.5-3.2-5.8-6-8.3-6.7c-0.3,0.8-0.7,1.5-1.2,2.1C483.1,481,490.4,482.3,490.4,482.3z"/>
<path class="st2" d="M482.4,474.5c3.8,1.3,10.4-2.3,10.4-2.3c-3.1-1.6-8.2-1.2-10.6-0.2c0.2,0.5,0.3,1.1,0.3,1.7
	C482.4,474,482.4,474.2,482.4,474.5z"/>
<path class="st2" d="M489.8,464c-3.5,0.4-7.7,3.5-9.1,5.6c0.5,0.5,0.9,1.2,1.2,1.9C485.9,470.9,489.8,464,489.8,464z"/>
<path class="st2" d="M480.5,469.4c2-1.7,2.8-5.5,3.2-7.9c0.2-1.2,0.2-2,0.2-2c-0.9,0.6-1.8,1.4-2.6,2.4c-1.6,2-2.7,4.5-3.1,6.2
	C479.1,468.3,479.9,468.8,480.5,469.4z"/>
<path class="st3" d="M473.6,479C473.6,479,473.6,479,473.6,479c0.7,0.4,1.4,0.6,2.2,0.7c0.2,0,0.4,0,0.7,0c0.6,0,1.3-0.1,1.8-0.3
	c0.1,0,0.2-0.1,0.3-0.1c0.8-0.3,1.5-0.8,2.1-1.4c0,0,0.1-0.1,0.1-0.1c0.6-0.6,1-1.3,1.2-2.1c0.1-0.4,0.2-0.7,0.3-1.1
	c0-0.2,0-0.5,0-0.7c0-0.6-0.1-1.2-0.3-1.7c0-0.2-0.1-0.3-0.2-0.5c-0.3-0.7-0.7-1.4-1.2-1.9c-0.1-0.1-0.2-0.2-0.3-0.3
	c-0.6-0.6-1.4-1-2.2-1.3c-0.4-0.1-0.8-0.2-1.2-0.2c-0.2,0-0.4,0-0.6,0c-0.6,0-1.2,0.1-1.7,0.3c-0.1,0-0.3,0.1-0.4,0.1
	c-0.8,0.3-1.4,0.7-2,1.3c-0.1,0.1-0.2,0.2-0.3,0.3c-0.6,0.6-1,1.3-1.2,2.1c0,0.1-0.1,0.2-0.1,0.3c-0.1,0.5-0.2,1-0.2,1.6
	c0,0.4,0,0.7,0.1,1c0.1,0.8,0.4,1.5,0.9,2.2c0.1,0.1,0.1,0.2,0.2,0.3C472.2,478,472.8,478.5,473.6,479z"/>
<path class="st2" d="M451.8,455.4c1.8-4.3-2.1-12.4-2.1-12.4c-2,3.7-1.8,9.9-0.7,12.7c0.6-0.2,1.3-0.3,2-0.3
	C451.3,455.3,451.5,455.3,451.8,455.4z"/>
<path class="st2" d="M441,445.7c-0.1,4.2,2.9,9.6,5.2,11.5c0.7-0.6,1.5-1.1,2.4-1.5C448.1,451.1,441,445.7,441,445.7z"/>
<path class="st2" d="M461.1,478.5c0.1-4.1-2.7-9.3-5-11.3c-0.7,0.7-1.6,1.3-2.5,1.7C454.3,473.4,461.1,478.5,461.1,478.5z"/>
<path class="st2" d="M434.7,452.3c1.8,3.7,6.8,7.1,9.7,7.9c0.3-0.9,0.8-1.8,1.5-2.5C443.2,453.8,434.7,452.3,434.7,452.3z"/>
<path class="st2" d="M470.5,473.8c0-0.5,0.1-1.1,0.2-1.6c-1-0.4-2.3-0.5-3.7-0.5c-1.5-2.5-4.4-4.9-6.9-6.2c-0.9-0.5-1.8-0.8-2.5-1
	c-0.3,0.9-0.8,1.8-1.5,2.5c1.8,2.6,6.5,4.2,9.2,4.9c-2.7,0.4-5,1.3-5,1.3c1.9,1.3,4.7,1.8,7.2,1.8c-3.3,1-6.7,3.7-6.7,3.7
	c3.4,1,8.6-0.3,10.6-1.8c-0.4-0.6-0.7-1.4-0.9-2.2C470.5,474.5,470.5,474.1,470.5,473.8z"/>
<path class="st2" d="M458,463.2c3,1,7.5-0.6,10.1-1.7c0.5-0.2,1-0.4,1.3-0.6c0.5-0.2,0.8-0.4,0.8-0.4c-0.6-0.3-1.4-0.6-2.1-0.8
	c0,0-0.1,0-0.1,0c-3.5-0.8-7.9-0.4-10.2,0.6c0.2,0.6,0.3,1.3,0.3,2C458,462.6,458,462.9,458,463.2z"/>
<path class="st2" d="M466.8,450.8c-4.1,0.4-9,4.1-10.7,6.6c0.6,0.6,1.1,1.4,1.4,2.3C462.2,459,466.8,450.8,466.8,450.8z"/>
<path class="st2" d="M443,472.7c0.7-0.4,1.4-0.9,2-1.4c0.5-0.4,0.9-0.8,1.3-1.1c-2.3,3.7-2.8,10.1-2.8,10.1c2.9-1.8,5.4-5.9,6.4-9
	c-0.1,4.4,2.5,10,2.5,10c2-3.5,1.8-9.4,0.8-12.3c-0.7,0.2-1.4,0.3-2.2,0.3c-0.3,0-0.5,0-0.8,0c-0.9-0.1-1.8-0.4-2.6-0.8c0,0,0,0,0,0
	c0,0,0,0,0,0c-0.9-0.5-1.7-1.2-2.3-2c-1.3,0.5-2.6,1.5-3.8,2.6c-2.6,2.6-4.6,6-4.6,6C439,474.9,441.1,473.9,443,472.7z"/>
<path class="st2" d="M459.8,445.5c-3.4,2.1-6.1,7.1-6.7,10.1c1,0.3,1.9,0.8,2.6,1.5C459.3,454.1,459.8,445.5,459.8,445.5z"/>
<path class="st2" d="M444,462.3c0-0.6,0.1-1.3,0.2-1.8c-4.3-1.8-12.2,1.2-12.2,1.2c2.2,1.5,5.6,2.1,8.4,2.2
	c-3.9,1.2-7.9,4.3-7.9,4.3c4,1.2,10.1-0.4,12.5-2.1c-0.5-0.8-0.8-1.6-1-2.6C444.1,463.2,444,462.7,444,462.3z"/>
<path class="st3" d="M447.7,468.5C447.7,468.5,447.7,468.5,447.7,468.5c0.8,0.4,1.7,0.7,2.6,0.8c0.3,0,0.5,0,0.8,0
	c0.8,0,1.5-0.1,2.2-0.3c0.1,0,0.2-0.1,0.4-0.1c1-0.4,1.8-0.9,2.5-1.7c0.1-0.1,0.1-0.1,0.2-0.2c0.7-0.7,1.2-1.6,1.5-2.5
	c0.1-0.4,0.2-0.9,0.3-1.3c0-0.3,0.1-0.6,0.1-0.9c0-0.7-0.1-1.4-0.3-2c-0.1-0.2-0.1-0.4-0.2-0.6c-0.3-0.8-0.8-1.6-1.4-2.3
	c-0.1-0.1-0.2-0.2-0.3-0.3c-0.7-0.7-1.6-1.2-2.6-1.5c-0.4-0.1-0.9-0.2-1.4-0.3c-0.2,0-0.5,0-0.7,0c-0.7,0-1.4,0.1-2,0.3
	c-0.2,0-0.3,0.1-0.4,0.2c-0.9,0.3-1.7,0.8-2.4,1.5c-0.1,0.1-0.2,0.2-0.4,0.4c-0.7,0.7-1.2,1.6-1.5,2.5c0,0.1-0.1,0.2-0.1,0.3
	c-0.2,0.6-0.2,1.2-0.2,1.8c0,0.4,0,0.8,0.1,1.2c0.2,0.9,0.5,1.8,1,2.6c0.1,0.1,0.1,0.2,0.2,0.3C446,467.3,446.8,468,447.7,468.5z"/>
<path class="st4" d="M435.6,515.8c2.4,0.3,8.3,0.8,13.1-0.1c6.2-1.2,11.3-6.6,11.3-6.6s-2.6-0.4-11,0c-6.2,0.3-11.2,3.8-13.4,5.6
	c1-13.4,3.6-30.1,9.3-43.3c-0.6,0.5-1.3,1-2,1.4c-4.4,11-6.8,23.9-8,35.5c-1-2.5-2.6-7.4-7.6-8.9c-2.6-0.7-4.8-1.3-6.6-1.6
	c0.2,2.6,0.6,5.2,0.6,6.6c1.5,1.8,3.2,3.5,4.7,4c3.1,1.1,7.1,1.3,8.9,1.3c-1.4,13.7-1.1,25.1-0.9,28h1.3
	C435,535.6,434.8,527,435.6,515.8z"/>
<path class="st2" d="M481,495.7c-0.3,0.3-0.6,0.5-0.9,0.7c1.1,0.4,2,1.1,2.7,1.8C482.3,497.1,481.6,496.2,481,495.7z"/>
<path class="st2" d="M474,491.4c0.2-0.6,0.5-1.1,0.9-1.5c-0.7-1-2-1.7-3.2-2.2c0.4-0.4,0.8-0.9,1.2-1.4c0.6,1.4,1.5,2.7,2.3,3.3
	c0.4-0.4,0.9-0.7,1.4-0.9c-0.1-1.5-1.4-3-2.5-4.2c0.6-1.1,1.1-2.2,1.4-3.2c0,1.7,0.4,3.5,0.9,5.1c0.1,0.9,0.2,1.7,0.5,2.3
	c0.4-0.1,0.8-0.2,1.2-0.2c0.1,0,0.3,0,0.4,0c0.2-0.6,0.3-1.3,0.3-2.1c0.4-2.6,0.2-5.4-0.4-7.1c-0.6,0.2-1.2,0.3-1.8,0.3
	c-0.2,0-0.4,0-0.7,0c-0.8-0.1-1.5-0.3-2.2-0.7c0,0,0,0,0,0c0,0,0,0,0,0c-0.8-0.4-1.4-1-2-1.7c-3.7,1.3-7.1,7.4-7.1,7.4
	c1.7-0.2,3.5-1,5.1-2c0.6-0.4,1.2-0.8,1.7-1.2c0.4-0.3,0.7-0.6,1.1-1c-1.3,2-1.9,5-2.1,6.8c-0.4-0.1-0.8-0.2-1.1-0.3
	c-0.6-0.2-1-0.2-1-0.2c0.2,0.4,0.4,0.8,0.7,1.1C470.2,489.6,472.6,491,474,491.4z"/>
<path class="st2" d="M482,494.1c-0.2,0.6-0.5,1.1-0.9,1.5c1.5,2.1,6,3.1,6.6,3.2c0,0,0-0.1,0-0.1C486.6,496.5,483.7,494.5,482,494.1
	z"/>
<path class="st2" d="M469.8,496.5c-0.3-0.6-0.6-1.1-0.9-1.5c-1.1,0.7-2,1.3-2,1.3C467.8,496.5,468.8,496.6,469.8,496.5z"/>
<path class="st2" d="M482,491.5c0.1,0.4,0.2,0.8,0.2,1.2c0,0.2,0,0.3,0,0.5c2,0.7,5.1-0.6,6.5-1.2c0-0.2,0.1-0.4,0.1-0.7
	C486.6,490.6,483.5,490.9,482,491.5z"/>
<path class="st2" d="M469.6,500.4c0.8-0.1,1.5-0.3,2.3-0.7c-0.3-0.5-0.6-0.9-0.9-1.4c-0.6,0.8-1.1,1.5-1.3,1.9
	C469.6,500.3,469.6,500.4,469.6,500.4z"/>
<path class="st2" d="M481,489.8c0.4,0.4,0.7,0.8,0.9,1.3c2.8-0.5,5.5-5.3,5.5-5.3c-0.8,0.1-1.7,0.4-2.5,0.8
	c-0.2,0.1-0.4,0.2-0.6,0.3C482.9,487.8,481.6,488.9,481,489.8z"/>
<path class="st2" d="M481.5,484.3c-1.1,1.4-2,3.2-2.2,4.5c0.6,0.2,1.1,0.5,1.6,0.9c1-0.9,1.6-2.6,2-4c0.6,0.6,1.1,1,1.5,1.4
	c0.2-0.1,0.4-0.2,0.6-0.3c-0.3-3.3-2.5-7.1-4.2-8.8c-0.6,0.6-1.3,1.1-2.1,1.4C478.9,481,480.2,482.8,481.5,484.3z"/>
<path class="st2" d="M473.8,492.7c0-0.4,0.1-0.8,0.2-1.1c-1.8-0.8-4.8-0.1-6.3,0.4c-0.6,0.2-1,0.3-1,0.3c0.2,0.2,0.5,0.3,0.8,0.4
	c1.3,0.6,2.9,0.8,4.3,0.9c-0.3,0.1-0.6,0.2-0.9,0.3c0.9,0.2,2.1,0.4,3.5,0.7c-0.2-0.4-0.3-0.8-0.4-1.2
	C473.8,493.2,473.8,493,473.8,492.7z"/>
<path class="st3" d="M481.1,495.6c0.4-0.4,0.7-0.9,0.9-1.5c0.1-0.3,0.1-0.5,0.2-0.8c0-0.2,0-0.3,0-0.5c0-0.4-0.1-0.8-0.2-1.2
	c0-0.1-0.1-0.2-0.1-0.3c-0.2-0.5-0.5-1-0.9-1.3c-0.1-0.1-0.1-0.1-0.2-0.2c-0.4-0.4-1-0.7-1.6-0.9c-0.3-0.1-0.5-0.1-0.8-0.2
	c-0.1,0-0.3,0-0.4,0c-0.4,0-0.8,0.1-1.2,0.2c-0.1,0-0.2,0.1-0.3,0.1c-0.5,0.2-1,0.5-1.4,0.9c-0.1,0.1-0.1,0.1-0.2,0.2
	c-0.4,0.4-0.7,0.9-0.9,1.5c0,0.1,0,0.1-0.1,0.2c-0.1,0.4-0.2,0.7-0.2,1.1c0,0.3,0,0.5,0.1,0.7c0.1,0.4,0.2,0.9,0.4,1.2
	c1.5,0.3,3.2,0.8,5,1.4c0.3,0.1,0.5,0.2,0.8,0.3C480.4,496.2,480.7,495.9,481.1,495.6C481,495.6,481.1,495.6,481.1,495.6z"/>
<path class="st2" d="M524.9,455.4c0-0.3,0.1-0.5,0.1-0.8c0.3-2.6,0.5-5.1,0.7-7.5c-0.7-2.3-1.6-4.1-1.6-4.1c-2,3.6-1.8,9.7-0.7,12.5
	c0,0.1,0,0.1,0.1,0.2C523.9,455.5,524.4,455.4,524.9,455.4z"/>
<path class="st3" d="M523,455.8c-0.9,0.3-1.7,0.8-2.4,1.5c-0.1,0.1-0.2,0.2-0.4,0.4c-0.7,0.7-1.2,1.6-1.5,2.5c0,0.1-0.1,0.2-0.1,0.3
	c-0.2,0.6-0.2,1.2-0.2,1.8c0,0.4,0,0.8,0.1,1.2c0.2,0.9,0.5,1.8,1,2.6c0.1,0.1,0.1,0.2,0.2,0.3c0.6,0.8,1.4,1.5,2.3,2c0,0,0,0,0,0
	c0.4,0.2,0.8,0.4,1.2,0.5c0.4-4.8,1-9.4,1.5-13.6c-0.5,0-1,0.1-1.4,0.3C523.3,455.7,523.2,455.7,523,455.8z"/>
<path class="st2" d="M503.7,448.6c1.8-4.7-2.1-13.4-2.1-13.4c-2,4-1.8,10.7-0.7,13.7c0.6-0.2,1.3-0.3,2-0.3
	C503.2,448.5,503.4,448.5,503.7,448.6z"/>
<path class="st2" d="M504.3,476.6c2-3.8,1.8-10.2,0.8-13.3c-0.7,0.2-1.4,0.4-2.2,0.4c-0.3,0-0.5,0-0.8,0c0,0.6-0.2,1.4-0.4,2.2
	C501.6,470.6,504.3,476.6,504.3,476.6z"/>
<path class="st2" d="M492.9,438.2c-0.1,4.5,2.9,10.4,5.2,12.5c0.7-0.7,1.5-1.2,2.4-1.6C500,444,492.9,438.2,492.9,438.2z"/>
<path class="st2" d="M486.6,445.2c1.8,4,6.8,7.7,9.7,8.5c0.3-1,0.8-1.9,1.5-2.7C495.1,446.9,486.6,445.2,486.6,445.2z"/>
<path class="st2" d="M497,460.2c-0.5-0.8-0.8-1.8-1-2.8c-1,0.3-2.2,0.4-3.6,0.4c-2.3,0.8-4.5,2.2-6.1,3.3c-1.1,0.8-1.9,1.4-1.9,1.4
	C488.6,463.8,494.6,462,497,460.2z"/>
<path class="st2" d="M498.1,464.6c0.4-0.7,0.9-1.3,1.4-1.8c0,0,0,0,0,0c-0.9-0.5-1.7-1.3-2.3-2.2c-4.3,1.6-8.4,9.4-8.4,9.4
	c2-0.2,4.1-1.3,6-2.6c0.7-0.5,1.4-1,2-1.5C497.3,465.4,497.8,465,498.1,464.6z"/>
<path class="st2" d="M509.7,453.3c0.1,0.2,0.2,0.3,0.3,0.5c-0.1,0-0.2,0.1-0.4,0.2c0.2,0.7,0.3,1.4,0.3,2.2c0,0.3,0,0.6-0.1,0.9
	c0.3,0.1,0.6,0.2,0.9,0.2c0.8,0.1,1.8,0.1,2.7,0c1.9,1.4,3.9,2.5,5.3,2.9c0.3-0.9,0.8-1.8,1.5-2.5c-0.4-0.6-0.9-1.1-1.5-1.5
	c-0.1-0.1-0.2-0.2-0.3-0.2c0.2-0.1,0.4-0.2,0.6-0.3c0.1,0.1,0.2,0.3,0.3,0.4c0.4,0.5,0.8,0.9,1.2,1.3c0.7-0.6,1.5-1.1,2.4-1.5
	c0-0.1,0-0.2,0-0.3c-0.5-3.3-4.2-6.9-6.2-8.7c1.2-1.7,1.9-3.1,1.9-3.1c-4.1,0.5-9,4.5-10.7,7.2c0.6,0.7,1.1,1.5,1.4,2.4
	C509.5,453.3,509.6,453.3,509.7,453.3z M515.7,448.3c0.3,1.6,1,3.2,1.7,4.6c-1.7-0.2-3.5-0.1-5,0.2c-0.5-0.2-1-0.3-1.4-0.4
	C512.8,451.8,514.4,450,515.7,448.3z"/>
<path class="st2" d="M498.1,464.6c-2.3,4-2.8,10.9-2.8,10.9c2.9-2,5.4-6.4,6.4-9.7c0.2-0.8,0.4-1.6,0.4-2.2
	c-0.9-0.1-1.8-0.4-2.6-0.9c0,0,0,0,0,0C499,463.2,498.6,463.9,498.1,464.6z"/>
<path class="st2" d="M511.7,437.9c-3.4,2.2-6.1,7.7-6.7,11c1,0.3,1.9,0.9,2.6,1.7C511.2,447.2,511.7,437.9,511.7,437.9z"/>
<path class="st2" d="M496,457.4c-0.1-0.4-0.1-0.9-0.1-1.3c0-0.7,0.1-1.4,0.2-2c-4.3-1.9-12.2,1.3-12.2,1.3c2.2,1.6,5.6,2.3,8.4,2.3
	C493.8,457.8,495.1,457.7,496,457.4z"/>
<path class="st3" d="M496,457.4c0.2,1,0.5,1.9,1,2.8c0.1,0.1,0.1,0.2,0.2,0.4c0.6,0.9,1.4,1.7,2.3,2.2c0,0,0,0,0,0
	c0.8,0.5,1.7,0.8,2.6,0.9c0.3,0,0.5,0,0.8,0c0.8,0,1.5-0.1,2.2-0.4c0.1,0,0.2-0.1,0.4-0.1c1-0.4,1.8-1,2.5-1.8
	c0-0.1,0.1-0.1,0.1-0.2c0,0,0,0,0,0c0.7-0.8,1.2-1.7,1.5-2.7c0.1-0.3,0.2-0.7,0.2-1.1c0-0.1,0-0.3,0.1-0.4c0-0.3,0.1-0.6,0.1-0.9
	c0-0.8-0.1-1.5-0.3-2.2c-0.1-0.2-0.1-0.4-0.2-0.6c-0.3-0.9-0.8-1.7-1.4-2.4c-0.1-0.1-0.2-0.2-0.3-0.3c-0.7-0.7-1.6-1.3-2.6-1.7
	c-0.4-0.2-0.9-0.3-1.4-0.3c-0.2,0-0.5,0-0.7,0c-0.7,0-1.4,0.1-2,0.3c-0.2,0-0.3,0.1-0.4,0.2c-0.9,0.4-1.7,0.9-2.4,1.6
	c-0.1,0.1-0.2,0.3-0.4,0.4c-0.7,0.8-1.2,1.7-1.5,2.7c0,0.1-0.1,0.2-0.1,0.4c-0.2,0.6-0.2,1.3-0.2,2C495.9,456.6,496,457,496,457.4z"
	/>
<path class="st2" d="M522.1,468.5C522.1,468.5,522.1,468.5,522.1,468.5c-0.9-0.5-1.7-1.2-2.3-2.1c-0.2,0.1-0.4,0.2-0.6,0.3
	c0-0.1-0.1-0.2-0.1-0.2c0.2-0.1,0.4-0.2,0.5-0.3c-0.5-0.8-0.8-1.6-1-2.6c-0.1-0.4-0.1-0.8-0.1-1.2c0-0.6,0.1-1.3,0.2-1.8
	c-1.6-0.7-3.8-0.7-5.8-0.4c-1.2-0.8-2.4-1.4-3.4-1.6c-0.3,1-0.8,1.9-1.5,2.7c0,0,0,0,0,0c0,0,0,0,0,0c0,0.1-0.1,0.1-0.1,0.2
	c-0.7,0.8-1.6,1.4-2.5,1.8c0.2,1.6,1.1,3.2,2.1,4.7c-0.3,0.2-0.5,0.4-0.5,0.4c0.3,0.1,0.6,0.2,0.9,0.2c1.7,2.3,3.8,4.1,4.6,4.9
	c-0.7,1.1-1.1,1.8-1.1,1.8c2-0.2,4.1-1.2,6-2.4c0.7-0.4,1.4-0.9,2-1.4c0.5-0.4,0.9-0.8,1.3-1.1c-1.5,2.4-2.2,5.8-2.5,8
	c-0.5-0.1-0.9-0.3-1.2-0.3c-0.7-0.2-1.2-0.3-1.2-0.3c0.2,0.5,0.5,0.9,0.8,1.3c1.5,2,4,3.6,5.7,4.1c0.1-1,0.1-1.9,0.2-2.9
	c-0.8-0.6-1.7-1.1-2.7-1.4c0.5-0.5,1-1,1.4-1.6c0.4,0.9,0.8,1.7,1.3,2.3c0.1-1.4,0.2-2.8,0.3-4.2c-0.1-0.1-0.1-0.1-0.2-0.2
	c0.1-0.2,0.2-0.3,0.3-0.5c0-0.3,0-0.5,0.1-0.8c0.1-1.7,0.3-3.3,0.4-4.9C522.9,468.9,522.5,468.7,522.1,468.5
	C522.1,468.5,522.1,468.5,522.1,468.5z M510.9,465.7c-0.5-1-1-1.9-1.6-2.7c0.3,0.1,0.5,0.2,0.8,0.2c0.8,0.6,1.7,1.1,2.6,1.5
	C512.1,465.1,511.5,465.4,510.9,465.7z M512.9,472.8c-0.1-1.4-0.4-2.8-0.9-4.2c2.4-0.2,4.7-0.9,6.4-1.7c0.1,0,0.3,0.1,0.4,0.1
	C516.5,468.1,514.3,470.8,512.9,472.8z"/>
<path class="st2" d="M517.5,493.5c-0.1,0.2-0.1,0.2-0.1,0.2c1.4-0.1,2.9-0.8,4.3-1.7c0.1-0.1,0.2-0.1,0.3-0.2c0-1.2,0.1-2.4,0.1-3.6
	C519.9,489.6,518,492.6,517.5,493.5z"/>
<path class="st2" d="M515.1,483.8c-0.7,0.2-1.2,0.4-1.2,0.4c0.3,0.2,0.6,0.4,0.9,0.5c1.5,0.7,3.4,1,5,1c-2.8,0.9-5.6,3-5.6,3
	c2.4,0.7,5.8,0.1,7.8-0.9c0-0.8,0.1-1.6,0.1-2.3c0-0.8,0.1-1.5,0.1-2.3C520.1,482.5,516.8,483.3,515.1,483.8z"/>
<path class="st1" d="M519.4,498.5c-3.1,0-5.9-0.2-7.4-0.4c-0.5,2.8-0.9,5.7-1.2,8.4c0.7,0.1,1,0.1,1,0.1s-0.4,0.5-1.2,1.2
	c-0.1,1-0.2,1.9-0.3,2.9c0.1,0,0.1,0,0.2,0c3.6,1,4.7,4.5,5.4,6.3C516.6,511.1,517.7,504.6,519.4,498.5z"/>
<path class="st1" d="M465,504.2c-0.6,3.7-1,7.3-1.4,10.7c0,0,0.1,0,0.1,0c3,0.9,4,3.8,4.6,5.3c0.5-5.1,1.4-10.6,2.9-15.8
	C468.7,504.5,466.3,504.3,465,504.2z"/>
<path class="st4" d="M516.4,522.4c1.2,0.1,3.5,0.3,6,0.2c-0.1-1.4-0.1-2.9-0.2-4.3c-2.6,0.9-4.6,2.3-5.7,3.2
	c0.5-7.1,1.7-15.4,3.9-23.1c0.5,0,1,0,1.5-0.1c0-1.6,0-3.1,0.1-4.6c0-0.7,0-1.3,0.1-2c-0.1,0.1-0.2,0.1-0.3,0.2
	c-1.3,0.9-2.9,1.5-4.3,1.7c0,0,0.1-0.1,0.1-0.2c-2.3,1.1-4.1,2.4-5.2,3.3c0.7-4,1.5-8.1,2.6-12c-0.3-0.2-0.6-0.3-0.9-0.5
	c0,0,0.5-0.2,1.2-0.4c0.5-1.7,0.9-3.3,1.5-4.9c-0.3-0.4-0.6-0.9-0.8-1.3c0,0,0.5,0.1,1.2,0.3c0.8-2.3,1.6-4.4,2.5-6.5
	c-0.6,0.5-1.3,1-2,1.4c-2.4,5.9-4.2,12.4-5.5,19c-1-1.6-2.1-8.4-8.2-10.1c-6.5-1.9-11.1-2.3-11.1-2.3s5.6,9.8,9.8,11.3
	c3.6,1.3,8.4,1.3,9.5,1.3c-1,4.9-1.7,9.8-2.3,14.5c-1.7-0.1-4.5-0.1-8.8,0.2c-6.2,0.3-11.2,4.1-13.4,6.1c1-14.5,3.6-32.5,9.3-46.9
	c-0.6,0.5-1.3,1.1-2,1.5c-2.8,7.5-4.7,15.8-6.1,24c0,0.2-0.1,0.4-0.1,0.7c-0.4,2.2-0.7,4.4-1,6.6c0,0,0,0.1,0,0.1
	c-0.3,2.4-0.6,4.7-0.8,6.9c-0.5-1.5-1.3-3.9-2.7-5.9c1-0.8,1.5-1.4,1.5-1.4s-0.8-0.1-2.8-0.2c0,0-0.1-0.1-0.1-0.1
	c-0.8-0.7-1.7-1.3-2.7-1.8c-0.3-0.1-0.5-0.2-0.8-0.3c-1.8-0.6-3.5-1-5-1.4c-1.4-0.3-2.5-0.5-3.5-0.7c-1.7-0.3-2.6-0.4-2.6-0.4
	s0.3,0.5,0.7,1.3c0.2,0.4,0.5,0.9,0.9,1.5c0.3,0.6,0.7,1.2,1.2,1.9c0.3,0.5,0.6,0.9,0.9,1.4c-0.8,0.4-1.6,0.6-2.3,0.7
	c0,0,0-0.1,0.1-0.2c-1.9,0.9-3.5,2-4.5,2.8c0.6-3.4,1.3-6.9,2.2-10.2c-0.3-0.1-0.6-0.3-0.8-0.4c0,0,0.4-0.1,1-0.3
	c0.4-1.4,0.8-2.8,1.3-4.2c-0.3-0.4-0.5-0.7-0.7-1.1c0,0,0.4,0.1,1,0.2c0.6-1.9,1.4-3.8,2.1-5.6c-0.5,0.4-1.1,0.8-1.7,1.2
	c-2,5-3.5,10.6-4.7,16.1c-0.8-1.4-1.8-7.1-7-8.6c-5.5-1.6-9.5-1.9-9.5-1.9s4.8,8.3,8.3,9.6c3.1,1.1,7.1,1.1,8.1,1.1
	c-1.1,5.3-1.8,10.7-2.3,15.7c-3.3-0.9-5.5-1-5.5-1s2.8,4.8,5.1,6.4c-0.6,8.7-0.4,15.6-0.3,17.7h1.1c-0.2-1.8-0.3-8.5,0.2-17.3
	c1.8,0.6,4.1,0.7,5.1,0.7c-0.8,7.9-0.7,14.4-0.6,16.5h0.7c-0.1-1.6-0.2-6.6,0.2-12.8c1.4,0.2,5,0.5,7.9-0.1c3.7-0.7,6.8-4,6.8-4
	s-1.6-0.3-6.6,0c-3.7,0.2-6.7,2.3-8,3.4c0.5-6,1.4-13.1,3.3-19.7c1.1,0,2.3-0.1,3.4-0.3c0.8,0.8,1.6,1.4,2.4,1.7
	c3.1,1.2,7.1,1.4,8.9,1.4c-1.4,14.9-1.1,27.3-0.9,30.4h1.3c-0.2-2.1-0.5-11.5,0.3-23.7c2.4,0.3,8.3,0.8,13.1-0.1
	c1.5-0.3,2.9-0.9,4.2-1.5c1.2,1.6,2.6,3.5,4,4.4c-0.7,10.4-0.5,18.6-0.3,21h1.3c-0.2-1.9-0.4-10,0.2-20.4c2.2,0.7,4.8,0.8,6,0.8
	c-0.9,9.4-0.8,17.2-0.7,19.6h0.9C516,535.9,515.8,530,516.4,522.4z M468.4,520.2c-0.6-1.5-1.5-4.5-4.6-5.3c0,0-0.1,0-0.1,0
	c0.3-3.4,0.8-7,1.4-10.7c1.3,0.1,3.7,0.4,6.3,0.3C469.8,509.7,468.9,515.2,468.4,520.2z M510.6,510.8c-0.1,0-0.1,0-0.2,0
	c0.1-0.9,0.2-1.9,0.3-2.9c0.7-0.7,1.2-1.2,1.2-1.2s-0.3-0.1-1-0.1c0.3-2.7,0.7-5.6,1.2-8.4c1.5,0.2,4.3,0.4,7.4,0.4
	c-1.7,6.1-2.8,12.6-3.4,18.6C515.3,515.2,514.2,511.8,510.6,510.8z"/>
<path class="st4" d="M522.1,517.5c0-1.2-0.1-2.4-0.1-3.5c-1.6-0.3-2.5-0.4-2.5-0.4S520.6,515.7,522.1,517.5z"/>
<path class="st2" d="M91.6,418.3H31.9c0.9,8.1,2,16.1,3.3,23.9c1,5.9,2.1,11.7,3.3,17.4c0.2,0.9,0.4,1.8,0.5,2.6c0.6,3,1.3,6,2,8.8
	c1.1,5,2.3,9.7,3.5,14.3c2.4,9.3,4.9,17.8,7.2,25.1c0.6,1.8,1.1,3.5,1.6,5.1c1.1,3.5,2.2,6.6,3.2,9.4c0.1,0.3,0.2,0.7,0.4,1
	c1.3,3.7,2.4,6.8,3.3,9.1c0,0,0,0,0.1,0.1c0,0.1,0,0.1,0,0.1c0.2,0.4,0.3,0.8,0.5,1.1c0.2,0.5,0.3,0.9,0.5,1.3h30.4V418.3z"/>
<polygon class="st3" points="67.3,350.4 68,350.4 71.7,350.4 67.3,350.4 "/>
<polygon class="st5" points="63.6,350.4 63.6,350.4 68,350.4 67.3,350.4 "/>
<path class="st5" d="M107.6,481.3l37.4-48.4l3.8,0l-0.1-0.2l2,0l0,0l36.4,0.1v-18.1h2.8l-2.8-3.7l-44.8-58l0,0l-44.7,59.6l-4.2,5.6
	h-1.8v119.3h22.3v-56.4H107.6z M127.6,394.4c0-6.6,5.3-11.9,11.9-11.9h2c6.8,0,12.3,5.5,12.3,12.3V426h-26.2V394.4z"/>
<path class="st2" d="M153.8,394.8c0-6.8-5.5-12.3-12.3-12.3h-2c-6.6,0-11.9,5.3-11.9,11.9V426h26.2V394.8z"/>
<path class="st3" d="M144.1,350.6L144.1,350.6l0.2-0.3l-28.7,0l-43.6,0h-0.3H68h-4.4h-4l-29.4,38.1l0,0c0.1,5.7,0.3,11.5,0.7,17.1
	c0,0.1,0,0.2,0,0.3c0,0.1,0,0.2,0,0.3c0.3,4,0.6,8.1,1.1,12h59.6h1.8l4.2-5.6l44.7-59.6l0,0l44.8,58l2.8,3.7h3.8L144.1,350.6z"/>
<polygon class="st3" points="150.7,432.7 203.1,432.9 205,432.9 187.1,432.8 150.7,432.7 "/>
<path class="st5" d="M238.6,478.6L238.6,478.6l-34.2-44.3l-33.3,44.3h0v0v59.1h20v-48.9c0-4,1.7-7.6,4.4-10.2
	c2.5-2.4,5.9-3.8,9.6-3.8c3.8,0,7.2,1.4,9.8,3.8c2.9,2.6,4.7,6.4,4.7,10.6v48.4h19V484V478.6z M205.4,461.5c-1.8,0-3.2-1.4-3.2-3.2
	c0-1.8,1.4-3.2,3.2-3.2c1.8,0,3.2,1.4,3.2,3.2C208.5,460.1,207.1,461.5,205.4,461.5z"/>
<polygon class="st5" points="203.1,432.9 150.7,432.7 148.7,432.7 148.8,432.9 187.1,432.9 "/>
<polygon class="st2" points="171.1,478.6 171.1,478.6 169.1,481.3 119.3,481.3 113.9,481.3 113.9,537.7 171.1,537.7 171.1,478.6 "/>
<path class="st2" d="M214.9,478.6c-2.6-2.4-6-3.8-9.8-3.8c-3.7,0-7.1,1.4-9.6,3.8c-2.7,2.5-4.4,6.2-4.4,10.2v48.9h28.4v-48.4
	C219.6,485,217.8,481.2,214.9,478.6z"/>
<path class="st2" d="M205.4,455.2c-1.8,0-3.2,1.4-3.2,3.2c0,1.8,1.4,3.2,3.2,3.2c1.8,0,3.2-1.4,3.2-3.2
	C208.5,456.6,207.1,455.2,205.4,455.2z"/>
<polygon class="st3" points="205.4,432.9 205.4,432.9 205,432.9 203.1,432.9 187.1,432.9 148.8,432.9 145,432.9 107.6,481.3 
	113.9,481.3 119.3,481.3 169.1,481.3 171.1,478.6 204.4,434.2 238.6,478.6 240.6,478.6 "/>
<path class="st6" d="M656.6,240.7c-19-2.1-27,16.7-27,16.7l87.8,1.2c1.2-6.5,1.9-12.7,2.2-18.8c0.1-1.4,0.1-2.8,0.1-4.2
	c-3.9,0.5-6.2,1-6.2,1C684.2,209.4,656.6,240.7,656.6,240.7z"/>
<path class="st6" d="M505.9,168.1c-12-6.6-28.2-3.1-28.2-3.1c-15.2-14.3-29.5,2.2-29.5,2.2c-9.8-1.1-14,8.8-14,8.8l82.3,1.1
	C516.6,177.1,513.9,172.5,505.9,168.1z"/>
<path class="st6" d="M118.1,310.5c-10.5-1.2-14.9,9.4-14.9,9.4l87.9,1.2c0,0-2.8-4.9-11.4-9.7c-12.8-7.1-30.1-3.3-30.1-3.3
	C133.4,292.8,118.1,310.5,118.1,310.5z"/>
<path class="st6" d="M138.9,281c-9.8-5.4-23.1-2.5-23.1-2.5c-12.5-11.7-24.1,1.8-24.1,1.8c-8-0.9-11.4,7.2-11.4,7.2l67.3,0.9
	C147.6,288.4,145.4,284.6,138.9,281z"/>
<path class="st5" d="M698.1,524.5c0.3,2.2,0.6,4.5,1.1,6c0.2,0.7,0.4,1.2,0.4,1.1c-0.1-0.3-0.3-0.7-0.4-1.1c-0.7-2-2-6.2-2.6-9.6
	c-0.8-2-1.5-4-2-6.1c-1.9-1-4.3-0.3-4.3-0.3c1.2-0.7,2.9-0.6,4.1-0.3c-1.7-6.7-2.4-13.9-1.7-20.6l-3.3,3.1c0,0,1.6-1.8,3.4-4.1
	c0.2-1.7,0.5-3.3,0.9-4.9c0.5-1.9,1-3.7,1.8-5.4l0,0c0,0,0.5-2.9,1.6-5.7c-5.8-0.1-17,1.6-17,1.6c0.6-0.5,5.6-1.5,5.6-1.5
	c-6.4,0.6-15.7,2.4-15.7,2.4c-1.6,0.1-3,0.2-4.2,0.3c1,0,1.5,0,1.5,0c15.9,0.5,24,19.7,20.1,38.7c-2.2,10.9-9.1,16.3-17.2,18.9
	c0,0,0,0,0,0l-1.4,0.8h41C705,535.3,701.1,530.6,698.1,524.5z"/>
<path class="st5" d="M698.5,476.6C698.5,476.6,698.5,476.6,698.5,476.6c-0.2,0-0.4,0-0.7-0.1c-0.1,0.5-0.3,1-0.4,1.6
	C697.8,477.6,698.2,477.1,698.5,476.6z"/>
<path class="st2" d="M638.5,532.8c0.1,0.3,0.2,0.6,0.3,0.8C638.8,533.6,638.7,533.3,638.5,532.8z"/>
<path class="st2" d="M687.3,518c3.9-19-4.3-38.3-20.1-38.7c0,0-0.6,0-1.5,0c-1.1,0-2.8,0.1-4.8,0.4c0,0,0,0,0,0
	c-6.1,0.9-15.5,3.7-22.4,12.5c-0.4,0.5-0.8,1.1-1.2,1.7c0.4-2.2,1.5-4.1,1.5-4.1c-2.3,1.9-3.1,7.1-3.1,7.1s0,0,0,0
	c-1,2.4-1.6,5-2,7.7c-1.4,1.7-2.6,3.1-2.6,3.1l2.5-2.3c-0.5,5,0,10.4,1.3,15.3c-0.9-0.2-2.2-0.3-3,0.3c0,0,1.7-0.5,3.2,0.2
	c0.4,1.6,0.9,3.1,1.5,4.5c0.5,2.5,1.5,5.7,2,7.1c-0.3-1.2-0.6-2.8-0.8-4.5c2.1,4.2,4.7,7.6,7.9,9.4h6.6c-1.7-0.5-3.5-1.2-5.1-2.2
	c-4.5-2.7-7.4-7.2-8.7-13.2c-2.2-10.2-1.1-18.6,3.2-24.9c4.1-5.9,10.9-9.7,19.8-11.1c6-0.9,11.2,1,15.1,5.6
	c5.5,6.6,7.1,17.9,3.9,27.3c-2.3,6.7-8.5,10.8-16.5,11c-0.2,0-0.5,0-0.7,0c-8.1,0-15.3-4.1-17.8-10.2c-2.5-6.2-2.4-12.2,0.4-17
	c2.8-4.9,8.2-8,15-8.9c6.2-0.8,9.6,2.1,11.3,4.7c3.3,5,3.3,13,1.1,16.9c-2.1,3.7-8.1,6.6-13.2,6.5c-3.7-0.1-6.5-1.9-8-4.8
	c-1.8-3.8-1.7-7.8,0.3-10.9c1.7-2.5,4.3-4,6.8-3.9c2.8,0.2,4.1,2.5,4.2,4.5c0.2,1.8-0.4,3.7-1.9,4c-2.7,0.6-3.6-0.8-3.7-0.9
	c0,0-1.4-2.4,0.4-2.7c2.1-0.4,1.5,1.2,1.5,1.2c0,0-0.5,2.2,1.6,1.7c0.9-0.2,1.5-1.6,1.3-3.3c-0.2-1.8-1.2-3.7-3.5-3.9
	c-2.2-0.1-4.6,1.3-6.2,3.5c-1.9,2.9-2,6.6-0.3,10.2c1.7,3.5,4.9,4.3,7.3,4.4c4.9,0.2,10.5-2.6,12.5-6.1c1.9-3.3,2.4-11-1.1-16.1
	c-2.3-3.4-6-4.9-10.6-4.3c-6.6,0.9-11.8,3.9-14.5,8.6c-2.7,4.6-2.8,10.4-0.3,16.4c2.5,6,9.8,9.9,17.8,9.7
	c7.7-0.2,13.6-4.2,15.8-10.5c3.2-9.2,1.6-20.1-3.7-26.6c-2.6-3.1-7.1-6.5-14.4-5.4c-8.7,1.3-15.4,5.1-19.3,10.8
	c-4.2,6.1-5.3,14.3-3.1,24.3c1.3,5.8,4.1,10.1,8.4,12.7c2.7,1.6,5.8,2.5,8.9,2.8h9c2.7-0.3,4.5-0.7,4.7-0.7
	C678.2,534.3,685.1,528.9,687.3,518z"/>
<path class="st5" d="M670.1,536.9c-0.2,0.1-2.1,0.5-4.7,0.7h3.4L670.1,536.9C670.1,536.9,670.1,536.9,670.1,536.9z"/>
<path class="st5" d="M639.1,522.1c-2.2-10-1.1-18.2,3.1-24.3c3.9-5.7,10.6-9.5,19.3-10.8c7.3-1.1,11.8,2.3,14.4,5.4
	c5.4,6.5,6.9,17.4,3.7,26.6c-2.2,6.4-8.1,10.3-15.8,10.5c-8,0.2-15.4-3.8-17.8-9.7c-2.5-6-2.3-11.8,0.3-16.4
	c2.7-4.7,7.9-7.7,14.5-8.6c4.6-0.6,8.3,0.9,10.6,4.3c3.4,5.1,2.9,12.8,1.1,16.1c-2,3.5-7.6,6.3-12.5,6.1c-2.4-0.1-5.7-0.9-7.3-4.4
	c-1.7-3.6-1.6-7.3,0.3-10.2c1.5-2.3,3.9-3.7,6.2-3.5c2.4,0.1,3.4,2.1,3.5,3.9c0.1,1.6-0.4,3.1-1.3,3.3c-2.1,0.5-1.6-1.7-1.6-1.7
	c0,0,0.5-1.6-1.5-1.2c-1.8,0.3-0.4,2.7-0.4,2.7c0,0.1,1,1.5,3.7,0.9c1.4-0.3,2-2.3,1.9-4c-0.2-2-1.4-4.4-4.2-4.5
	c-2.5-0.1-5.2,1.4-6.8,3.9c-2.1,3.1-2.2,7-0.3,10.9c1.4,3,4.3,4.7,8,4.8c5.1,0.2,11.1-2.7,13.2-6.5c2.2-3.9,2.2-11.9-1.1-16.9
	c-1.7-2.6-5.1-5.5-11.3-4.7c-6.9,0.9-12.2,4-15,8.9c-2.8,4.8-2.9,10.8-0.4,17c2.5,6.1,9.8,10.2,17.8,10.2c0.2,0,0.5,0,0.7,0
	c8-0.2,14.2-4.3,16.5-11c3.3-9.4,1.7-20.7-3.9-27.3c-3.8-4.6-9-6.5-15.1-5.6c-8.9,1.4-15.8,5.2-19.8,11.1
	c-4.3,6.3-5.4,14.7-3.2,24.9c1.3,6,4.2,10.4,8.7,13.2c1.6,1,3.4,1.7,5.1,2.2h4.1c-3.1-0.4-6.2-1.2-8.9-2.8
	C643.2,532.2,640.4,527.9,639.1,522.1z"/>
<path class="st5" d="M754.9,457.1c0.8-0.7,7.6-2.1,7.6-2.1c-8.6,0.9-21.1,3.2-21.1,3.2l0,0c-2.1,0.1-4,0.3-5.7,0.4c1.3,0,2,0,2,0
	c21.3,0.6,32.3,26.5,27.1,52.1c-3,14.6-12.2,21.9-23.2,25.4c0,0,0,0,0,0l-2.1,1.1c0,0-0.7,0.2-1.9,0.4h75.5
	c7.5-3.5,11.6-16.5,13.6-31.4c1.1-8.2-0.1-17.8-3.2-26.2c0-9.3-14.1-19.1-14.1-19.1c2.4-0.2,8.7,2.9,8.7,2.9
	c-1.7-1.5-9.4-3.9-9.4-3.9c-2.5-1.6-10.3-2.6-10.8-2.7c-0.4-0.1,8-1.2,8-1.2l-10.2,0.7c0,0-5.8-0.7-11.6-1.4
	c-1.4-0.2-2.9-0.3-4.2-0.4C773.2,454.3,754.9,457.1,754.9,457.1z"/>
<path class="st2" d="M699.2,530.6c0.1,0.4,0.2,0.8,0.4,1.1C699.5,531.7,699.4,531.3,699.2,530.6z"/>
<path class="st2" d="M699,516.5c-3-13.7-1.5-25,4.3-33.5c5.5-7.9,14.7-13.1,26.7-14.9c8.1-1.2,15.1,1.4,20.2,7.6
	c7.5,8.9,9.6,24,5.2,36.7c-3.1,9-11.4,14.5-22.1,14.8c-0.3,0-0.6,0-0.9,0c-10.8,0-20.6-5.5-24-13.7c-3.4-8.3-3.2-16.4,0.5-22.9
	c3.8-6.5,11-10.8,20.2-12c8.4-1.1,12.9,2.8,15.2,6.3c4.5,6.7,4.4,17.5,1.5,22.7c-2.9,5-10.8,8.9-17.8,8.7c-5-0.2-8.8-2.5-10.7-6.5
	c-2.5-5.2-2.3-10.5,0.4-14.6c2.2-3.3,5.8-5.4,9.2-5.2c3.8,0.2,5.5,3.4,5.7,6.1c0.2,2.4-0.6,5-2.5,5.4c-3.6,0.8-4.9-1.1-4.9-1.2
	c0,0-1.9-3.2,0.5-3.7c2.8-0.5,2,1.6,2,1.6c0,0.1-0.7,3,2.2,2.3c1.2-0.3,2-2.2,1.8-4.4c-0.2-2.4-1.6-5-4.8-5.2
	c-3-0.2-6.2,1.7-8.3,4.7c-2.6,3.8-2.7,8.8-0.4,13.7c2.3,4.7,6.6,5.8,9.9,5.9c6.6,0.2,14.2-3.4,16.9-8.2c2.5-4.4,3.2-14.8-1.4-21.7
	c-3.1-4.6-8-6.6-14.2-5.8c-8.9,1.1-15.8,5.2-19.5,11.5c-3.6,6.2-3.7,14-0.4,22c3.3,8,13.2,13.4,24,13.1c10.3-0.3,18.3-5.6,21.2-14.1
	c4.3-12.4,2.2-27.1-5-35.8c-3.4-4.1-9.6-8.7-19.3-7.2c-11.7,1.8-20.7,6.8-26,14.5c-5.7,8.2-7.1,19.2-4.2,32.7
	c1.7,7.8,5.5,13.5,11.3,17.1c11.5,7.1,29.6,3,30.4,2.8c11-3.5,20.2-10.8,23.2-25.4c5.2-25.6-5.7-51.4-27.1-52.1c0,0-0.7-0.1-2,0
	c-6.1,0.1-24.3,1.6-36.6,17.3c-0.2,0.2-0.4,0.5-0.5,0.7c-0.4,0.5-0.7,1-1,1.5c0.1-0.5,0.2-1.1,0.4-1.6c0.6-2.2,1.7-3.9,1.7-3.9
	c-1.1,0.9-1.9,2.3-2.5,3.8c-1.2,2.8-1.6,5.7-1.6,5.7l0,0c-0.7,1.7-1.3,3.5-1.8,5.4c-0.4,1.6-0.7,3.2-0.9,4.9
	c-1.9,2.3-3.4,4.1-3.4,4.1l3.3-3.1c-0.7,6.7,0,13.9,1.7,20.6c-1.2-0.2-2.9-0.3-4.1,0.3c0,0,2.3-0.7,4.3,0.3c0.6,2.1,1.3,4.2,2,6.1
	c0.6,3.4,2,7.6,2.6,9.6c-0.4-1.6-0.8-3.8-1.1-6c3,6,6.9,10.8,11.6,13.2h10.1c-3.1-0.7-6.2-1.7-9-3.5
	C704.7,530.5,700.8,524.5,699,516.5z"/>
<path class="st5" d="M741.7,536.1C741.7,536.1,741.6,536.1,741.7,536.1c-0.8,0.2-18.9,4.3-30.4-2.8c-5.8-3.6-9.6-9.3-11.3-17.1
	c-2.9-13.4-1.5-24.4,4.2-32.7c5.3-7.7,14.3-12.7,26-14.5c9.8-1.5,15.9,3.1,19.3,7.2c7.2,8.7,9.3,23.4,5,35.8
	c-3,8.6-10.9,13.8-21.2,14.1c-10.8,0.3-20.7-5.1-24-13.1c-3.3-8-3.1-15.8,0.4-22c3.6-6.3,10.6-10.4,19.5-11.5
	c6.2-0.8,11.1,1.2,14.2,5.8c4.6,6.9,3.9,17.3,1.4,21.7c-2.7,4.7-10.3,8.4-16.9,8.2c-3.3-0.1-7.6-1.2-9.9-5.9
	c-2.3-4.8-2.2-9.8,0.4-13.7c2-3,5.3-4.9,8.3-4.7c3.2,0.2,4.6,2.8,4.8,5.2c0.2,2.2-0.6,4.1-1.8,4.4c-2.9,0.7-2.1-2.2-2.2-2.3
	c0,0,0.7-2.1-2-1.6c-2.4,0.5-0.5,3.7-0.5,3.7c0.1,0.1,1.3,2,4.9,1.2c1.9-0.5,2.7-3.1,2.5-5.4c-0.2-2.7-1.9-5.9-5.7-6.1
	c-3.3-0.2-6.9,1.9-9.2,5.2c-2.8,4.1-2.9,9.5-0.4,14.6c1.9,4,5.7,6.3,10.7,6.5c6.9,0.2,14.9-3.6,17.8-8.7c3-5.2,3-16-1.5-22.7
	c-2.3-3.5-6.8-7.3-15.2-6.3c-9.2,1.2-16.4,5.4-20.2,12c-3.7,6.4-3.9,14.6-0.5,22.9c3.4,8.1,13.1,13.7,24,13.7c0.3,0,0.6,0,0.9,0
	c10.8-0.3,19-5.8,22.1-14.8c4.4-12.7,2.2-27.8-5.2-36.7c-5.2-6.2-12.2-8.8-20.2-7.6c-12,1.8-21.2,7-26.7,14.9
	c-5.8,8.5-7.3,19.7-4.3,33.5c1.7,8.1,5.7,14,11.7,17.7c2.8,1.7,5.9,2.8,9,3.5h17.9c1.2-0.2,1.9-0.4,1.9-0.4L741.7,536.1z"/>
<path class="st7" d="M261.6,436.8C261.6,436.8,261.5,436.8,261.6,436.8C261.6,436.8,261.6,436.8,261.6,436.8
	C261.6,436.8,261.6,436.8,261.6,436.8z"/>
<path class="st7" d="M423.5,480.7c0.3-0.3,0.6-0.7,0.8-1.2C424.1,480,423.8,480.4,423.5,480.7z"/>
<path class="st7" d="M418.6,477.1c-0.3-0.1-0.5-0.2-0.8-0.3C418.1,476.9,418.4,477,418.6,477.1z"/>
<path class="st7" d="M422.9,481.1L422.9,481.1C423,481.1,423,481.1,422.9,481.1C422.9,481.1,422.9,481.1,422.9,481.1z"/>
<path class="st3" d="M354.2,452c-9.6-2.7-14.9,1.5-26.9-3.4c-12-4.8-24.6-8.8-25.9-3.6c-1.3,5.3,1.1,20,0,26.7
	c-1.1,6.7,21.7,9.1,31.1,5c9.3-4.1,34.8,0.7,31.5-7.9C363.7,468.1,363.8,454.7,354.2,452z"/>
<path class="st7" d="M370.9,532.1c-3.3-2.6-4.4-12.9-4.5-16c-0.1-3.1,1.9-5.4,2.1-7.3c0.1-0.9,1.2-8.6,2.2-16.2
	c2.1-0.6,3.8-2.9,5.2-5.7c4.3,0.2,7.7,0.6,10.6,1.2c1.3-8.1,6.5-18.6,1-27.3c-0.6-1.1-1.2-2.1-1.6-3.2c-0.3-1-0.6-1.9-0.8-2.9
	c-0.5-2.4-0.5-4.8-0.2-7.1c0.3-2.6,1.1-5,1.8-6.9c-4.7-3.7-9.9-7.1-15.5-9.7c-4.8-1.5-10.6,1.2-12.9,1.1c-2.8-0.1-5.5-0.6-8-1
	c0,0,0,0,0,0c-0.2,1.3-1.1,5.4-4.7,7.6c-1.6,1-3.7,1.6-6.4,1.5c-10.3-0.4-13.3-5.9-25.7-3.6c-3.4,0.6-6.4,0.9-9.2,0.9
	c-5.5,0-9.5-1.2-12-3.3c0,0,0,0,0,0c-4.3,0.1-8.2,0.1-11.4-0.1c-0.2,0-0.5,0-0.7,0c-0.2,0-0.4,0-0.6,0c0.2,0,0.4,0,0.6,0
	c1.7,1.7,3.2,3.9,3.5,6.5c0.1,0.7,0.1,1.5,0,2.3c-1.1,9,13.7,10.6,12.1,21.6c-0.2,1.4-0.8,2.7-1.7,3.9c-4.1,5.3-14.6,7.5-23.3,4.7
	c-2.1-0.7-4.1-1.7-5.8-3c0-0.6,0-1.3,0-2c0-0.7,0.1-1.4,0.1-2.1c0,0-2-3.7-3.8-8.6l-1.3,22.7c0.6,1.6,1.3,3.2,2.1,5
	c0.2,0.5,0.4,1.1,0.6,1.7c2.8,9.5-0.6,28.8-0.6,28.8s10,13.8,9.9,17.3c-0.1,2.7,1.6,4.2,2.4,4.7h7.4c-0.9-1.9-7.4-15.4-8.6-19.6
	c-0.2-0.8,0.1-3.5,0.7-7.2c0.2,2.9,0.3,4.8,0.3,4.8s10,13.8,9.9,17.3c-0.1,2.7,1.6,4.2,2.4,4.7h7.4c-0.9-1.9-7.4-15.4-8.6-19.6
	c-0.6-2.1,1.6-12.8,4.2-23.6c5.2-0.3,9.3-1.7,9.7-2c1.3-0.9,3.6-0.8,3.6-0.8c16.4,6.5,39.4,0.5,44.1-1.4c0.3-0.1,0.7-0.2,1-0.3
	c1.2,7.3,1.3,16.8,2.1,18.7c1.2,2.8,1.1,10.9,1.2,15.3c0.1,4.4,2.8,6.6,2.6,8.7c-0.2,1.8,0.8,4.2,1.2,4.9h9
	c-0.2-0.8-0.8-3.4-3.6-5.5c-3.3-2.6-4.4-12.9-4.5-16c-0.1-3.1,1.9-5.4,2.1-7.3c0.1-0.7,0.7-5.5,1.5-11.2c0.4,5.1,0.7,9.8,1.2,11
	c1.2,2.8,1.1,10.9,1.2,15.3c0.1,4.4,2.8,6.6,2.6,8.7c-0.2,1.8,0.8,4.2,1.2,4.9h9C374.3,536.9,373.6,534.3,370.9,532.1z M332.5,476.8
	c-9.3,4.1-32.1,1.8-31.1-5c1.1-6.7-1.3-21.5,0-26.7c1.3-5.3,13.9-1.3,25.9,3.6c12,4.8,17.3,0.6,26.9,3.4c9.6,2.7,9.5,16.1,9.8,16.8
	C367.3,477.5,341.9,472.6,332.5,476.8z"/>
<path class="st7" d="M347.4,430.6c0.8,0.1,1.7,0.3,2.6,0.4C349.1,430.9,348.2,430.7,347.4,430.6c-2.9-0.5-14.6,0.7-28,1.9
	C332.8,431.4,344.5,430.2,347.4,430.6z"/>
<path class="st7" d="M264.5,434.9c1-0.3,2.3-0.6,4.1-0.7C266.8,434.3,265.5,434.6,264.5,434.9z"/>
<path class="st3" d="M313.4,436.6c12.4-2.3,15.4,3.2,25.7,3.6c2.8,0.1,4.9-0.5,6.4-1.5c3.6-2.3,4.5-6.3,4.7-7.6c0,0,0,0,0,0
	c-0.1,0-0.2,0-0.2,0c-0.9-0.2-1.8-0.3-2.6-0.4c-2.9-0.4-14.6,0.7-28,1.9c-9,0.8-18.8,1.5-27.1,1.8c0,0,0,0,0,0
	c2.5,2.1,6.6,3.3,12,3.3C307,437.6,310.1,437.3,313.4,436.6z"/>
<path class="st3" d="M385,454.7c0.2,1,0.5,1.9,0.8,2.9c0.4,1.1,1,2.1,1.6,3.2c5.5,8.8,0.3,19.3-1,27.3c8.8,1.8,11.2,5.1,12,6.7
	c1.6,3.1,8.9,10.2,10.1,10.5c1.3,0.2,2.1,1.9,3.5,4.7c1.3,2.7,3.9,3,6.1,3.1c2.2,0.1,4-2.5,4-3.2c0-0.7-1.1-2.7-0.9-5.4
	c0,0,0-0.1,0-0.1c0-1.4-0.3-4.1-0.6-6.6c-0.2-2.6-0.3-5.2,0.4-6.3c0.9-1.4,0.4-4.4-0.1-6.5c1.6,0,3.7-0.4,4.6-2.4
	c0,0-0.4-1.1-2.5-1.4H423h-0.1c0,0,0,0,0,0c0.2-0.1,0.4-0.3,0.5-0.4c0.3-0.3,0.6-0.7,0.8-1.2c0,0,0,0,0,0c0,0-0.4-1-2.5-1.3
	c-1.1-0.1-2.1-0.7-3.1-1c0,0,0,0,0,0c0,0,0,0,0,0c-0.3-0.1-0.5-0.2-0.8-0.3c-0.2,0-0.3-0.1-0.5-0.1c-0.4-0.7-0.8-1.5-1.3-2.3
	c-2.6-4.3-6-9.5-10.4-14.9c-5.2-6.4-11.5-13-19-18.9c-0.8,1.9-1.5,4.3-1.8,6.9C384.5,449.9,384.5,452.3,385,454.7z"/>
<path class="st3" d="M259,508c0,0,0-1.4,0-2.9c0-1.1,0.7-3.5-0.3-4.1l0.8-14.4l0.4-6.4l1.3-22.7c1.8,4.9,3.8,8.6,3.8,8.6
	c0,0.7-0.1,1.4-0.1,2.1c0,0.7,0,1.3,0,2c1.8,1.3,3.7,2.3,5.8,3c8.7,2.9,19.1,0.6,23.3-4.7c0.9-1.2,1.5-2.5,1.7-3.9
	c1.6-11-13.1-12.5-12.1-21.6c0.1-0.8,0.1-1.6,0-2.3c-0.3-2.6-1.8-4.8-3.5-6.5c-0.2,0-0.4,0-0.6,0c-4.8-0.3-8.3-0.2-10.9,0.1
	c-1.8,0.2-3.1,0.4-4.1,0.7c-0.6,0.2-1.1,0.4-1.4,0.5c0,0,0,0,0,0c-0.1,0-0.2,0.1-0.3,0.1c0,0,0,0,0,0c-0.1,0-0.1,0.1-0.2,0.1
	c0,0,0,0-0.1,0c-0.1,0-0.1,0.1-0.1,0.1c0,0-0.1,0-0.1,0.1c0,0-0.1,0-0.1,0.1c0,0-0.1,0.1-0.1,0.1c0,0,0,0,0,0c0,0-0.1,0.1-0.1,0.1
	c0,0,0,0,0,0c0,0,0,0.1-0.1,0.1c0,0,0,0,0,0.1c0,0,0,0,0,0.1c0,0,0,0.1,0,0.1c0,0,0,0,0,0c-0.1,0.1-0.1,0.2-0.1,0.3c0,0,0,0,0,0
	s0,0-0.1,0.1c-0.7,0.6-6.2,5.8-7.2,14.7c-0.6,5.5,0.1,21.8,0.8,34.5c0.4,7.4,0.8,13.6,1,15.8C255.2,503.8,259,508,259,508z"/>
<path class="st5" d="M605.9,225.9c-0.1,0-0.1,0-0.2,0C605.7,225.9,605.8,225.9,605.9,225.9C605.8,225.9,605.8,225.9,605.9,225.9z"/>
<path class="st5" d="M606.5,225.9c0,0-0.1,0-0.1,0C606.4,225.9,606.5,225.9,606.5,225.9C606.5,225.9,606.5,225.9,606.5,225.9z"/>
<path class="st5" d="M605.2,225.8c-0.1,0-0.2,0-0.3-0.1C605,225.7,605.1,225.7,605.2,225.8C605.1,225.7,605.2,225.7,605.2,225.8z"/>
<path class="st5" d="M604.8,225.7c-0.1,0-0.2-0.1-0.3-0.1C604.7,225.6,604.7,225.6,604.8,225.7C604.8,225.6,604.8,225.6,604.8,225.7
	z"/>
<path class="st5" d="M604.4,225.5C604.4,225.5,604.4,225.5,604.4,225.5c0,0-0.1,0-0.2-0.1c0,0,0,0,0,0
	C604.3,225.4,604.3,225.4,604.4,225.5z"/>
<path class="st5" d="M563.5,178.7c-4.4-0.3-7.6,0.6-9,2.9c-1.2,2-0.9,4.7,0.5,7.8c0,0,0,0,0,0c0.6-2.6,1.8-5,3.7-7
	c1.7-1.8,3.1-2.8,4.5-3.4C563.3,178.9,563.4,178.8,563.5,178.7z"/>
<path class="st5" d="M554.7,190.9C554.7,190.9,554.7,190.9,554.7,190.9c0-0.2,0.1-0.5,0.2-0.8c-0.1,0.2-0.1,0.5-0.1,0.7
	C554.7,190.8,554.7,190.9,554.7,190.9z"/>
<path class="st5" d="M606.9,225.9C606.9,225.9,606.8,225.9,606.9,225.9C606.8,225.9,606.8,225.9,606.9,225.9
	C606.8,225.9,606.9,225.9,606.9,225.9z"/>
<path class="st5" d="M554.5,192.1c0,0,0,0.1,0,0.1c0,0,0,0,0,0c0,0,0,0,0,0c0-0.2,0.1-0.5,0.1-0.7c0,0,0,0.1,0,0.1
	C554.6,191.8,554.6,191.9,554.5,192.1z"/>
<path class="st5" d="M608,225.7C608,225.7,608,225.7,608,225.7C608,225.7,608,225.7,608,225.7C608,225.7,608,225.7,608,225.7z"/>
<path class="st5" d="M609.3,225.3C609.3,225.3,609.2,225.3,609.3,225.3C609.2,225.3,609.2,225.3,609.3,225.3
	C609.3,225.3,609.3,225.3,609.3,225.3z"/>
<path class="st5" d="M608.3,225.6C608.3,225.6,608.3,225.6,608.3,225.6C608.3,225.6,608.3,225.6,608.3,225.6
	C608.3,225.6,608.3,225.6,608.3,225.6z"/>
<path class="st5" d="M604.1,225.3C604.1,225.3,604.2,225.4,604.1,225.3c0,0-0.1-0.1-0.2-0.1c0,0,0,0-0.1,0c0,0,0,0,0.1,0
	C604,225.2,604,225.3,604.1,225.3z"/>
<path class="st5" d="M601.9,224.6C601.9,224.6,601.9,224.6,601.9,224.6L601.9,224.6C601.9,224.6,601.9,224.6,601.9,224.6z"/>
<path class="st5" d="M614.9,222.7c0.1,0,0.2-0.1,0.3-0.2c0,0,0,0,0,0c0.7-0.4,1.3-0.9,1.8-1.5c0,0,0,0,0,0c0.1-0.1,0.1-0.2,0.2-0.3
	c0.7-1.1,0.9-2.4,0.7-3.9c-1.6,2.8-3.5,5.1-5.5,6.7C613.3,223.3,614.2,223,614.9,222.7C614.9,222.7,614.9,222.7,614.9,222.7z"/>
<path class="st8" d="M529.9,398.4c0,0,0,0,0,0.1l0,0.1L529.9,398.4L529.9,398.4z"/>
<path class="st8" d="M534.4,402.7c-0.1-0.2-0.2-0.3-0.1-0.4c0,0,0,0,0,0l-4.5-2c-0.3,4.5-1.3,17.4-4.1,46.7
	c-0.2,2.4-0.5,4.9-0.7,7.5c0,0.3-0.1,0.5-0.1,0.8c-0.6,4.2-1.1,8.8-1.5,13.6c-0.1,1.6-0.3,3.2-0.4,4.9c0,0.2,0,0.5-0.1,0.8
	c0,0.2,0,0.5-0.1,0.7c-0.1,1.4-0.2,2.8-0.3,4.2c0,0.2,0,0.5,0,0.7c-0.1,0.9-0.1,1.9-0.2,2.9c0,0.1,0,0.2,0,0.2
	c0,0.8-0.1,1.5-0.1,2.3c0,0.8-0.1,1.6-0.1,2.3c0,0.1,0,0.2,0,0.3c0,1.2-0.1,2.4-0.1,3.6c0,0.7,0,1.3-0.1,2c0,1.5-0.1,3.1-0.1,4.6
	c-0.1,5,0,10.2,0.1,15.6c0,1.2,0.1,2.3,0.1,3.5c0,0.3,0,0.6,0,0.9c0.1,1.4,0.1,2.8,0.2,4.3c0.3,4.9,0.6,9.9,1.1,15h46.1
	c-5.5-25-10.1-53-13.3-75.8C555.5,461.9,549.5,420.8,534.4,402.7z"/>
<path class="st3" d="M563.8,178.7c-0.1,0-0.2,0-0.4,0c0,0,0,0,0,0c0,0,0,0,0,0c-0.1,0.1-0.2,0.2-0.3,0.3
	C563.4,178.9,563.6,178.8,563.8,178.7C563.8,178.7,563.8,178.7,563.8,178.7L563.8,178.7z"/>
<path class="st3" d="M569.1,179.6L569.1,179.6c0.3,0.2,0.5,0.4,0.7,0.6c0.2-0.1,0.4-0.2,0.6-0.3c0,0,0,0,0,0
	C570,179.8,569.5,179.7,569.1,179.6z"/>
<path class="st2" d="M569.7,235.6c0,1.2-0.1,2.6-0.1,4C569.7,238.2,569.7,236.9,569.7,235.6C569.7,235.6,569.7,235.6,569.7,235.6z"
	/>
<path class="st9" d="M561.1,271.1c4.5,11.3,16.5,9.2,23.5,2.8c6.1-5.5,12.5-12.3,18.1-17c0,0,0,0,0,0c0,0,0,0,0,0
	c-0.9-0.2-1.6-0.7-2.1-1.4c-2.5-3.8-5.1-12.8-4.8-25.5c0-1.4,0.1-2.9,0.2-4.5l0,0c1.3-2.1,2.2-4.5,2.4-7.5c0.2-2.3,0.4-4.6,0.6-6.7
	c-2.5-0.3-5.4-0.9-8.8-2c-4.1-1.3-7.6-4.5-10.5-8.3c4.9,9.6,12,16.7,12,16.7c-15.8-8.5-20.9-31.6-21.4-34c-2.1,1.6-6.2,5.3-7.7,9
	c-1.9,5-3.3,15.6-6.4,15c0.5,12.1,3,27.2,8.5,28c0,0,2,0.2,5,0.1c0,0,0,0,0,0c0,1.2-0.1,2.6-0.1,4c-0.1,1.4-0.1,2.9-0.2,4.4
	c0,0,0,0,0,0c-0.2,3.1-0.5,6.1-0.9,8.4c-0.4,2.2-2.2,3.8-4.4,4.1l0,0c0,0,0,0,0,0c0,0,0,0,0,0C563.6,257.2,559.3,266.5,561.1,271.1z
	 M566.5,226.8c-3.4-0.3-5.2-4.4-5.2-4.4s6.6-1,13.5,1.9C574.8,224.3,569.9,227.2,566.5,226.8z"/>
<path class="st3" d="M562.7,192.5c1.4-3.7,5.6-7.3,7.7-9c0.5,2.4,5.6,25.5,21.4,34c0,0-7.1-7.1-12-16.7c2.9,3.8,6.5,7,10.5,8.3
	c3.4,1.1,6.3,1.7,8.8,2c-0.2,2.2-0.4,4.4-0.6,6.7c-0.2,3-1.1,5.5-2.4,7.5l0,0c-0.1,1.5-0.2,3-0.2,4.5l0,0c0,0,0.9-1.7,2.2-3.2
	c0,0,0,0,0,0h0c0,0,0.1-0.1,0.1-0.1c0,0,0,0,0.1-0.1c0,0,0,0,0.1-0.1c0,0,0,0,0,0c0,0,0.1-0.1,0.1-0.1c0,0,0.1-0.1,0.1-0.1
	c0,0,0,0,0.1-0.1c0,0,0,0,0.1-0.1c0,0,0.1,0,0.1-0.1c0.1-0.1,0.1-0.1,0.2-0.2c0,0,0,0,0,0c0,0,0.1-0.1,0.1-0.1c0,0,0.1,0,0.1-0.1
	c0,0,0,0,0,0c0,0,0,0,0,0c0.1-0.1,0.2-0.1,0.3-0.2c0,0,0,0,0,0c0,0,0,0,0,0c0,0,0.1-0.1,0.1-0.1c0,0,0.1-0.1,0.1-0.1c0,0,0,0,0,0
	c0,0,0.1,0,0.1-0.1c0,0,0,0,0,0c0,0,0.1-0.1,0.1-0.1l0.1-0.1l0,0c0,0,0,0,0,0c0,0,0.1,0,0.1-0.1c0,0,0.1,0,0.1-0.1c0,0,0,0,0,0
	c0,0,0,0,0,0c0,0,0,0,0.1,0c0,0,0,0,0,0c0.1,0,0.1-0.1,0.2-0.1c0,0,0,0,0,0c0,0,0.1,0,0.1,0c0,0,0,0,0,0c0.1,0,0.1,0,0.2-0.1
	c0,0,0.1,0,0.1,0c0,0,0.1,0,0.1,0c0,0,0,0,0.1,0c0,0,0.1,0,0.1,0c0,0,0.1,0,0.1,0c0,0,0,0,0,0c0,0,0,0,0.1,0c0,0,0,0,0.1,0
	c0,0,0.1,0,0.1,0c0,0,0.1,0,0.1,0c0,0,0.1,0,0.1,0h0c0,0,0,0,0,0c0,0,0,0,0,0h0h0c0,0,0,0,0,0c0.1,0,0.2,0,0.3,0c0,0,0.1,0,0.1,0
	c0.1,0,0.2,0,0.2,0c0.1,0,0.1,0,0.2,0c0,0,0.1,0,0.1,0c0,0,0.1,0,0.1,0c0,0,0.1,0,0.1,0c0,0,0,0,0,0c0,0,0,0,0.1,0
	c0.1,0,0.1,0,0.2,0.1c0,0,0,0,0,0c0,0,0.1,0,0.1,0.1c0.1,0,0.2,0.1,0.3,0.2c0,0,0,0,0.1,0c0.1,0.1,0.2,0.1,0.3,0.2c0,0,0,0,0,0
	c0.1,0,0.2,0.1,0.2,0.1c0,0,0.1,0,0.1,0c0,0,0,0,0,0c0.1,0,0.2,0.1,0.3,0.1c0,0,0,0,0.1,0c0.1,0,0.2,0.1,0.3,0.1c0,0,0.1,0,0.1,0
	c0.1,0,0.1,0,0.2,0c0.1,0,0.1,0,0.2,0c0.1,0,0.1,0,0.2,0c0.1,0,0.1,0,0.2,0c0,0,0.1,0,0.1,0c0.1,0,0.2,0,0.2,0c0,0,0.1,0,0.1,0
	c0,0,0,0,0,0h0c0,0,0,0,0.1,0h0c0,0,0.1,0,0.1,0c0,0,0.1,0,0.1,0c0.1,0,0.1,0,0.2,0c0.1,0,0.1,0,0.2,0c0.1,0,0.1,0,0.2,0
	c0.1,0,0.2,0,0.3-0.1c0.1,0,0.1,0,0.2,0c0,0,0,0,0.1,0c0,0,0,0,0.1,0c0.1,0,0.2,0,0.2-0.1c0,0,0,0,0,0c0,0,0,0,0,0
	c0.1,0,0.2-0.1,0.3-0.1c0.1,0,0.2-0.1,0.3-0.1c0.1,0,0.1-0.1,0.2-0.1c0,0,0.1,0,0.1,0c0,0,0.1,0,0.1,0c0,0,0,0,0,0c0,0,0,0,0,0
	c0,0,0.1,0,0.1-0.1c0,0,0.1,0,0.1-0.1c0.1-0.1,0.2-0.1,0.4-0.2c0.1,0,0.2-0.1,0.3-0.1c0.1-0.1,0.2-0.1,0.3-0.2
	c0.2-0.1,0.4-0.2,0.6-0.4c0.1-0.1,0.2-0.2,0.4-0.2c0,0,0,0,0.1,0c0.1-0.1,0.1-0.1,0.2-0.2c0.1-0.1,0.1-0.1,0.2-0.2
	c0.1-0.1,0.2-0.1,0.3-0.2c0,0,0,0,0,0s0,0,0,0c0,0,0,0,0,0c2-1.6,3.9-3.8,5.5-6.7c0,0,0,0,0,0c-0.8-5.7-7.4-13.9-17.5-21.5
	c0,0,0,0,0,0c-0.2-0.2-0.4-0.3-0.6-0.5h0c-2.2-1.6-4.5-3.2-7-4.8c-5.9-3.7-11.8-6.6-17.2-8.5h0c-1.8-0.6-3.5-1.2-5.2-1.6
	c-0.2,0.1-0.4,0.2-0.6,0.3c-0.2-0.2-0.5-0.4-0.7-0.6h0c-1.9-0.4-3.6-0.7-5.2-0.8c-0.2,0.1-0.4,0.2-0.7,0.3c-1.3,0.6-2.8,1.7-4.5,3.4
	c-1.9,2-3,4.5-3.7,7c0,0,0,0,0,0c0,0.1-0.1,0.3-0.1,0.4c0,0.1,0,0.1,0,0.2c-0.1,0.3-0.1,0.6-0.2,0.9c0,0.2-0.1,0.4-0.1,0.6
	c0,0.2-0.1,0.5-0.1,0.7c0,0.1,0,0.2,0,0.3c0,0.2,0,0.4,0,0.5c0,0.1,0,0.1,0,0.2c0,0.2,0,0.3,0,0.5c0,0,0,0,0,0c0,0.2,0,0.5,0,0.7
	c0,0.1,0,0.1,0,0.2c0,0.4,0,0.7,0,1.1c0,0.1,0,0.2,0,0.3v0.1c0,0.2,0,0.4,0,0.6c0,0,0,0,0,0c0,0.2,0,0.4,0,0.6c0,0.1,0,0.3,0,0.4
	c0,0.1,0,0.2,0,0.2c0,0,0,0.1,0,0.1c0,0.1,0,0.3,0,0.4c0,0.1,0,0.2,0,0.3c0,0,0,0,0,0.1c0,0.1,0,0.2,0,0.3l0,0c0,0,0,0,0,0
	c0.5,4.7,1.7,8.3,1.7,8.3c0,0,0,0,0,0C559.3,208.1,560.7,197.6,562.7,192.5z"/>
<path class="st5" d="M575.4,168.8L575.4,168.8c7.1,2.9,14.8,6.8,22.4,11.6c9.5,5.9,17.8,12.4,24.3,18.7l0,0c0.7,0.7,1.3,1.3,2,2
	c3.2-8.5,8.8-28.7-7.6-38c-19.4-10.9-33.9-7.8-45.2,4c0,0,0,0,0,0C572.6,167.7,574,168.2,575.4,168.8z"/>
<path class="st10" d="M615.9,343.5c2-10,4.8-19.3,7.3-27.1C620.6,324.6,618.1,332.6,615.9,343.5z"/>
<path class="st10" d="M611.7,258.7c0.9,0.3,1.9,0.5,1.9,0.5C613,259,612.4,258.8,611.7,258.7z"/>
<path class="st10" d="M549.1,288.9c9.7,0.5,28.3,1.5,34.8,1.9c0,0,0,0,0.1,0c2.7-7.4,9.1-20.1,24.1-33c-2.8-0.6-5.2-1-5.3-1
	c0,0,0,0,0,0c-5.6,4.6-12.1,11.5-18.1,17c-7,6.4-19,8.6-23.5-2.8c-1.8-4.5,2.5-13.9,2.9-14.6c0,0,0,0,0,0c0,0,0,0,0,0
	c-0.5,0-0.9,0.1-1.3,0.1c-0.3,0-0.6,0-0.9,0.1c0.3,0,0.6,0,0.9-0.1C559.8,260,551.2,271.6,549.1,288.9z"/>
<path class="st10" d="M537.1,311.8c0.8-6.7,1.6-13,1.6-15.2c0.1-5.4,4.4-8,4.4-8s0.4,0,1,0.1c1.8-8.5,5.5-20.5,12.7-31.5
	c0,0,0.1,0,0.1,0c0,0-0.1,0-0.1,0c-8.7,0.9-20.8,6.7-45.2,37.5c0,0,0.2,0.3,0.6,0.8C514.9,298.5,525.8,310.3,537.1,311.8z"/>
<path class="st2" d="M554.5,199.2c0-0.1,0-0.2,0-0.3c0,0,0,0,0,0c0,0,0,0,0,0c0-0.1,0-0.2,0-0.3c0-0.1,0-0.3,0-0.4c0,0,0-0.1,0-0.1
	c0-0.1,0-0.1,0-0.2c0,0,0-0.1,0-0.1c0-0.1,0-0.3,0-0.4c0-0.2,0-0.4,0-0.6c0,0,0,0,0,0c0,0,0,0,0-0.1c0-0.1,0-0.3,0-0.5v-0.1v-0.1
	c0-0.1,0-0.2,0-0.3c0-0.4,0-0.7,0-1.1c0-0.1,0-0.1,0-0.2c0-0.1,0-0.1,0-0.2c0-0.1,0-0.1,0-0.2c0-0.1,0-0.2,0-0.3c0,0,0,0,0,0
	c0-0.2,0-0.3,0-0.5c0,0,0-0.1,0-0.1c0,0,0,0,0-0.1c0-0.2,0-0.4,0-0.5c0,0,0,0,0-0.1c0,0,0,0,0,0c0-0.1,0-0.2,0-0.2c0,0,0,0,0,0
	c0-0.1,0-0.1,0-0.1c0-0.2,0-0.3,0.1-0.5c0,0,0-0.1,0-0.1c0-0.2,0.1-0.4,0.1-0.6c0,0,0,0,0,0c0,0,0-0.1,0-0.1c0-0.2,0.1-0.5,0.1-0.7
	c0-0.1,0-0.1,0-0.2c0-0.1,0.1-0.3,0.1-0.4c0,0,0,0,0,0c0,0,0,0,0,0c-1.5-3.1-1.8-5.9-0.5-7.8c1.4-2.3,4.6-3.2,9-2.9c0,0,0,0,0,0
	c0,0,0,0,0,0c0.1,0,0.2,0,0.4,0h0c0,0,0,0,0,0c1.6,0.1,3.4,0.4,5.2,0.8h0h0c0.4,0.1,0.9,0.2,1.3,0.3c0,0,0,0,0,0
	c1.6,0.4,3.4,1,5.2,1.6h0c5.4,1.9,11.2,4.8,17.2,8.5c2.5,1.5,4.8,3.1,7,4.8h0c0.2,0.2,0.4,0.3,0.6,0.5c0,0,0,0,0,0
	c10.1,7.6,16.7,15.8,17.5,21.5c0,0,0,0,0,0c0.2,1.5,0,2.8-0.7,3.9c-0.1,0.1-0.1,0.2-0.2,0.3c0,0,0,0,0,0c-0.4,0.6-1,1.1-1.8,1.5
	c0,0,0,0,0,0c-0.1,0.1-0.2,0.1-0.3,0.2c0,0,0,0,0,0c-0.7,0.4-1.6,0.6-2.6,0.8c0,0,0,0,0,0c0,0,0,0,0,0s0,0,0,0
	c-0.1,0.1-0.2,0.1-0.3,0.2c-0.1,0.1-0.1,0.1-0.2,0.2c-0.1,0.1-0.1,0.1-0.2,0.2c0,0,0,0-0.1,0c-0.1,0.1-0.2,0.2-0.4,0.2
	c-0.2,0.1-0.4,0.2-0.6,0.4c-0.1,0.1-0.2,0.1-0.3,0.2c-0.1,0.1-0.2,0.1-0.3,0.1c-0.1,0.1-0.2,0.1-0.4,0.2c0,0-0.1,0-0.1,0.1
	c0,0-0.1,0-0.1,0.1c0,0,0,0,0,0c0,0,0,0,0,0c0,0-0.1,0-0.1,0c0,0,0,0-0.1,0c0,0,0,0,0,0c-0.1,0-0.1,0.1-0.2,0.1
	c-0.1,0-0.2,0.1-0.3,0.1c-0.1,0-0.2,0.1-0.3,0.1c0,0,0,0,0,0c0,0,0,0,0,0c0,0,0,0,0,0c-0.1,0-0.2,0-0.2,0.1c0,0,0,0-0.1,0
	c0,0,0,0,0,0c0,0,0,0,0,0c-0.1,0-0.1,0-0.2,0c-0.1,0-0.2,0-0.3,0.1c-0.1,0-0.1,0-0.2,0c-0.1,0-0.1,0-0.2,0c-0.1,0-0.1,0-0.2,0
	c0,0,0,0,0,0c0,0,0,0,0,0c0,0-0.1,0-0.1,0h0c0,0,0,0-0.1,0h0c0,0,0,0,0,0c0,0,0,0,0,0c0,0,0,0-0.1,0c-0.1,0-0.2,0-0.2,0
	c0,0-0.1,0-0.1,0c-0.1,0-0.1,0-0.2,0c0,0,0,0-0.1,0c0,0-0.1,0-0.1,0c-0.1,0-0.1,0-0.2,0c-0.1,0-0.1,0-0.2,0c0,0-0.1,0-0.1,0
	c0,0,0,0-0.1,0c-0.1,0-0.1,0-0.2-0.1c0,0,0,0-0.1,0c0,0,0,0,0,0c-0.1,0-0.1-0.1-0.2-0.1c0,0,0,0,0,0c0,0-0.1,0-0.1,0c0,0,0,0-0.1,0
	c0,0-0.1,0-0.1-0.1c0,0,0,0,0,0c0,0,0,0,0,0c0,0,0,0,0,0c-0.1,0-0.2-0.1-0.2-0.1c0,0,0,0-0.1,0c-0.1-0.1-0.2-0.1-0.3-0.2
	c0,0-0.1,0-0.1-0.1c0,0,0,0,0,0c-0.1,0-0.1,0-0.2-0.1c0,0,0,0-0.1,0c0,0,0,0,0,0c0,0-0.1,0-0.1,0c0,0-0.1,0-0.1,0c0,0-0.1,0-0.1,0
	c-0.1,0-0.1,0-0.2,0c-0.1,0-0.2,0-0.2,0c0,0-0.1,0-0.1,0c-0.1,0-0.2,0-0.3,0c0,0,0,0,0,0h0h0c0,0,0,0,0,0c0,0,0,0,0,0h0h0
	c0,0-0.1,0-0.1,0c0,0-0.1,0-0.1,0c0,0-0.1,0-0.1,0c0,0,0,0-0.1,0c0,0,0,0-0.1,0c0,0,0,0,0,0c0,0-0.1,0-0.1,0c0,0-0.1,0-0.1,0
	c0,0,0,0-0.1,0c0,0-0.1,0-0.1,0c0,0-0.1,0-0.1,0c-0.1,0-0.1,0-0.2,0.1c0,0,0,0,0,0c0,0-0.1,0-0.1,0c0,0,0,0,0,0
	c-0.1,0-0.1,0-0.2,0.1c0,0,0,0,0,0c0,0,0,0-0.1,0c0,0,0,0,0,0c0,0,0,0,0,0c0,0-0.1,0-0.1,0.1c0,0-0.1,0-0.1,0.1c0,0,0,0,0,0l0,0
	l-0.1,0.1c-0.1,0-0.1,0.1-0.1,0.1c0,0,0,0,0,0c0,0-0.1,0-0.1,0.1c0,0,0,0,0,0c0,0-0.1,0.1-0.1,0.1c0,0-0.1,0-0.1,0.1c0,0,0,0,0,0
	c0,0,0,0,0,0c-0.1,0.1-0.2,0.1-0.3,0.2c0,0,0,0,0,0c0,0,0,0,0,0c0,0-0.1,0-0.1,0.1c0,0-0.1,0.1-0.1,0.1c0,0,0,0,0,0
	c-0.1,0-0.1,0.1-0.2,0.2c0,0-0.1,0-0.1,0.1c0,0,0,0-0.1,0.1c0,0-0.1,0-0.1,0.1c0,0-0.1,0.1-0.1,0.1c0,0-0.1,0.1-0.1,0.1c0,0,0,0,0,0
	c0,0,0,0-0.1,0.1c0,0,0,0-0.1,0.1c0,0-0.1,0.1-0.1,0.1h0c0,0,0,0,0,0c1.6,0.7,3.1,1.3,4.7,1.8c4.9,1.8,9.5,3.1,13.7,3.8
	c9.7,1.7,16.9,0.6,19.7-3.8c3.7-5.9-1.4-16.4-12.1-27.5c0,0,0,0,0,0c-0.6-0.6-1.3-1.3-2-2l0,0c-6.5-6.3-14.8-12.8-24.3-18.7
	c-7.6-4.8-15.3-8.7-22.4-11.6h0c-1.4-0.6-2.8-1.1-4.2-1.6c0,0,0,0,0,0c-16.4-6-29.6-6.4-33.6,0C533.4,173.9,540.6,186.5,554.5,199.2
	C554.5,199.2,554.5,199.2,554.5,199.2L554.5,199.2z"/>
<path class="st1" d="M590,292.5c2.4,1.7,2,3.9,2,3.9s-3.9,16.3-4.3,18c-3.1,13.1,4.4,23.6,12.4,30.7c7.7,6.9,16,10.6,16.1,10.7
	c0,0,0,0,0,0c-0.8-3.3-1-6.7-0.7-10c0.1-0.8,0.2-1.5,0.4-2.3c2.2-10.9,4.7-18.9,7.3-27.1c1.2,1.2,1.9,1.9,1.9,1.9
	c1.7-0.2,3.3-0.5,4.8-1c15.5-4.3,19.5-18.5,20.5-24.5c0.3-1.7,0.3-2.7,0.3-2.7s-19.2-25.3-37.1-30.9
	C613.7,259.2,596.8,269.9,590,292.5z"/>
<path class="st11" d="M626.9,442.3C626.9,442.3,626.9,442.3,626.9,442.3L626.9,442.3c0,0,6.7-34.2-0.8-58c0,0,0,0,0-0.1
	c-2.9,1.8-6,3.6-9.2,5.4c0,0,0,0,0,0c0,0-1.4,0.6-4.4,1c-3.2,0.4-9.9-2-11.2-2.2c-1.3-0.3-7.2,1.2-9.1,1.8c-2.8,0.9-4.2,0-4.2,0
	l5.6-2.9c0,0-6.3,0.9-8.1,0.8c-2.4-0.1-3.2-0.6-3.2-1.1c0-0.1,0.1-0.2,0.2-0.3l10.3-2.2c0,0-5-0.1-7.9,0.3c-2,0.3-3.4,0-3.9-0.4
	c-0.2-0.2-0.2-0.5,0.1-0.6c2.3-1,11.3-3,11.3-3s-4.5-0.9-7.3-0.1c-2.2,0.6-5.1-0.1-4.5-0.8c0.7-0.7,9.2-3.3,12.9-3.7
	c1.5-0.2,4.9,0.5,8.5,1.3c-0.9-1.4-1-2.6-1.1-3.4c-0.1-0.5,0-2.5,1.4-1c1.9,2.1,9.2,6.4,10.8,7.3c0.2-0.1,0.4-0.2,0.5-0.3
	c2.6-1.7,5.6-4.6,8.8-8.1c-3.1-9-5.9-16.1-5.9-16.1s0,0,0,0c0,0-8.3-3.8-16.1-10.7c-8.1-7.1-15.5-17.6-12.4-30.7
	c0.4-1.7,4.3-18,4.3-18s0.4-2.3-2-3.9c6.9-22.5,23.7-33.3,23.7-33.3s-1-0.3-1.9-0.5c-0.5-0.1-1-0.3-1.3-0.3
	c-0.6-0.1-2.4-0.5-2.4-0.5c0,0,0,0,0,0c-15.1,12.9-21.5,25.6-24.1,33c0,0,0,0-0.1,0c-6.5-0.4-25.1-1.4-34.8-1.9
	c2.2-17.3,10.8-28.9,13.7-32.4c-0.3,0-0.6,0-0.9,0.1c-1.8,0.2-3.5,0.3-5,0.5c0,0-0.1,0-0.1,0c-7.2,11-10.9,23-12.7,31.5
	c-0.6,0-1-0.1-1-0.1s-4.3,2.6-4.4,8c0,2.2-0.7,8.4-1.6,15.2c0,0.3-0.1,0.6-0.1,1c-1.2,9.7-2.7,20-2.7,20l-4.3,65.7l0,0.2l-0.1,1.8
	l0,0l4.5,2c0,0,0,0,0,0c-0.1,0.1-0.1,0.2,0.1,0.4c15.1,18.1,21.1,59.2,21.7,59.1c3.3,22.8,7.8,50.8,13.3,75.8H623
	c1.6-31.6,3-79.5,3.9-94.5C626.9,442.8,626.9,442.5,626.9,442.3z M583,295.2c0.4-1.4,2-2.2,3.4-1.7c1.4,0.4,2.2,2,1.7,3.4
	c-0.4,1.4-2,2.2-3.4,1.7C583.3,298.1,582.5,296.6,583,295.2z M548.6,293.4c-0.4,1.4-2,2.2-3.4,1.7c-1.4-0.4-2.2-2-1.7-3.4
	c0.4-1.4,2-2.2,3.4-1.7C548.2,290.5,549,292,548.6,293.4z"/>
<path class="st3" d="M584.7,298.6c1.4,0.4,2.9-0.3,3.4-1.7c0.4-1.4-0.3-2.9-1.7-3.4c-1.4-0.4-2.9,0.3-3.4,1.7
	C582.5,296.6,583.3,298.1,584.7,298.6z M586.8,295.6c0.2,0,0.4,0.2,0.4,0.4c0,0.2-0.2,0.4-0.4,0.4c-0.2,0-0.4-0.2-0.4-0.4
	C586.4,295.8,586.6,295.6,586.8,295.6z M584.2,295.6c0.2,0,0.4,0.2,0.4,0.4c0,0.2-0.2,0.4-0.4,0.4c-0.2,0-0.4-0.2-0.4-0.4
	C583.8,295.8,584,295.6,584.2,295.6z"/>
<path class="st3" d="M546.8,290c-1.4-0.4-2.9,0.3-3.4,1.7c-0.4,1.4,0.3,2.9,1.7,3.4c1.4,0.4,2.9-0.3,3.4-1.7
	C549,292,548.2,290.5,546.8,290z M544.7,293c-0.2,0-0.4-0.2-0.4-0.4c0-0.2,0.2-0.4,0.4-0.4c0.2,0,0.4,0.2,0.4,0.4
	C545.1,292.8,545,293,544.7,293z M547.3,293c-0.2,0-0.4-0.2-0.4-0.4c0-0.2,0.2-0.4,0.4-0.4c0.2,0,0.4,0.2,0.4,0.4
	C547.7,292.8,547.5,293,547.3,293z"/>
<path class="st12" d="M561.3,222.4c0,0,1.9,4.1,5.2,4.4c3.4,0.3,8.3-2.6,8.3-2.6C567.9,221.4,561.3,222.4,561.3,222.4z"/>
<path class="st9" d="M512.2,295.4c-10.5,8.4-20.7,15.5-25,15c-10.3-1.1-50.8-10.9-50.8-10.9s-8.1-8.6-11-9.7c-1-0.3-2.8-0.8-4.7-1.2
	c-3.1-2.1-6.8-4.5-6.8-4.5s-0.5,2,0,3.2c-1.2-0.2-2-0.3-2-0.3s0,2.5,4.8,4.3c3.1,1.2,4.6,5.2,6.1,8.4c-2.5-0.1-5.5-0.1-6,0.6
	c-0.8,1.3,3.4,3.4,5.9,5c2.5,1.6,10.4,1.9,10.4,2c0,0,0,0,0,0c0.1,0.1,40.6,23.8,60.1,23.5c17-0.3,38.6-14.5,43.8-18.1
	c0-0.3,0.1-0.6,0.1-1C525.8,310.3,514.9,298.5,512.2,295.4z"/>
<path class="st9" d="M629.9,317.3c8.6,9,16.7,17.7,16.4,19.3c-0.3,1.6-6.8,12.3-14.5,23c-0.2,0.2-0.3,0.4-0.5,0.7
	c-0.2,0.2-0.3,0.4-0.5,0.6c-0.2,0.2-0.4,0.5-0.5,0.7c-0.1,0.2-0.3,0.3-0.4,0.5c-0.2,0.3-0.4,0.6-0.6,0.9c-0.1,0.1-0.2,0.3-0.3,0.4
	c-0.2,0.3-0.5,0.7-0.7,1c-0.1,0.1-0.2,0.2-0.2,0.3c-0.3,0.4-0.5,0.7-0.8,1c-0.1,0.1-0.1,0.1-0.2,0.2c-0.3,0.4-0.6,0.8-0.9,1.1
	c0,0-0.1,0.1-0.1,0.1c-0.3,0.4-0.6,0.8-1,1.2c0,0,0,0,0,0.1c-0.3,0.4-0.7,0.8-1,1.2c0,0,0,0,0,0c-0.2,0.2-0.4,0.5-0.6,0.7
	c0,0-0.1,0.1-0.1,0.1c-0.2,0.2-0.4,0.4-0.5,0.6c0,0.1-0.1,0.1-0.1,0.2c-0.2,0.2-0.3,0.4-0.5,0.6c0,0,0,0,0,0
	c-3.1,3.5-6.2,6.5-8.8,8.1c-0.1,0.1-0.3,0.2-0.5,0.3c-1.6-0.9-8.9-5.2-10.8-7.3c-1.4-1.5-1.5,0.4-1.4,1c0.1,0.7,0.2,2,1.1,3.4
	c-3.6-0.9-7-1.5-8.5-1.3c-3.7,0.4-12.2,3.1-12.9,3.7c-0.7,0.7,2.2,1.4,4.5,0.8c2.8-0.8,7.3,0.1,7.3,0.1s-9,2-11.3,3
	c-0.2,0.1-0.3,0.4-0.1,0.6c0.5,0.4,1.9,0.7,3.9,0.4c2.9-0.4,7.9-0.3,7.9-0.3l-10.3,2.2c-0.1,0-0.2,0.1-0.2,0.3c0,0.5,0.8,1,3.2,1.1
	c1.8,0.1,8.1-0.8,8.1-0.8l-5.6,2.9c0,0,1.4,1,4.2,0c2-0.6,7.8-2.1,9.1-1.8c1.3,0.3,8.1,2.7,11.2,2.2c3.1-0.4,4.4-1,4.4-1
	c0,0,0,0,0,0c3.2-1.8,6.3-3.6,9.2-5.4c0.4-0.2,0.7-0.4,1.1-0.7c0,0,0,0,0.1,0c0.6-0.4,1.2-0.8,1.9-1.2c0,0,0,0,0,0
	c1.9-1.2,3.7-2.4,5.5-3.7c0,0,0,0,0,0c9.5-6.6,17.1-13.2,23.2-19.3h0c14.6-14.8,19.9-26.3,19.9-26.3c-5.9-11.9-17.3-27.5-27.3-40.1
	C649.4,298.8,645.4,313,629.9,317.3z"/>
<path class="st11" d="M586.8,296.4c0.2,0,0.4-0.2,0.4-0.4c0-0.2-0.2-0.4-0.4-0.4c-0.2,0-0.4,0.2-0.4,0.4
	C586.4,296.2,586.6,296.4,586.8,296.4z"/>
<path class="st11" d="M584.2,296.4c0.2,0,0.4-0.2,0.4-0.4c0-0.2-0.2-0.4-0.4-0.4c-0.2,0-0.4,0.2-0.4,0.4
	C583.8,296.2,584,296.4,584.2,296.4z"/>
<path class="st11" d="M547.3,292.2c-0.2,0-0.4,0.2-0.4,0.4c0,0.2,0.2,0.4,0.4,0.4c0.2,0,0.4-0.2,0.4-0.4
	C547.7,292.4,547.5,292.2,547.3,292.2z"/>
<path class="st11" d="M544.7,292.2c-0.2,0-0.4,0.2-0.4,0.4c0,0.2,0.2,0.4,0.4,0.4c0.2,0,0.4-0.2,0.4-0.4
	C545.1,292.4,544.9,292.2,544.7,292.2z"/>
<path class="st13" d="M405.7,160.6l20.8-102.8l-166.4-9.6L312.5,167L405.7,160.6z M333.9,148.1c-0.1,0.2-0.4-0.2-0.7-0.1
	c-0.5,0.8-0.8,1.8-0.7,2.8c0,0.3-0.3,0.3-0.6,0.3c0.2,1.2-0.6,1.8-0.5,3c-0.3,0-0.7-0.2-1.1-0.1c-0.3,0.2-0.5,0.5-0.7,0.8
	c-1.1,0.8-2,1.6-3.1,2.3c-0.1,0-0.2-0.1-0.3-0.1c0,0.1,0,0.2,0,0.3l-0.1,0.1c-0.2-0.1-0.4-0.1-0.5-0.1c0,0.1,0,0.2,0,0.3
	c-0.3,0.1-0.7,0.2-1.1,0.3c-0.2-0.2-0.4-0.3-0.6-0.5c0,0.1,0,0.2,0,0.3c-0.2,0.2-0.6-0.4-0.7-0.3c-0.1,0.1,0,0.3,0,0.5
	c-0.9,0-1.9-0.1-2.8-0.3c-0.1,0-0.3-0.5-0.5-0.9c-0.1-0.2-0.1-0.3-0.2-0.5h0.2c-0.1,0-0.1-0.1-0.2-0.1c0-0.1,0-0.2-0.1-0.2h0.3
	c-0.1,0-0.2-0.1-0.3-0.1c0.1-0.1,0.4,0.2,0.5,0.2c-0.1-0.1-0.1-0.2-0.2-0.2c-0.2-0.4,0-0.9,0.4-1.1c-0.1,0-0.2,0-0.2-0.1
	c0-0.6,0.4,0.1,0.4,0c0-0.5-0.4-0.2-0.5-0.6c0.1,0,0.3-0.2,0.4-0.1c0.1-0.6-0.4,0-0.4-0.4h0.4c-0.2-0.4-0.1-0.9-0.2-1.3
	c-0.2-0.8-0.5-1.4-0.1-1.9c0.1-0.2,0.3-0.2,0.5-0.2c-0.1-0.2-0.2-0.4-0.3-0.6c0.2-0.3,0.4-0.7,0.6-1c0.4-0.4,1.1-0.6,1.7-0.5h0.1
	c1,0.2,4.9-0.2,5.5-0.7c1.7-0.1,3.3-0.6,5-0.2C333.6,147.4,334,147.9,333.9,148.1z M364.2,141c-0.1,0.2-0.3-0.2-0.5-0.1
	c-0.4,0.9-0.7,1.8-0.7,2.8c0,0.3-0.2,0.3-0.4,0.3c0.1,1.2-0.5,1.8-0.5,3c-0.2,0-0.5-0.3-0.7-0.1c-0.2,0.2-0.3,0.5-0.5,0.8
	c-0.7,0.8-1.3,1.6-1.9,2.3c0,0-0.1-0.1-0.1-0.1c0,0.1,0,0.2,0,0.3L359,150c-0.1,0-0.3-0.1-0.3,0c0,0.1,0,0.2,0,0.3
	c-0.2,0.1-0.4,0.2-0.6,0.3l-0.3-0.5v0.3c-0.1,0.2-0.3-0.5-0.4-0.3c0,0.2,0,0.3,0,0.5c-0.6,0-1.1-0.1-1.6-0.4c-0.1,0-0.2-0.5-0.4-0.9
	l-0.1-0.5h0.1c0,0-0.1-0.1-0.1-0.1l-0.1-0.2h0.2c0,0-0.1-0.1-0.2-0.1c0.1-0.1,0.2,0.2,0.3,0.2c-0.3-0.4-0.3-1,0.1-1.3
	c0,0-0.1,0-0.1-0.1c0-0.6,0.3,0.1,0.3,0c0-0.5-0.3-0.1-0.4-0.6c0.1,0,0.2-0.2,0.3-0.1c0-0.6-0.3,0-0.3-0.4h0.2
	c-0.2-0.4-0.1-0.9-0.2-1.3c-0.1-0.8-0.4-1.4-0.1-1.9c0-0.2,0.2-0.2,0.3-0.2c-0.1-0.2-0.1-0.4-0.2-0.6c0.1-0.3,0.2-0.7,0.4-1
	c0.2-0.4,0.7-0.6,1.1-0.6h0.1c0.7,0.2,3.4-0.1,3.8-0.6c1.2,0,2.4-0.4,3.5,0C364.1,140.2,364.3,140.8,364.2,141z M400.5,118.2
	c0,0.2-0.2-0.2-0.2-0.1c-0.2,0.9-0.3,1.9-0.3,2.8c0,0.3-0.1,0.3-0.2,0.3c0.1,1.2-0.2,1.8-0.2,3c-0.1,0-0.3-0.3-0.4-0.1
	c-0.1,0.2-0.2,0.5-0.3,0.8c-0.4,0.8-0.8,1.6-1.2,2.2c0,0-0.1-0.1-0.1-0.1c0,0.1,0,0.2,0,0.3v0.1c-0.1-0.1-0.2-0.2-0.2-0.1
	c0,0.1,0,0.2,0,0.3c-0.1,0.1-0.2,0.2-0.4,0.2c-0.1-0.2-0.1-0.3-0.2-0.5v0.3c-0.1,0.2-0.2-0.5-0.2-0.3c0,0.2,0,0.3,0,0.5
	c-0.4,0-0.8-0.2-1.1-0.4c-0.1-0.3-0.1-0.6-0.2-0.9c-0.1-0.2-0.1-0.3-0.1-0.5h0.1c-0.1,0-0.1-0.1-0.1-0.1s0-0.2,0-0.2h0.1
	c0,0-0.1-0.1-0.1-0.1c0.1-0.1,0.1,0.2,0.2,0.2c-0.2-0.4-0.1-0.9,0.1-1.3c0,0-0.1,0-0.1-0.1c0-0.6,0.2,0.1,0.2,0
	c0-0.5-0.2-0.2-0.2-0.6c0.1,0,0.2-0.2,0.2-0.1c0-0.6-0.1,0-0.1-0.4h0.1c-0.1-0.4-0.1-0.9-0.1-1.3c-0.1-0.6-0.1-1.3,0-1.9
	c0-0.2,0.1-0.2,0.2-0.2c0-0.2-0.2-0.3-0.1-0.6c0.1-0.3,0.2-0.7,0.2-1c0.2-0.5,0.4-0.6,0.6-0.5c0.4,0.2,1.9,0,2.1-0.5
	c0.6,0,1.3-0.4,1.9-0.1C400.4,117.5,400.6,118,400.5,118.2z M410,94.2c-0.2,0.3,0,0.9-0.1,1.1s-0.4-0.3-0.6-0.3
	c-0.7,0.7-1.3,1.6-1.5,2.5c-0.1,0.3-0.4,0.2-0.6,0.1c-0.1,1.2-1,1.6-1.2,2.8c-0.3-0.1-0.6-0.4-0.9-0.3c-0.3,0.2-0.5,0.4-0.7,0.7
	c-1.1,0.6-2,1.3-2.8,1.9c-0.1,0-0.1-0.1-0.2-0.1c0,0.1,0,0.2-0.1,0.3h-0.1c-0.1-0.1-0.3-0.2-0.4-0.1c0,0.1,0,0.2,0,0.3
	c-0.3,0.1-0.5,0.2-0.8,0.2c-0.1-0.2-0.3-0.4-0.4-0.5v0.3c-0.2,0.2-0.3-0.5-0.5-0.3c0,0.2,0,0.3,0,0.5c-0.7,0-1.5-0.2-2.2-0.4
	c-0.1,0-0.3-0.5-0.5-0.9c-0.1-0.2-0.1-0.3-0.1-0.5h0.1c-0.1,0-0.1-0.1-0.2-0.1v-0.2h0.2c-0.1,0-0.2-0.1-0.2-0.1
	c0.1-0.1,0.3,0.2,0.4,0.2c0,0,0,0-0.1-0.1c-0.3-0.4-0.2-1,0.2-1.3c-0.1,0-0.2,0-0.2-0.1c0-0.6,0.3,0.1,0.4,0c0-0.5-0.4-0.1-0.4-0.6
	c0.1,0,0.3-0.2,0.4-0.1c0.1-0.6-0.3,0-0.3-0.4h0.3c-0.2-0.4-0.1-0.9-0.2-1.3c-0.2-0.8-0.5-1.4-0.1-1.9c0.1-0.2,0.3-0.2,0.5-0.2
	c-0.1-0.2-0.2-0.4-0.3-0.6c0.2-0.3,0.4-0.7,0.6-1c0.4-0.4,1.1-0.6,1.7-0.5h0.1c1,0.1,1.9,0.2,2.9,0.2c0.9,0.1,1.8,0,2.7-0.2
	C406.7,93.5,408.4,93.4,410,94.2z M390.6,74.2c0.1-0.4,0.2-0.8,0.3-1.1c0.3-0.6,0.9-1,1.6-1.1h0.1c1-0.2,2.1-0.4,3.1-0.7
	c1-0.2,1.9-0.5,2.7-0.9c1.9-0.2,3.7-0.6,5.6-0.1c-0.2,0.3,0.2,0.9,0.1,1.1c-0.1,0.2-0.4-0.3-0.7-0.1c-0.6,0.8-1,1.8-1,2.8
	c0,0.3-0.3,0.3-0.6,0.3c0.1,1.2-0.6,1.8-0.6,3c-0.3,0-0.7-0.3-0.9-0.1c-0.2,0.2-0.4,0.5-0.6,0.8c-0.8,0.8-1.5,1.6-2.2,2.5
	c-0.1,0-0.1,0-0.2,0c0,0.1,0,0.2,0,0.3v0.1c-0.2,0-0.3-0.1-0.4,0c0,0.1,0,0.2,0,0.3c-0.2,0.2-0.5,0.3-0.7,0.4
	c-0.2-0.1-0.4-0.3-0.5-0.4l0.1,0.3c-0.1,0.2-0.5-0.3-0.5-0.2c0,0.1,0.1,0.3,0.1,0.5c-0.7,0.1-1.3,0-2-0.1c-0.1,0-0.4-0.4-0.7-0.7
	c-0.1-0.1-0.2-0.3-0.3-0.4h0.1c-0.1,0-0.1,0-0.2-0.1l-0.1-0.2c0,0-0.1,0-0.1,0c0.1-0.1,0.3,0,0.4,0c-0.6-0.4-0.6-1-0.3-1.3
	c-0.1,0.1-0.2,0.1-0.2,0c-0.2-0.5,0.4,0,0.4-0.1c-0.1-0.4-0.4,0-0.6-0.4c0.1,0,0.2-0.3,0.3-0.2c-0.1-0.6-0.3,0.1-0.4-0.2L392,78
	c-0.3-0.3-0.4-0.8-0.6-1.1c-0.5-0.7-0.9-1.1-0.7-1.8c0-0.2,0.2-0.3,0.4-0.3C390.9,74.5,390.8,74.4,390.6,74.2z M382.7,141
	c0.1-0.3,0.3-0.3,0.5-0.3c-0.1-0.2-0.2-0.4-0.4-0.5c0.2-0.4,0.4-0.7,0.7-1.1c0.3-0.2,0.7-0.4,1.1-0.4c0.4,0,0.8,0,1.3,0.1h0.2
	c0.7,0.3,2,0.7,3.2,1.2s1.7,0.7,2,0.5c0.3,0.2,0.6,0.3,0.9,0.3c0,0,0,0,0,0.1c0,0.1-0.1,0.3-0.1,0.4c0,0.1-0.1,0.2-0.1,0.3
	c-0.1,0.2-0.1,0.5-0.1,0.8l-0.1-0.8c0,0,0,0.1,0,0.1v0.1v0.2v0.3c0,0.2-0.1,0.5-0.1,0.7l-0.3,1.5c-0.1,0.3-0.2,0.3-0.3,0.2
	c-0.2,1.2-0.9,1.6-1.3,2.7c-0.3-0.1-0.5-0.5-0.9-0.5c-0.3,0.1-0.6,0.3-0.9,0.4c-1.1,0.2-2.1,0.4-3.2,0.8c0,0,0-0.1-0.1-0.1l-0.1,0.2
	h-0.1c-0.1-0.1-0.1-0.2-0.2-0.2c0,0.1-0.1,0.2-0.1,0.3c-0.2,0.1-0.3,0.1-0.4,0.1l0.1-0.5l-0.1,0.3c-0.1,0.2,0.1-0.5,0-0.3l-0.1,0.4
	c0,0.1,0,0.1,0,0.1l0-0.1c0-0.1,0-0.2,0-0.3l-0.1-0.3c0-0.2-0.1-0.4-0.2-0.5l-0.2-0.5h0.1c0,0-0.1,0-0.1-0.1l-0.1-0.2h0.1
	c0,0-0.1-0.1-0.1-0.1c0-0.1,0.2,0.1,0.2,0.1c-0.2-0.4-0.3-0.9-0.1-1.3c0,0-0.1,0-0.1-0.1c-0.1-0.5,0.2,0.1,0.2,0
	c0-0.5-0.2-0.1-0.3-0.5c0.1,0,0.1-0.2,0.2-0.1c0-0.6-0.3,0-0.3-0.3c0.1,0,0.2,0,0.2,0c-0.2-0.3-0.1-0.9-0.3-1.2
	C382.7,142.1,382.3,141.6,382.7,141z M381.1,119.6c-0.1,0.2-0.5-0.2-0.7,0c-0.5,0.9-0.7,1.9-0.6,2.9c0,0.3-0.3,0.3-0.6,0.3
	c0.3,1.2-0.5,1.9-0.4,3c-0.3-0.1-0.8-0.2-1.2-0.1c-0.3,0.2-0.5,0.5-0.7,0.8c-1.1,0.9-2.1,1.7-3.2,2.5c-0.1,0-0.2-0.1-0.3-0.1
	c0,0.1,0,0.2,0,0.3l-0.1,0.1c-0.2,0-0.6,0-0.6,0c0,0,0,0.2,0,0.3c-0.3,0.1-0.7,0.2-1.1,0.3c-0.2-0.1-0.4-0.3-0.6-0.5
	c0,0.1,0,0.2,0,0.3c-0.2,0.2-0.5-0.5-0.7-0.3c-0.1,0.1,0,0.3,0,0.5c-1,0-1.9-0.1-2.8-0.3c-0.1,0-0.4-0.5-0.6-0.9
	c-0.1-0.2-0.1-0.3-0.2-0.5h0.2c-0.1,0-0.2-0.1-0.2-0.1c0-0.1,0-0.2-0.1-0.2h0.3c-0.1,0-0.2-0.1-0.3-0.1c0.1-0.1,0.4,0.1,0.5,0.1
	c-0.1-0.1-0.2-0.2-0.2-0.3c-0.2-0.4,0-0.9,0.4-1.1c-0.1,0-0.2,0-0.2-0.1c0-0.6,0.4,0.1,0.5,0c0-0.5-0.5-0.1-0.5-0.6
	c0.1,0,0.3-0.2,0.5-0.1c0.1-0.6-0.4,0-0.4-0.4h0.4c-0.3-0.3-0.1-0.9-0.3-1.3c-0.3-0.8-0.6-1.4-0.1-1.9c0.1-0.2,0.3-0.2,0.5-0.2
	c-0.1-0.2-0.2-0.4-0.3-0.6c0.2-0.4,0.4-0.7,0.6-1.1c0.5-0.4,1.1-0.7,1.7-0.6h0.1c1.1,0.2,5.2-0.4,5.7-1c1.8-0.1,3.5-0.7,5.3-0.5
	C380.7,118.9,381.1,119.4,381.1,119.6z M379.7,94.4c-0.2,0.3,0.4,0.9,0.3,1.1c-0.1,0.2-0.6-0.2-1-0.1c-0.8,0.7-1.2,1.8-1.2,2.8
	c0,0.3-0.5,0.3-0.8,0.3c0.2,1.2-0.9,1.8-0.8,3c-0.5-0.1-1.1-0.2-1.6-0.1c-0.4,0.2-0.7,0.5-1.1,0.8l-4.5,2.4c-0.1,0-0.3-0.1-0.4-0.1
	c0,0.1,0,0.2,0,0.3l-0.1,0.1c-0.3,0-0.8-0.1-0.8,0c0,0.1,0,0.2,0,0.3c-0.5,0.1-1,0.2-1.5,0.3c-0.3-0.1-0.6-0.3-0.8-0.4v0.3
	c-0.3,0.2-0.6-0.5-1-0.2c-0.1,0.1,0,0.3,0,0.5c-1.3,0-2.6-0.1-3.9-0.3c-0.2,0-0.5-0.5-0.8-0.9c-0.1-0.2-0.2-0.3-0.3-0.5h0.3
	c-0.1,0-0.2,0-0.3-0.1l-0.1-0.2h0.4c-0.1,0-0.3-0.1-0.4-0.1c0.2-0.1,0.5,0.1,0.7,0.1c-0.6-0.6-0.3-1.1,0.3-1.4c-0.1,0-0.3,0-0.3-0.1
	c0-0.6,0.5,0.1,0.6,0c0-0.5-0.6-0.1-0.8-0.6c0.2,0,0.4-0.2,0.7-0.1c0.1-0.6-0.5,0-0.5-0.3h0.5c-0.3-0.3-0.1-0.9-0.3-1.3
	c-0.3-0.8-0.8-1.4-0.1-1.9c0.1-0.2,0.4-0.2,0.8-0.2c-0.1-0.2-0.3-0.4-0.5-0.6c0.3-0.4,0.6-0.7,0.9-1.1c0.7-0.5,1.6-0.7,2.5-0.7h0.1
	c1.5,0.1,7.4-0.4,8.2-0.9C374.7,94.5,377.2,94,379.7,94.4z M342.3,75.3c-1-0.6-0.4-1.2,0.6-1.3c-0.2,0-0.5,0-0.5-0.1
	c0.1-0.6,0.9,0.1,1.1,0c0-0.5-1-0.2-1.1-0.6c0.4,0,0.7-0.2,1.1-0.1c0.2-0.6-0.8,0-0.8-0.4h0.9c-0.5-0.4-0.1-0.9-0.4-1.3
	c-0.5-0.8-1.1-1.4,0-1.9c0.2-0.2,0.7-0.2,1.2-0.2c-0.2-0.2-0.4-0.4-0.6-0.6c0.5-0.3,1-0.7,1.5-1c1.2-0.4,2.6-0.6,3.9-0.5h0.2
	c2.3,0.2,11.4-0.1,12.8-0.7c2,0,3.9-0.2,5.9-0.2c1.3-0.1,2.6,0,4,0.2c0.9,0.2,1.7,0.4,2.6,0.8c1,0.5,1.9,1.1,2.7,1.9
	c-0.3-0.1-0.1,0.3,0,0.7c0.1,0.2,0.1,0.3,0.1,0.5c0,0.1-0.1,0.2-0.2,0.2c-0.2-0.1-0.5-0.5-1-0.9c-0.4-0.5-0.9-0.8-1.5-1.1
	c-0.9-0.3-1.8-0.2-2.6,0.4c-0.4,0.4-0.8,0.9-0.9,1.4c-0.1,0.3-0.9,0.1-1.5,0.1c0.3,1.2-1.6,1.8-1.4,3c-0.8-0.1-1.7-0.2-2.5-0.1
	c-0.6,0.2-1.1,0.5-1.6,0.8c-2.6,0.8-5,1.6-7.4,2.3c-0.2,0-0.4-0.1-0.6-0.1c0,0.1,0,0.2-0.1,0.3l-0.2,0.1c-0.4-0.1-0.9-0.1-1.3,0
	c0,0,0,0.2,0,0.3c-0.8,0.1-1.6,0.2-2.4,0.3l-1.3-0.5v0.3c-0.5,0.2-1-0.5-1.5-0.3c-0.1,0.1,0,0.3,0,0.5c-2.1,0-4.2-0.1-6.3-0.4
	c-0.3,0-0.7-0.5-1.2-0.9c-0.1-0.2-0.2-0.3-0.3-0.5h0.4c-0.2,0-0.3-0.1-0.5-0.1l-0.1-0.2h0.6c-0.2,0-0.5-0.1-0.6-0.1
	C341.5,75,342,75.3,342.3,75.3z M336.3,121.4h0.1c1.3,0.1,6.3-0.4,7.1-1c2.2-0.1,4.3-0.5,6.5-0.2c-0.2,0.3,0.3,0.8,0.2,1.1
	c-0.1,0.2-0.6-0.2-0.9-0.1c-0.7,0.8-1.1,1.8-1.1,2.8c0,0.3-0.4,0.3-0.7,0.3c0.2,1.2-0.8,1.8-0.7,3c-0.4,0-0.9-0.3-1.4-0.1
	c-0.3,0.2-0.6,0.5-0.9,0.8c-1.3,0.8-2.6,1.7-3.8,2.4c-0.1,0-0.2-0.1-0.3-0.1c0,0.1,0,0.2,0,0.3l-0.1,0.1c-0.3,0-0.5-0.1-0.7,0
	c0,0.1,0,0.2,0,0.3c-0.4,0.1-0.8,0.3-1.2,0.3c-0.2-0.1-0.5-0.3-0.7-0.4v0.4c-0.3,0.2-0.5-0.5-0.8-0.2c-0.1,0.1,0,0.3,0,0.5
	c-1.1,0-2.1-0.1-3.2-0.3c-0.1,0-0.4-0.5-0.7-0.8c-0.1-0.2-0.2-0.3-0.2-0.5h0.2c-0.1,0-0.2,0-0.3-0.1l-0.1-0.2h0.3
	c-0.1,0-0.3-0.1-0.3-0.1c0.2-0.1,0.5,0.1,0.6,0.1c-0.1-0.1-0.2-0.2-0.3-0.4c-0.1-0.4,0.1-0.8,0.5-1c-0.1,0-0.3,0-0.3-0.1
	c0-0.6,0.5,0.1,0.5,0c0-0.5-0.5-0.1-0.7-0.6c0.2,0,0.4-0.2,0.5-0.1c0.1-0.6-0.5,0-0.5-0.3h0.4c-0.3-0.3-0.1-0.9-0.3-1.3
	c-0.3-0.8-0.7-1.3-0.2-1.9c0.1-0.2,0.4-0.2,0.6-0.2c-0.1-0.2-0.3-0.4-0.4-0.6c0.2-0.4,0.5-0.7,0.7-1.1
	C334.8,121.6,335.5,121.4,336.3,121.4z M324.6,94c3.2,0.4,6.4,0.6,9.5,1.9c-0.3,0.2,0.2,0.9,0,1.1c-0.2,0.2-0.7-0.4-1.2-0.4
	c-1.1,0.3-1.9,1.2-2.2,2.3c-0.1,0.3-0.7,0.1-1.1,0c0,1.2-1.5,1.5-1.6,2.7c-0.6-0.2-1.2-0.4-1.8-0.5c-0.4,0.1-0.9,0.3-1.3,0.6
	c-1.8,0.5-3.5,1.1-5.1,1.9c-0.1,0-0.3-0.1-0.4-0.1c0,0.1,0,0.2-0.1,0.3l-0.1,0.1c-0.3-0.1-0.6-0.1-0.8,0c0,0,0,0.2,0,0.3
	c-0.5,0.1-1,0.2-1.6,0.3c-0.3-0.1-0.6-0.3-0.9-0.4v0.3c-0.4,0.2-0.7-0.5-1.1-0.2c-0.1,0.1,0,0.3,0,0.5c-1.3,0.1-2.7,0.2-4,0
	c-0.2,0-0.6-0.4-1-0.7l-0.3-0.5h0.3c-0.1,0-0.2,0-0.3-0.1l-0.1-0.2l0.3,0c-0.1,0-0.2,0-0.3,0c0.2-0.1,0.6,0,0.8,0
	c-0.8-0.5-0.5-1.1,0.2-1.4c-0.1,0.1-0.4,0.1-0.4,0c-0.1-0.6,0.6,0,0.7-0.1c-0.1-0.4-0.7,0-0.9-0.4c0.2,0,0.5-0.3,0.7-0.2
	c0.1-0.6-0.7,0.1-0.7-0.3c0.2,0,0.4-0.1,0.6-0.1c-0.4-0.3-0.2-0.9-0.5-1.2c-0.5-0.7-1.1-1.2-0.4-1.9c0.1-0.2,0.5-0.3,0.9-0.3
	c-0.2-0.2-0.4-0.3-0.6-0.5c0.3-0.4,0.7-0.8,1-1.2c0.9-0.6,2-0.9,3.1-0.9h0.2c1,0,3.3-0.2,5.5-0.3C321.3,94.3,322.9,94.2,324.6,94z
	 M303.1,75.6c0,0.1,0,0.2-0.1,0.3l-0.2,0.1c-0.3-0.1-0.7-0.1-1,0c0,0,0,0.2,0,0.3c-0.6,0.1-1.2,0.2-1.8,0.3
	c-0.4-0.1-0.7-0.3-1.1-0.5v0.3c-0.4,0.2-0.8-0.5-1.2-0.2c-0.1,0.1,0,0.3,0,0.5c-1.6,0.1-3.1,0-4.7-0.4c-0.2,0-0.6-0.5-1.1-0.8
	c-0.1-0.2-0.2-0.3-0.3-0.5h0.3c-0.1,0-0.3,0-0.4-0.1l-0.1-0.2h0.5c-0.1,0-0.4-0.1-0.5-0.1c0.3-0.1,0.7,0.1,0.9,0.1
	c-0.8-0.5-0.4-1.1,0.4-1.4c-0.1,0-0.4,0-0.4-0.1c0-0.5,0.7,0.1,0.8,0c0-0.5-0.8-0.1-1-0.5c0.3,0,0.5-0.3,0.8-0.2
	c0.1-0.6-0.7,0-0.7-0.3h0.7c-0.4-0.3-0.2-0.9-0.4-1.2c-0.4-0.8-1-1.3-0.2-1.9c0.1-0.3,0.6-0.3,1-0.3c-0.2-0.2-0.4-0.4-0.6-0.5
	c0.4-0.3,0.8-0.7,1.2-1.1c1-0.5,2.1-0.8,3.2-0.7h0.2c1,0.1,3.4-0.1,5.7-0.1c1.7,0,3.4-0.1,5.1-0.4c3.4,0.2,6.7,0.1,9.9,0.9
	c-0.3,0.3,0.4,0.9,0.2,1.1c-0.2,0.2-0.8-0.3-1.3-0.3c-1,0.5-1.8,1.4-1.9,2.6c-0.1,0.3-0.7,0.2-1.1,0.1c0.2,1.2-1.4,1.7-1.4,2.9
	c-0.7-0.2-1.3-0.3-2-0.3c-0.5,0.2-0.9,0.4-1.3,0.7c-2.1,0.7-4,1.4-5.8,2.1C303.4,75.6,303.3,75.6,303.1,75.6z M312.2,132.1
	c-0.3,0.2-0.6-0.5-0.8-0.2c-0.1,0.1,0,0.3,0,0.5c-1.1,0-2.1-0.1-3.2-0.2c-0.1,0-0.5-0.5-0.8-0.8c-0.1-0.2-0.2-0.3-0.3-0.5h0.2
	c-0.1,0-0.2,0-0.3-0.1l-0.1-0.2h0.3c-0.1,0-0.3-0.1-0.4-0.1c0.2-0.1,0.5,0.1,0.6,0.1c-0.1-0.1-0.3-0.2-0.3-0.4
	c-0.1-0.4,0.1-0.8,0.5-1c-0.1,0-0.3,0-0.3-0.1c-0.1-0.5,0.5,0.1,0.6,0c0-0.5-0.6-0.1-0.7-0.5c0.2,0,0.3-0.3,0.5-0.1
	c0-0.6-0.5,0-0.5-0.3h0.5c-0.3-0.3-0.2-0.9-0.4-1.2c-0.4-0.8-0.8-1.3-0.3-1.9c0.1-0.3,0.4-0.3,0.7-0.3c-0.1-0.2-0.3-0.4-0.5-0.5
	c0.2-0.3,0.5-0.7,0.7-1.1c0.6-0.5,1.4-0.8,2.2-0.8h0.1c1.3,0,2.6-0.2,3.9-0.4c1.2-0.1,2.4-0.3,3.5-0.7c2.3,0,4.5-0.5,6.8,0
	c-0.2,0.3,0.3,0.9,0.2,1.1c-0.1,0.2-0.6-0.2-0.9-0.1c-0.7,0.7-1.2,1.7-1.1,2.8c0,0.3-0.5,0.3-0.7,0.3c0.2,1.2-0.8,1.8-0.8,3
	c-0.4-0.1-0.9-0.2-1.4-0.1c-0.3,0.2-0.6,0.5-0.9,0.8c-1.4,0.8-2.6,1.7-3.8,2.4c-0.1,0-0.2-0.1-0.3-0.1c0,0.1,0,0.2,0,0.3l-0.1,0.1
	c-0.3,0-0.7-0.1-0.7,0c0,0.1,0,0.2,0,0.3c-0.4,0.1-0.8,0.3-1.2,0.4l-0.7-0.4V132.1z"/>
<path class="st9" d="M310.7,72.9c0.7,0,1.4,0.1,2,0.3c0-1.2,1.6-1.6,1.4-2.9c0.4,0.1,1.1,0.2,1.1-0.1c0.1-1.1,0.9-2.1,1.9-2.6
	c0.5-0.1,1.1,0.4,1.3,0.3c0.2-0.2-0.5-0.8-0.2-1.1c-3.3-0.9-6.6-0.7-9.9-0.9c-1.7,0.3-3.4,0.4-5.1,0.4c-2.3,0.1-4.7,0.2-5.7,0.1
	h-0.2c-1.1,0-2.2,0.2-3.2,0.7c-0.4,0.3-0.8,0.7-1.2,1.1c0.2,0.2,0.4,0.4,0.6,0.5c-0.4,0-0.9,0-1,0.3c-0.8,0.6-0.3,1.2,0.2,1.9
	c0.3,0.3,0,0.9,0.4,1.2h-0.7c0,0.3,0.8-0.3,0.7,0.3c-0.3-0.1-0.5,0.1-0.8,0.2c0.1,0.4,1,0.1,1,0.5c-0.1,0.1-0.8-0.5-0.8,0
	c0,0.1,0.3,0.1,0.4,0.1c-0.8,0.3-1.2,0.9-0.4,1.4c-0.3,0-0.7-0.2-0.9-0.1c0.1,0,0.4,0.1,0.5,0.1h-0.5l0.1,0.2
	c0.1,0.1,0.2,0.1,0.4,0.1h-0.3c0.1,0.2,0.2,0.3,0.3,0.5c0.4,0.3,0.8,0.8,1.1,0.8c1.6,0.4,3.2,0.4,4.7,0.4c0-0.2-0.1-0.4,0-0.5
	c0.4-0.2,0.8,0.5,1.2,0.2V76c0.3,0.1,0.7,0.3,1.1,0.5c0.6-0.1,1.2-0.2,1.8-0.3c0-0.1,0-0.2,0-0.3c0.3-0.1,0.7-0.1,1,0l0.2-0.1
	c0-0.1,0.1-0.2,0.1-0.3c0.2,0,0.3,0,0.5,0.1c1.8-0.7,3.7-1.4,5.8-2.1C309.8,73.3,310.2,73.1,310.7,72.9z"/>
<path class="st9" d="M341.2,75.2l0.1,0.2c0.1,0.1,0.3,0.1,0.5,0.1h-0.4c0.1,0.2,0.2,0.4,0.3,0.5c0.5,0.4,0.9,0.9,1.2,0.9
	c2.1,0.3,4.2,0.4,6.3,0.4c0-0.2-0.1-0.4,0-0.5c0.5-0.2,1,0.5,1.5,0.3v-0.3l1.3,0.5c0.8-0.1,1.6-0.1,2.4-0.3c0-0.1,0-0.2,0-0.3
	c0.4-0.1,0.9-0.1,1.3,0l0.2-0.1c0-0.1,0.1-0.2,0.1-0.3c0.2,0,0.4,0,0.6,0.1c2.3-0.7,4.7-1.5,7.4-2.3c0.5-0.3,1-0.6,1.6-0.8
	c0.8-0.1,1.7,0,2.5,0.1c-0.1-1.2,1.7-1.8,1.4-3c0.6,0,1.4,0.2,1.5-0.1c0.2-0.5,0.5-1,0.9-1.4c0.8-0.5,1.7-0.7,2.6-0.4
	c0.6,0.2,1.1,0.6,1.5,1.1c0.4,0.4,0.7,0.9,1,0.9c0.1,0,0.2-0.1,0.2-0.2c0-0.2,0-0.4-0.1-0.5c-0.1-0.4-0.3-0.8,0-0.7
	c-0.8-0.8-1.7-1.4-2.7-1.9c-0.8-0.4-1.7-0.6-2.6-0.8c-1.3-0.2-2.6-0.3-4-0.2c-2,0.1-3.9,0.2-5.9,0.2c-1.3,0.6-10.4,0.9-12.8,0.7H349
	c-1.3-0.1-2.6,0.1-3.9,0.5c-0.5,0.3-1,0.6-1.5,1c0.2,0.2,0.5,0.4,0.6,0.6c-0.5,0-1.1,0-1.2,0.2c-1.1,0.5-0.5,1.1,0,1.9
	c0.3,0.4-0.1,0.9,0.4,1.3h-0.9c0,0.3,1.1-0.2,0.8,0.4c-0.3-0.1-0.7,0.1-1.1,0.1c0.1,0.5,1.2,0.2,1.1,0.6c-0.2,0.1-1-0.6-1.1,0
	c0,0.1,0.3,0.1,0.5,0.1c-1.1,0.2-1.6,0.7-0.6,1.3c-0.3,0-0.8-0.3-1.2-0.2c0.2,0,0.5,0.1,0.6,0.1H341.2z"/>
<path class="st9" d="M390.6,75c-0.2,0.7,0.2,1.1,0.7,1.8c0.2,0.3,0.3,0.9,0.6,1.1l-0.3,0.1c0.1,0.3,0.3-0.3,0.4,0.2
	c-0.2-0.1-0.2,0.2-0.3,0.2c0.2,0.4,0.5,0,0.6,0.4c0,0.1-0.6-0.4-0.4,0.1c0,0.1,0.2,0.1,0.2,0c-0.3,0.3-0.3,0.9,0.3,1.3
	c-0.1,0-0.4-0.1-0.4,0c0,0,0,0,0.1,0l0.1,0.2c0.1,0,0.1,0.1,0.2,0.1h-0.1c0.1,0.2,0.2,0.3,0.3,0.4c0.3,0.3,0.6,0.7,0.7,0.7
	c0.7,0.1,1.3,0.1,2,0.1c-0.1-0.2-0.2-0.4-0.1-0.5c0-0.1,0.4,0.4,0.5,0.2l-0.1-0.3c0.2,0.1,0.3,0.2,0.5,0.4c0.2-0.1,0.5-0.3,0.7-0.4
	c0-0.1,0-0.2,0-0.3c0.1-0.1,0.3,0,0.4,0v-0.1c0-0.1,0-0.2,0-0.3c0.1,0,0.1,0,0.2,0c0.7-0.9,1.4-1.7,2.2-2.5c0.1-0.3,0.3-0.6,0.6-0.8
	c0.3-0.1,0.7,0.1,0.9,0.1c-0.1-1.2,0.7-1.8,0.6-3c0.2,0,0.5,0.1,0.6-0.3c0-1,0.3-2,1-2.8c0.3-0.1,0.6,0.3,0.7,0.1
	c0.1-0.2-0.3-0.7-0.1-1.1c-1.9-0.5-3.7-0.1-5.6,0.1c-0.9,0.4-1.8,0.8-2.7,0.9c-1,0.3-2,0.5-3.1,0.7h-0.1c-0.7,0.1-1.2,0.5-1.6,1.1
	c-0.1,0.4-0.2,0.8-0.3,1.1c0.2,0.1,0.3,0.3,0.5,0.5C390.9,74.7,390.6,74.8,390.6,75z"/>
<path class="st9" d="M314.1,94.5h-0.2c-1.1,0-2.2,0.3-3.1,0.9c-0.3,0.4-0.7,0.8-1,1.2c0.2,0.2,0.4,0.3,0.6,0.5
	c-0.4,0-0.8,0.1-0.9,0.3c-0.7,0.7-0.1,1.2,0.4,1.9c0.3,0.3,0.1,0.9,0.5,1.2c-0.2,0-0.4,0.1-0.6,0.1c0,0.3,0.7-0.3,0.7,0.3
	c-0.3-0.1-0.5,0.2-0.7,0.2c0.2,0.4,0.9,0,0.9,0.4c-0.1,0.1-0.8-0.5-0.7,0.1c0,0.1,0.3,0.1,0.4,0c-0.7,0.3-0.9,0.9-0.2,1.4
	c-0.2,0-0.6-0.1-0.8,0c0.1,0,0.2,0,0.3,0l-0.3,0l0.1,0.2c0.1,0,0.2,0.1,0.3,0.1h-0.3l0.3,0.5c0.4,0.3,0.8,0.7,1,0.7
	c1.3,0.2,2.7,0.1,4,0c0-0.2-0.1-0.4,0-0.5c0.3-0.2,0.7,0.5,1.1,0.2v-0.3c0.3,0.1,0.6,0.3,0.9,0.4c0.5-0.1,1.1-0.2,1.6-0.3
	c0-0.1,0-0.2,0-0.3c0.3-0.1,0.6-0.1,0.8,0l0.1-0.1c0-0.1,0.1-0.2,0.1-0.3c0.1,0,0.3,0,0.4,0.1c1.7-0.7,3.4-1.3,5.1-1.9
	c0.4-0.3,0.8-0.5,1.3-0.6c0.6,0.1,1.2,0.2,1.8,0.5c0.1-1.2,1.6-1.5,1.6-2.7c0.4,0.1,0.9,0.3,1.1,0c0.3-1.1,1.1-2,2.2-2.3
	c0.5,0,1,0.6,1.2,0.4c0.2-0.2-0.3-0.9,0-1.1c-3-1.3-6.2-1.5-9.5-1.9c-1.6,0.2-3.3,0.3-5,0.3C317.4,94.4,315.1,94.6,314.1,94.5z"/>
<path class="st9" d="M363.9,95.5h-0.1c-0.9-0.1-1.7,0.2-2.5,0.7c-0.3,0.3-0.6,0.7-0.9,1.1c0.2,0.2,0.3,0.4,0.5,0.6
	c-0.3,0-0.7,0-0.8,0.2c-0.7,0.6-0.2,1.1,0.1,1.9c0.2,0.3,0,0.9,0.3,1.3H360c0,0.3,0.7-0.2,0.5,0.3c-0.2-0.1-0.4,0.1-0.7,0.1
	c0.1,0.5,0.8,0.1,0.8,0.6c-0.1,0.1-0.6-0.6-0.6,0c0,0.1,0.2,0.1,0.3,0.1c-0.7,0.2-1,0.8-0.3,1.4c-0.2,0-0.5-0.2-0.7-0.1
	c0.1,0,0.3,0.1,0.4,0.1h-0.4l0.1,0.2c0.1,0.1,0.2,0.1,0.3,0.1h-0.3c0.1,0.2,0.2,0.4,0.3,0.5c0.3,0.3,0.7,0.9,0.8,0.9
	c1.3,0.2,2.6,0.3,3.9,0.3c0-0.2-0.1-0.4,0-0.5c0.3-0.2,0.6,0.5,1,0.2V105c0.3,0.1,0.5,0.3,0.8,0.4c0.5-0.1,1-0.2,1.5-0.3
	c0-0.1,0-0.2,0-0.3c0-0.1,0.5,0,0.8,0l0.1-0.1c0-0.1,0-0.2,0-0.3c0.1,0,0.3,0,0.4,0.1l4.5-2.4c0.3-0.3,0.7-0.6,1.1-0.8
	c0.5-0.1,1.1,0,1.6,0.1c-0.1-1.2,1.1-1.8,0.8-3c0.3,0,0.8,0.1,0.8-0.3c0-1.1,0.4-2.1,1.2-2.8c0.3-0.1,0.9,0.3,1,0.1
	c0.1-0.2-0.4-0.7-0.3-1.1c-2.6-0.4-5,0.1-7.6,0.2C371.3,95.1,365.4,95.6,363.9,95.5z"/>
<path class="st9" d="M402.3,93.4c-1,0-1.9,0-2.9-0.2h-0.1c-0.6-0.1-1.2,0.1-1.7,0.5c-0.2,0.3-0.4,0.6-0.6,1c0.1,0.2,0.2,0.4,0.3,0.6
	c-0.2,0-0.4,0-0.5,0.2c-0.4,0.5-0.1,1.1,0.1,1.9c0.1,0.3,0,0.9,0.2,1.3h-0.3c0,0.3,0.4-0.2,0.3,0.4c-0.1-0.1-0.3,0.1-0.4,0.1
	c0.1,0.5,0.4,0.1,0.4,0.6c-0.1,0.1-0.4-0.6-0.4,0c0,0.1,0.1,0.1,0.2,0.1c-0.4,0.3-0.5,0.9-0.2,1.3c0,0,0,0,0.1,0.1
	c-0.1,0-0.3-0.2-0.4-0.2c0.1,0,0.2,0.1,0.2,0.1h-0.2v0.2c0,0.1,0.1,0.1,0.2,0.1h-0.1c0,0.2,0.1,0.4,0.1,0.5c0.2,0.4,0.4,0.9,0.5,0.9
	c0.7,0.2,1.4,0.4,2.2,0.4c0-0.2,0-0.3,0-0.5c0.2-0.2,0.3,0.5,0.5,0.3v-0.3c0.1,0.1,0.3,0.3,0.4,0.5c0.3,0,0.5-0.1,0.8-0.2
	c0-0.1,0-0.2,0-0.3c0.1-0.1,0.3,0,0.4,0.1h0.1c0-0.1,0-0.2,0.1-0.3c0.1,0,0.1,0.1,0.2,0.1c0.8-0.6,1.8-1.3,2.8-1.9
	c0.2-0.3,0.4-0.5,0.7-0.7c0.3-0.1,0.6,0.2,0.9,0.3c0.2-1.2,1.1-1.6,1.2-2.8c0.2,0.1,0.5,0.2,0.6-0.1c0.2-1,0.7-1.9,1.5-2.5
	c0.3-0.1,0.5,0.4,0.6,0.3s-0.1-0.8,0.1-1.1c-1.6-0.8-3.3-0.7-5-1.1C404.1,93.4,403.2,93.5,402.3,93.4z"/>
<path class="st9" d="M314.1,131.8c0-0.1,0-0.2,0-0.3c0-0.1,0.4,0,0.7,0l0.1-0.1c0-0.1,0-0.2,0-0.3c0.1,0,0.2,0,0.3,0.1
	c1.2-0.8,2.4-1.6,3.8-2.4c0.2-0.3,0.5-0.6,0.9-0.8c0.5,0,0.9,0,1.4,0.1c-0.1-1.2,1-1.8,0.8-3c0.3,0,0.7,0.1,0.7-0.3
	c0-1,0.4-2.1,1.1-2.8c0.3-0.1,0.8,0.3,0.9,0.1c0.1-0.2-0.4-0.7-0.2-1.1c-2.3-0.5-4.5,0-6.8,0c-1.1,0.4-2.3,0.7-3.5,0.7
	c-1.3,0.2-2.6,0.3-3.9,0.4h-0.1c-0.8,0-1.6,0.3-2.2,0.8c-0.2,0.3-0.5,0.7-0.7,1.1c0.2,0.2,0.3,0.4,0.5,0.5c-0.3,0-0.6,0-0.7,0.3
	c-0.5,0.6-0.1,1.1,0.3,1.9c0.2,0.3,0.1,0.9,0.4,1.2h-0.5c0,0.3,0.5-0.3,0.5,0.3c-0.2-0.1-0.4,0.1-0.5,0.1c0.1,0.4,0.7,0.1,0.7,0.5
	c-0.1,0.1-0.6-0.5-0.6,0c0,0.1,0.2,0.1,0.3,0.1c-0.4,0.1-0.6,0.6-0.5,1c0.1,0.2,0.2,0.3,0.3,0.4c-0.2,0-0.5-0.2-0.6-0.1
	c0.1,0,0.3,0.1,0.4,0.1H307l0.1,0.2c0.1,0.1,0.2,0.1,0.3,0.1h-0.2c0.1,0.2,0.2,0.3,0.3,0.5c0.3,0.3,0.6,0.8,0.8,0.8
	c1.1,0.2,2.1,0.2,3.2,0.2c0-0.2-0.1-0.4,0-0.5c0.3-0.2,0.6,0.4,0.8,0.2v-0.3l0.7,0.4C313.3,132,313.7,131.9,314.1,131.8z"/>
<path class="st9" d="M333.9,123.7c-0.3,0-0.6,0-0.6,0.2c-0.5,0.6-0.1,1.1,0.2,1.9c0.2,0.3,0,0.9,0.3,1.3h-0.4c0,0.3,0.5-0.2,0.5,0.3
	c-0.2-0.1-0.4,0.1-0.5,0.1c0.1,0.5,0.6,0.1,0.7,0.6c-0.1,0.1-0.6-0.6-0.5,0c0,0.1,0.2,0.1,0.3,0.1c-0.4,0.1-0.6,0.6-0.5,1
	c0.1,0.2,0.2,0.3,0.3,0.4c-0.2,0-0.5-0.2-0.6-0.1c0.1,0,0.3,0.1,0.3,0.1h-0.3l0.1,0.2c0.1,0.1,0.2,0.1,0.3,0.1H333
	c0.1,0.2,0.1,0.3,0.2,0.5c0.3,0.3,0.6,0.8,0.7,0.8c1.1,0.2,2.1,0.3,3.2,0.3c0-0.2-0.1-0.4,0-0.5c0.3-0.2,0.5,0.5,0.8,0.2v-0.4
	c0.2,0.1,0.5,0.3,0.7,0.4c0.4-0.1,0.8-0.2,1.2-0.3c0-0.1,0-0.2,0-0.3c0.2-0.1,0.4,0,0.7,0l0.1-0.1c0-0.1,0-0.2,0-0.3
	c0.1,0,0.2,0,0.3,0.1c1.2-0.7,2.4-1.6,3.8-2.4c0.2-0.3,0.5-0.6,0.9-0.8c0.4-0.1,0.9,0.1,1.4,0.1c-0.1-1.2,0.9-1.8,0.7-3
	c0.3,0,0.7,0.1,0.7-0.3c0-1,0.3-2.1,1.1-2.8c0.3-0.1,0.7,0.3,0.9,0.1c0.1-0.2-0.4-0.7-0.2-1.1c-2.2-0.4-4.3,0.1-6.5,0.2
	c-0.7,0.5-5.8,1.1-7.1,1h-0.1c-0.8,0-1.5,0.2-2.1,0.7c-0.2,0.3-0.5,0.7-0.7,1.1C333.6,123.3,333.7,123.5,333.9,123.7z"/>
<path class="st9" d="M375.6,119c-0.6,0.6-4.7,1.1-5.7,1h-0.1c-0.6-0.1-1.3,0.2-1.7,0.6c-0.2,0.3-0.4,0.7-0.6,1.1
	c0.1,0.2,0.2,0.4,0.3,0.6c-0.2,0-0.5,0-0.5,0.2c-0.5,0.5-0.1,1.1,0.1,1.9c0.2,0.3,0,0.9,0.3,1.3h-0.4c0,0.3,0.5-0.2,0.4,0.4
	c-0.2-0.1-0.3,0.1-0.5,0.1c0.1,0.5,0.5,0.1,0.5,0.6c-0.1,0.1-0.5-0.6-0.5,0c0,0.1,0.2,0.1,0.2,0.1c-0.4,0.2-0.6,0.7-0.4,1.1
	c0,0.1,0.1,0.2,0.2,0.3c-0.1,0-0.4-0.2-0.5-0.1c0.1,0,0.2,0.1,0.3,0.1h-0.3c0,0.1,0,0.2,0.1,0.2c0.1,0.1,0.1,0.1,0.2,0.1h-0.2
	c0.1,0.2,0.1,0.4,0.2,0.5c0.2,0.4,0.5,0.9,0.6,0.9c0.9,0.2,1.9,0.3,2.8,0.3c0-0.2-0.1-0.4,0-0.5c0.2-0.2,0.5,0.5,0.7,0.3
	c0-0.1,0-0.2,0-0.3c0.2,0.1,0.4,0.3,0.6,0.5c0.4-0.1,0.7-0.2,1.1-0.3c0-0.1,0-0.2,0-0.3c0,0,0.4,0,0.6,0l0.1-0.1c0-0.1,0-0.2,0-0.3
	c0.1,0,0.2,0,0.3,0.1c1.1-0.8,2-1.6,3.2-2.5c0.2-0.3,0.4-0.6,0.7-0.8c0.3-0.2,0.8,0,1.2,0.1c-0.1-1.2,0.7-1.9,0.4-3
	c0.2,0,0.6,0,0.6-0.3c-0.1-1,0.1-2,0.6-2.9c0.2-0.2,0.6,0.2,0.7,0c0.1-0.2-0.4-0.7-0.3-1.1C379,118.3,377.3,118.9,375.6,119z"/>
<path class="st9" d="M400.5,117.2c-0.6-0.4-1.2,0.1-1.9,0.1c-0.2,0.5-1.7,0.8-2.1,0.5c-0.2-0.1-0.5,0-0.6,0.5
	c-0.1,0.3-0.2,0.6-0.2,1c-0.1,0.3,0.1,0.4,0.1,0.6c-0.1,0-0.2,0-0.2,0.2c-0.1,0.6-0.1,1.3,0,1.9c0,0.4,0,0.9,0.1,1.3h-0.1
	c0,0.3,0.2-0.2,0.1,0.4c0-0.1-0.1,0.1-0.2,0.1c0,0.5,0.2,0.2,0.2,0.6c0,0.1-0.1-0.6-0.2,0c0,0.1,0.1,0.1,0.1,0.1
	c-0.2,0.4-0.3,0.9-0.1,1.3c-0.1,0-0.1-0.3-0.2-0.2c0,0,0.1,0.1,0.1,0.1h-0.1c0,0.1,0,0.2,0,0.2s0,0.1,0.1,0.1h-0.1
	c0,0.2,0,0.4,0.1,0.5c0,0.3,0.1,0.6,0.2,0.9c0.3,0.2,0.7,0.4,1.1,0.4c0-0.2,0-0.3,0-0.5c0.1-0.2,0.1,0.5,0.2,0.3v-0.3
	c0.1,0.1,0.1,0.3,0.2,0.5c0.1-0.1,0.3-0.1,0.4-0.2c0-0.1,0-0.2,0-0.3c0.1-0.1,0.1,0,0.2,0.1v-0.1c0-0.1,0-0.2,0-0.3
	c0,0,0.1,0,0.1,0.1c0.4-0.7,0.8-1.5,1.2-2.2c0.1-0.3,0.1-0.5,0.3-0.8c0.1-0.1,0.3,0.1,0.4,0.1c0-1.2,0.3-1.8,0.2-3
	c0.1,0,0.2,0.1,0.2-0.3c0-0.9,0.1-1.9,0.3-2.8c0.1-0.1,0.2,0.3,0.2,0.1C400.6,118,400.4,117.5,400.5,117.2z"/>
<path class="st9" d="M333.7,147.1c-1.7-0.3-3.3,0.2-5,0.2c-0.6,0.5-4.5,0.9-5.5,0.7h-0.1c-0.6-0.1-1.2,0.1-1.7,0.5
	c-0.2,0.3-0.4,0.6-0.6,1c0.1,0.2,0.2,0.4,0.3,0.6c-0.2,0-0.4,0-0.5,0.2c-0.4,0.5-0.2,1.1,0.1,1.9c0.1,0.3,0,0.9,0.2,1.3h-0.4
	c0,0.3,0.4-0.2,0.4,0.4c-0.1-0.1-0.3,0.1-0.4,0.1c0.1,0.5,0.5,0.2,0.5,0.6c-0.1,0.1-0.4-0.6-0.4,0c0,0.1,0.1,0.1,0.2,0.1
	c-0.4,0.2-0.6,0.7-0.4,1.1c0,0.1,0.1,0.2,0.2,0.2c-0.1,0-0.3-0.3-0.5-0.2c0.1,0,0.2,0.1,0.3,0.1H320c0,0.1,0,0.2,0.1,0.2
	c0.1,0.1,0.1,0.1,0.2,0.1h-0.2c0,0.2,0.1,0.4,0.2,0.5c0.2,0.4,0.4,0.9,0.5,0.9c0.9,0.2,1.8,0.4,2.8,0.3c0-0.2-0.1-0.4,0-0.5
	c0.1-0.1,0.4,0.5,0.7,0.3c0-0.1,0-0.2,0-0.3c0.2,0.1,0.4,0.3,0.6,0.5c0.4-0.1,0.7-0.2,1.1-0.3c0-0.1,0-0.2,0-0.3
	c0.1-0.1,0.3,0,0.5,0.1l0.1-0.1c0-0.1,0-0.2,0-0.3c0.1,0,0.2,0,0.3,0.1c1.1-0.7,2-1.5,3.1-2.3c0.2-0.3,0.4-0.6,0.7-0.8
	c0.3-0.1,0.8,0.1,1.1,0.1c-0.1-1.2,0.7-1.8,0.5-3c0.2,0,0.5,0.1,0.6-0.3c-0.1-1,0.2-2,0.7-2.8c0.2-0.1,0.6,0.3,0.7,0.1
	C334,147.9,333.6,147.4,333.7,147.1z"/>
<path class="st9" d="M364.2,139.9c-1.2-0.4-2.3,0-3.5,0c-0.4,0.5-3.2,0.8-3.8,0.6h-0.1c-0.5-0.1-0.9,0.2-1.1,0.6
	c-0.1,0.3-0.3,0.7-0.4,1c0.1,0.2,0.2,0.4,0.2,0.6c-0.2,0-0.3,0-0.3,0.2c-0.3,0.5,0,1.1,0.1,1.9c0.1,0.3,0,0.9,0.2,1.3h-0.2
	c0,0.3,0.3-0.2,0.3,0.4c-0.1-0.1-0.2,0.1-0.3,0.1c0.1,0.5,0.3,0.1,0.4,0.6c0,0.1-0.3-0.6-0.3,0c0,0.1,0.1,0.1,0.1,0.1
	c-0.3,0.4-0.4,0.9-0.1,1.3c-0.1,0-0.2-0.2-0.3-0.2c0.1,0,0.1,0.1,0.2,0.1H355l0.1,0.2c0,0.1,0.1,0.1,0.1,0.1h-0.1l0.1,0.5
	c0.2,0.4,0.3,0.9,0.4,0.9c0.5,0.2,1.1,0.3,1.6,0.4c0-0.2,0-0.3,0-0.5c0.1-0.2,0.3,0.5,0.4,0.3v-0.3l0.3,0.5c0.2-0.1,0.4-0.1,0.6-0.3
	c0-0.1,0-0.2,0-0.3c0.1-0.1,0.2,0,0.3,0l0.1-0.1c0-0.1,0-0.2,0-0.3c0.1,0,0.1,0,0.1,0.1c0.6-0.7,1.2-1.5,1.9-2.3
	c0.1-0.3,0.3-0.5,0.5-0.8c0.2-0.1,0.5,0.1,0.7,0.1c0-1.2,0.5-1.8,0.5-3c0.1,0,0.4,0.1,0.4-0.3c0-1,0.2-1.9,0.7-2.8
	c0.2-0.1,0.4,0.3,0.5,0.1C364.3,140.8,364.1,140.2,364.2,139.9z"/>
<path class="st9" d="M383.3,144.1c-0.1,0-0.2,0-0.2,0c0,0.3,0.2-0.3,0.3,0.3c-0.1-0.1-0.2,0.1-0.2,0.1c0.1,0.4,0.3,0.1,0.3,0.5
	c0,0.1-0.3-0.5-0.2,0c0,0.1,0.1,0.1,0.1,0.1c-0.2,0.4-0.1,0.9,0.1,1.3c0,0-0.2-0.2-0.2-0.1c0,0,0.1,0.1,0.1,0.1h-0.1l0.1,0.2
	c0,0.1,0.1,0.1,0.1,0.1h-0.1l0.2,0.5c0.1,0.2,0.1,0.4,0.2,0.5l0.1,0.3c0,0.1,0,0.2,0,0.3l0.1-0.4c0.1-0.2-0.1,0.5,0,0.3l0.1-0.3
	l-0.1,0.5c0.1,0,0.2-0.1,0.4-0.1c0-0.1,0.1-0.2,0.1-0.3c0.1-0.1,0.1,0.1,0.2,0.2h0.1l0.1-0.2c0,0,0.1,0.1,0.1,0.1
	c1-0.4,2.1-0.6,3.2-0.8c0.3-0.2,0.6-0.3,0.9-0.4c0.3,0,0.6,0.4,0.9,0.5c0.4-1.1,1.1-1.5,1.3-2.7c0.1,0.1,0.3,0.1,0.3-0.2l0.3-1.5
	c0.1-0.2,0.1-0.5,0.1-0.7v-0.3v-0.2v-0.1c0,0,0-0.1,0-0.1l0.1,0.8c0-0.3,0-0.5,0.1-0.8c0-0.1,0-0.2,0.1-0.3c0-0.2,0.1-0.3,0.1-0.4
	c0-0.1,0-0.1,0-0.1c-0.3,0-0.6-0.1-0.9-0.3c-0.3,0.1-0.9,0-2-0.5s-2.5-1-3.2-1.2h-0.2c-0.4-0.1-0.8-0.2-1.3-0.1
	c-0.4,0-0.8,0.2-1.1,0.4c-0.3,0.3-0.5,0.7-0.7,1.1c0.1,0.2,0.3,0.4,0.4,0.5c-0.2,0-0.5,0-0.5,0.3c-0.4,0.6,0,1.2,0.3,1.9
	C383.1,143.2,383.1,143.8,383.3,144.1z"/>
<path class="st9" d="M383.8,148.4l0,0.1C383.8,148.6,383.8,148.5,383.8,148.4z"/>
<polygon class="st2" points="400.8,234.3 401.9,220 357.5,226.5 350.7,227.5 350.1,220 312.3,225.8 312.3,233.1 311.7,248.2 
	310.8,269.3 310.3,281 321.4,243.4 "/>
<polygon class="st5" points="400.8,234.3 400.8,234.3 321.4,243.4 310.3,281 397.1,284.8 "/>
<path class="st10" d="M232.7,214.4c1.3-3.4,4.9-9.8,15.3-18.6l0.1-0.1c2.3-2,4.7-3.8,7.2-5.5h0.1c0.8-0.5,1.6-1.1,2.4-1.6l0.1-0.1
	c1.6-1,3.2-2,4.9-2.9l0.3-0.2c0.8-0.4,1.5-0.8,2.3-1.2l0.4-0.2c0.8-0.4,1.6-0.8,2.4-1.2c10.7-5.2,22-9,33.7-11.3
	c0.2,0,0.4-0.1,0.5-0.1l-51.3-119l-15.5,133.3l-3.6,30.8C232.2,216,232.4,215.3,232.7,214.4z"/>
<path class="st10" d="M228.8,358.9c4.2-2.2,8.5-4.4,12.7-6.8c6.4-3.6,12.6-7.4,18.6-11.6c2.7-1.9,5.4-3.8,8-5.8
	c5.8-4.4,11.1-9.4,15.9-15c3.3-4,6.5-9,7-14.2c0.1-1,0.1-1.9,0-2.8c-0.6-6.3-5.3-11.6-10-15.7c-6.8-5.9-14.8-10.3-22.2-15.4
	c-7.9-5.4-15.5-11.3-21-19.2c-0.4-0.6-0.8-1.3-1.2-1.9l-0.3-0.5c-0.3-0.5-0.6-1.1-0.9-1.6c-0.1-0.1-0.1-0.3-0.2-0.4
	c-0.7-1.4-1.3-2.9-1.9-4.4v-0.1c0,0,0,0,0,0v-0.1c-0.7-1.9-1.2-3.8-1.6-5.8l-1.3-6.5v-0.1L216,355.3l10.9,5.7
	c0.1-0.3,0.3-0.7,0.5-0.9C227.8,359.5,228.3,359.2,228.8,358.9z"/>
<path class="st10" d="M244,230.1c-0.1,3.9,0.6,7.9,2.3,12.2c3.7,9.1,12.3,18.9,27.7,29.6l1.9,1.2l0.5,0.3c0.6,0.4,1.2,0.8,1.8,1.2
	c6.8,4.7,13.8,10.1,17.9,17.5c1.5,2.8,2.5,5.8,2.9,8.9l4.7-111.6l0.4-9.9C302,180,245.2,198.7,244,230.1z"/>
<path class="st10" d="M289.7,325.7c-6.1,7.4-13.9,13.5-21.5,19c-10.7,7.6-21.9,14.4-33.5,20.4l60.1,31.3l3.7-87.5
	c-0.7,3.4-1.9,6.6-3.7,9.5C293.4,320.9,291.6,323.4,289.7,325.7z"/>
<path class="st11" d="M268.3,182.9c-0.8,0.4-1.6,0.8-2.4,1.2l-0.4,0.2c-0.8,0.4-1.6,0.8-2.3,1.2l-0.3,0.2c-1.6,0.9-3.3,1.9-4.9,2.9
	l-0.1,0.1c-0.8,0.5-1.6,1.1-2.4,1.6h-0.1c-2.5,1.7-4.9,3.5-7.2,5.5l-0.1,0.1c-10.4,8.8-14,15.2-15.3,18.6c-0.4,1-0.5,1.7-0.6,2.1
	c0,0.2-0.1,0.4-0.1,0.7l-1.6,13.8v0.1v0.1l1.3,6.5c0.4,2,0.9,3.9,1.6,5.8v0.1c0,0,0,0,0,0c0.5,1.5,1.2,2.9,1.9,4.3
	c0.1,0.1,0.1,0.3,0.2,0.4c0.3,0.5,0.6,1.1,0.9,1.6l0.3,0.5c0.4,0.7,0.8,1.3,1.2,1.9c5.5,7.9,13.1,13.8,21,19.2
	c7.4,5.1,15.4,9.5,22.2,15.4c4.8,4.1,9.5,9.4,10,15.8c0.1,0.9,0.1,1.8,0,2.8c-0.5,5.3-3.7,10.2-7,14.2c-4.7,5.6-10,10.6-15.9,15
	c-2.6,2-5.3,4-8,5.8c-6,4.2-12.2,8-18.6,11.6c-4.2,2.4-8.4,4.6-12.7,6.8c-0.5,0.3-1,0.6-1.4,1.1c-0.2,0.3-0.4,0.6-0.5,0.9l7.8,4
	c11.7-6,22.9-12.8,33.5-20.4c7.6-5.5,15.4-11.6,21.4-18.9c1.9-2.3,3.7-4.8,5.2-7.3c1.8-2.9,3-6.2,3.7-9.5c0,0,0-0.1,0-0.1l0.3-7.4
	c0-0.1,0-0.3-0.1-0.4c-0.4-3.1-1.4-6.1-2.9-8.9c-4-7.4-11.1-12.7-17.9-17.5c-0.6-0.4-1.2-0.8-1.8-1.2l-0.5-0.3l-1.9-1.2
	c-15.4-10.6-23.9-20.5-27.7-29.6c-1.8-4.2-2.5-8.3-2.3-12.2c1.2-31.4,58.1-50.1,60.1-50.7c0,0,0.1,0,0.1,0l0.2-3.9l-1.7-4
	c0,0,0,0,0,0c-0.2,0-0.4,0-0.5,0.1C290.3,173.8,278.9,177.6,268.3,182.9z"/>
</svg>
